%TF.GenerationSoftware,KiCad,Pcbnew,7.0.1*%
%TF.CreationDate,2023-08-16T19:58:43-04:00*%
%TF.ProjectId,DaughterBoard_UTAP,44617567-6874-4657-9242-6f6172645f55,rev?*%
%TF.SameCoordinates,Original*%
%TF.FileFunction,Copper,L1,Top*%
%TF.FilePolarity,Positive*%
%FSLAX46Y46*%
G04 Gerber Fmt 4.6, Leading zero omitted, Abs format (unit mm)*
G04 Created by KiCad (PCBNEW 7.0.1) date 2023-08-16 19:58:43*
%MOMM*%
%LPD*%
G01*
G04 APERTURE LIST*
G04 Aperture macros list*
%AMRoundRect*
0 Rectangle with rounded corners*
0 $1 Rounding radius*
0 $2 $3 $4 $5 $6 $7 $8 $9 X,Y pos of 4 corners*
0 Add a 4 corners polygon primitive as box body*
4,1,4,$2,$3,$4,$5,$6,$7,$8,$9,$2,$3,0*
0 Add four circle primitives for the rounded corners*
1,1,$1+$1,$2,$3*
1,1,$1+$1,$4,$5*
1,1,$1+$1,$6,$7*
1,1,$1+$1,$8,$9*
0 Add four rect primitives between the rounded corners*
20,1,$1+$1,$2,$3,$4,$5,0*
20,1,$1+$1,$4,$5,$6,$7,0*
20,1,$1+$1,$6,$7,$8,$9,0*
20,1,$1+$1,$8,$9,$2,$3,0*%
%AMFreePoly0*
4,1,19,0.550000,-0.750000,0.000000,-0.750000,0.000000,-0.744911,-0.071157,-0.744911,-0.207708,-0.704816,-0.327430,-0.627875,-0.420627,-0.520320,-0.479746,-0.390866,-0.500000,-0.250000,-0.500000,0.250000,-0.479746,0.390866,-0.420627,0.520320,-0.327430,0.627875,-0.207708,0.704816,-0.071157,0.744911,0.000000,0.744911,0.000000,0.750000,0.550000,0.750000,0.550000,-0.750000,0.550000,-0.750000,
$1*%
%AMFreePoly1*
4,1,19,0.000000,0.744911,0.071157,0.744911,0.207708,0.704816,0.327430,0.627875,0.420627,0.520320,0.479746,0.390866,0.500000,0.250000,0.500000,-0.250000,0.479746,-0.390866,0.420627,-0.520320,0.327430,-0.627875,0.207708,-0.704816,0.071157,-0.744911,0.000000,-0.744911,0.000000,-0.750000,-0.550000,-0.750000,-0.550000,0.750000,0.000000,0.750000,0.000000,0.744911,0.000000,0.744911,
$1*%
G04 Aperture macros list end*
%TA.AperFunction,SMDPad,CuDef*%
%ADD10RoundRect,0.250000X-0.400000X-0.625000X0.400000X-0.625000X0.400000X0.625000X-0.400000X0.625000X0*%
%TD*%
%TA.AperFunction,ComponentPad*%
%ADD11R,1.800000X1.800000*%
%TD*%
%TA.AperFunction,ComponentPad*%
%ADD12C,1.800000*%
%TD*%
%TA.AperFunction,ComponentPad*%
%ADD13C,5.400000*%
%TD*%
%TA.AperFunction,SMDPad,CuDef*%
%ADD14RoundRect,0.250000X0.400000X0.625000X-0.400000X0.625000X-0.400000X-0.625000X0.400000X-0.625000X0*%
%TD*%
%TA.AperFunction,SMDPad,CuDef*%
%ADD15R,0.800000X0.950000*%
%TD*%
%TA.AperFunction,WasherPad*%
%ADD16C,3.650000*%
%TD*%
%TA.AperFunction,ComponentPad*%
%ADD17R,1.500000X1.500000*%
%TD*%
%TA.AperFunction,ComponentPad*%
%ADD18C,1.500000*%
%TD*%
%TA.AperFunction,SMDPad,CuDef*%
%ADD19R,1.400000X2.200000*%
%TD*%
%TA.AperFunction,SMDPad,CuDef*%
%ADD20FreePoly0,0.000000*%
%TD*%
%TA.AperFunction,SMDPad,CuDef*%
%ADD21R,1.000000X1.500000*%
%TD*%
%TA.AperFunction,SMDPad,CuDef*%
%ADD22FreePoly1,0.000000*%
%TD*%
%TA.AperFunction,ComponentPad*%
%ADD23O,1.700000X1.700000*%
%TD*%
%TA.AperFunction,ComponentPad*%
%ADD24C,1.700000*%
%TD*%
%TA.AperFunction,ComponentPad*%
%ADD25R,1.700000X1.700000*%
%TD*%
%TA.AperFunction,ComponentPad*%
%ADD26R,1.600000X1.600000*%
%TD*%
%TA.AperFunction,ComponentPad*%
%ADD27C,1.600000*%
%TD*%
%TA.AperFunction,SMDPad,CuDef*%
%ADD28FreePoly0,270.000000*%
%TD*%
%TA.AperFunction,SMDPad,CuDef*%
%ADD29R,1.500000X1.000000*%
%TD*%
%TA.AperFunction,SMDPad,CuDef*%
%ADD30FreePoly1,270.000000*%
%TD*%
%TA.AperFunction,SMDPad,CuDef*%
%ADD31RoundRect,0.155000X0.212500X0.155000X-0.212500X0.155000X-0.212500X-0.155000X0.212500X-0.155000X0*%
%TD*%
%TA.AperFunction,SMDPad,CuDef*%
%ADD32RoundRect,0.250000X-0.625000X0.400000X-0.625000X-0.400000X0.625000X-0.400000X0.625000X0.400000X0*%
%TD*%
%TA.AperFunction,SMDPad,CuDef*%
%ADD33R,1.400000X0.300000*%
%TD*%
%TA.AperFunction,ComponentPad*%
%ADD34O,2.540000X6.502400*%
%TD*%
%TA.AperFunction,SMDPad,CuDef*%
%ADD35RoundRect,0.250000X0.625000X-0.400000X0.625000X0.400000X-0.625000X0.400000X-0.625000X-0.400000X0*%
%TD*%
%TA.AperFunction,SMDPad,CuDef*%
%ADD36R,3.810000X2.080000*%
%TD*%
%TA.AperFunction,SMDPad,CuDef*%
%ADD37R,8.890000X11.430000*%
%TD*%
%TA.AperFunction,ViaPad*%
%ADD38C,0.800000*%
%TD*%
%TA.AperFunction,Conductor*%
%ADD39C,1.000000*%
%TD*%
%TA.AperFunction,Conductor*%
%ADD40C,0.250000*%
%TD*%
%TA.AperFunction,Conductor*%
%ADD41C,2.000000*%
%TD*%
%TA.AperFunction,Conductor*%
%ADD42C,0.200000*%
%TD*%
G04 APERTURE END LIST*
D10*
%TO.P,R16,1*%
%TO.N,/GPIO_20*%
X85700000Y-105750000D03*
%TO.P,R16,2*%
%TO.N,Net-(U5-DIR)*%
X88800000Y-105750000D03*
%TD*%
%TO.P,R15,1*%
%TO.N,/GPIO_27*%
X101200000Y-106000000D03*
%TO.P,R15,2*%
%TO.N,Net-(U4-DIR)*%
X104300000Y-106000000D03*
%TD*%
%TO.P,R14,1*%
%TO.N,/GPIO_13*%
X55700000Y-105750000D03*
%TO.P,R14,2*%
%TO.N,Net-(U1-DIR)*%
X58800000Y-105750000D03*
%TD*%
%TO.P,R13,1*%
%TO.N,/GPIO_21*%
X69950000Y-105750000D03*
%TO.P,R13,2*%
%TO.N,Net-(U2-DIR)*%
X73050000Y-105750000D03*
%TD*%
%TO.P,R12,2*%
%TO.N,Net-(U3-DIR)*%
X119300000Y-105750000D03*
%TO.P,R12,1*%
%TO.N,/GPIO_26*%
X116200000Y-105750000D03*
%TD*%
D11*
%TO.P,GPIO_22,1,K*%
%TO.N,GND*%
X76250000Y-118790000D03*
D12*
%TO.P,GPIO_22,2,A*%
%TO.N,/GPIO_22*%
X76250000Y-116250000D03*
%TD*%
D10*
%TO.P,R6,1*%
%TO.N,+3.3V*%
X73000000Y-76500000D03*
%TO.P,R6,2*%
%TO.N,/DSDA+*%
X76100000Y-76500000D03*
%TD*%
D13*
%TO.P,,0*%
%TO.N,N/C*%
X55320000Y-117290000D03*
%TD*%
D14*
%TO.P,R9,1*%
%TO.N,GND*%
X63800000Y-105750000D03*
%TO.P,R9,2*%
%TO.N,Net-(U1-DIR)*%
X60700000Y-105750000D03*
%TD*%
D11*
%TO.P,GPIO_24,1,K*%
%TO.N,GND*%
X86250000Y-118805000D03*
D12*
%TO.P,GPIO_24,2,A*%
%TO.N,/GPIO_24*%
X86250000Y-116265000D03*
%TD*%
D15*
%TO.P,LED1,1,K*%
%TO.N,GND*%
X60800000Y-115825000D03*
%TO.P,LED1,2,A*%
%TO.N,Net-(J4-GCLK2{slash}GPIO6)*%
X62500000Y-115825000D03*
%TD*%
D16*
%TO.P,    X2    ,*%
%TO.N,*%
X161770000Y-78097500D03*
X161770000Y-66667500D03*
D17*
%TO.P,    X2    ,1*%
%TO.N,/DSCL-*%
X155420000Y-76827500D03*
D18*
%TO.P,    X2    ,2*%
%TO.N,/DSCL+*%
X152880000Y-75557500D03*
%TO.P,    X2    ,3*%
%TO.N,/GRE_STR_2_MOTOR*%
X155420000Y-74287500D03*
%TO.P,    X2    ,4*%
%TO.N,+3.3V*%
X152880000Y-73017500D03*
%TO.P,    X2    ,5*%
%TO.N,GND*%
X155420000Y-71747500D03*
%TO.P,    X2    ,6*%
%TO.N,/GRE_2_MOTOR*%
X152880000Y-70477500D03*
%TO.P,    X2    ,7*%
%TO.N,/DSDA-*%
X155420000Y-69207500D03*
%TO.P,    X2    ,8*%
%TO.N,/DSDA+*%
X152880000Y-67937500D03*
%TD*%
D19*
%TO.P,TP4,1,1*%
%TO.N,/DSDA-*%
X157000000Y-61750000D03*
%TD*%
D20*
%TO.P,JP5,1,A*%
%TO.N,+3.3V*%
X125200000Y-70000000D03*
D21*
%TO.P,JP5,2,C*%
%TO.N,Net-(J1-Pin_2)*%
X126500000Y-70000000D03*
D22*
%TO.P,JP5,3,B*%
%TO.N,GND*%
X127800000Y-70000000D03*
%TD*%
D14*
%TO.P,R7,1*%
%TO.N,GND*%
X93800000Y-105750000D03*
%TO.P,R7,2*%
%TO.N,Net-(U5-DIR)*%
X90700000Y-105750000D03*
%TD*%
D23*
%TO.P,U6,0*%
%TO.N,N/C*%
X110534033Y-74032000D03*
X110534033Y-76572000D03*
X110534033Y-79112000D03*
X110534033Y-81652000D03*
X110534033Y-84192000D03*
D24*
X110534033Y-86732000D03*
%TO.P,U6,1,GND*%
%TO.N,GND*%
X52209033Y-73757000D03*
D23*
%TO.P,U6,2,OE*%
%TO.N,unconnected-(U6-OE-Pad2)*%
X52209033Y-76297000D03*
%TO.P,U6,3,SCL*%
%TO.N,/I2C1_SCL*%
X52209033Y-78837000D03*
%TO.P,U6,4,SDA*%
%TO.N,/I2C1_SDA*%
X52209033Y-81377000D03*
%TO.P,U6,5,VCC*%
%TO.N,+3.3V*%
X52209033Y-83917000D03*
%TO.P,U6,6,V+*%
%TO.N,unconnected-(U6-V+-Pad6)*%
X52209033Y-86457000D03*
D25*
%TO.P,U6,7,PWM0*%
%TO.N,/PWM1_OR*%
X57148033Y-86384000D03*
D23*
%TO.P,U6,8,V+0*%
%TO.N,unconnected-(U6-V+0-Pad8)*%
X57148033Y-88924000D03*
%TO.P,U6,9,GND0*%
%TO.N,unconnected-(U6-GND0-Pad9)*%
X57148033Y-91464000D03*
D25*
%TO.P,U6,10,PWM1*%
%TO.N,/PWM2_BRO*%
X59673033Y-86384000D03*
D23*
%TO.P,U6,11,V+1*%
%TO.N,unconnected-(U6-V+1-Pad11)*%
X59673033Y-88924000D03*
%TO.P,U6,12,GND1*%
%TO.N,unconnected-(U6-GND1-Pad12)*%
X59673033Y-91464000D03*
D25*
%TO.P,U6,13,PWM2*%
%TO.N,/PWM3_BLU*%
X62213033Y-86384000D03*
D23*
%TO.P,U6,14,V+2*%
%TO.N,unconnected-(U6-V+2-Pad14)*%
X62213033Y-88924000D03*
%TO.P,U6,15,GND2*%
%TO.N,unconnected-(U6-GND2-Pad15)*%
X62213033Y-91464000D03*
D25*
%TO.P,U6,16,PWM3*%
%TO.N,/PWM4_GRE_1*%
X64763033Y-86384000D03*
D23*
%TO.P,U6,17,V+3*%
%TO.N,unconnected-(U6-V+3-Pad17)*%
X64763033Y-88924000D03*
%TO.P,U6,18,GND3*%
%TO.N,unconnected-(U6-GND3-Pad18)*%
X64763033Y-91464000D03*
D25*
%TO.P,U6,19,GND4*%
%TO.N,/PWM5_GRE_2*%
X69848033Y-86384000D03*
D23*
%TO.P,U6,20,V+4*%
%TO.N,unconnected-(U6-V+4-Pad20)*%
X69848033Y-88924000D03*
%TO.P,U6,21,PWM4*%
%TO.N,unconnected-(U6-PWM4-Pad21)*%
X69848033Y-91464000D03*
D25*
%TO.P,U6,22,GND5*%
%TO.N,unconnected-(U6-GND5-Pad22)*%
X72373033Y-86384000D03*
D23*
%TO.P,U6,23,V+5*%
%TO.N,unconnected-(U6-V+5-Pad23)*%
X72373033Y-88924000D03*
%TO.P,U6,24,PWM5*%
%TO.N,unconnected-(U6-PWM5-Pad24)*%
X72373033Y-91464000D03*
D25*
%TO.P,U6,25,GND6*%
%TO.N,unconnected-(U6-GND6-Pad25)*%
X74913033Y-86384000D03*
D23*
%TO.P,U6,26,V+6*%
%TO.N,unconnected-(U6-V+6-Pad26)*%
X74913033Y-88924000D03*
%TO.P,U6,27,PWM6*%
%TO.N,unconnected-(U6-PWM6-Pad27)*%
X74913033Y-91464000D03*
D25*
%TO.P,U6,28,GND7*%
%TO.N,unconnected-(U6-GND7-Pad28)*%
X77463033Y-86384000D03*
D23*
%TO.P,U6,29,V+7*%
%TO.N,unconnected-(U6-V+7-Pad29)*%
X77463033Y-88924000D03*
%TO.P,U6,30,PWM7*%
%TO.N,unconnected-(U6-PWM7-Pad30)*%
X77463033Y-91464000D03*
%TD*%
D11*
%TO.P,GPIO_23,1,K*%
%TO.N,GND*%
X81250000Y-118790000D03*
D12*
%TO.P,GPIO_23,2,A*%
%TO.N,/GPIO_23*%
X81250000Y-116250000D03*
%TD*%
D23*
%TO.P,U5,1,PWM*%
%TO.N,/PWM1_OR*%
X83820000Y-108550000D03*
%TO.P,U5,2,DIR*%
%TO.N,Net-(U5-DIR)*%
X86360000Y-108550000D03*
%TO.P,U5,3,~FAULT*%
%TO.N,unconnected-(U5-~FAULT-Pad3)*%
X88900000Y-108550000D03*
%TO.P,U5,4,~EN*%
%TO.N,unconnected-(U5-~EN-Pad4)*%
X91440000Y-108550000D03*
D25*
%TO.P,U5,5,GND*%
%TO.N,GND*%
X93980000Y-108550000D03*
%TO.P,U5,6,GND*%
X93980000Y-95850000D03*
D23*
%TO.P,U5,7,VIN*%
%TO.N,+12V*%
X91440000Y-95850000D03*
%TO.P,U5,8,M2*%
%TO.N,/OR_MOTOR*%
X88900000Y-95850000D03*
%TO.P,U5,9,M1*%
%TO.N,/OR_STR_MOTOR*%
X86360000Y-95850000D03*
%TO.P,U5,10,VM*%
%TO.N,unconnected-(U5-VM-Pad10)*%
X83820000Y-95850000D03*
%TD*%
%TO.P,U3,1,PWM*%
%TO.N,/PWM5_GRE_2*%
X114570000Y-108500000D03*
%TO.P,U3,2,DIR*%
%TO.N,Net-(U3-DIR)*%
X117110000Y-108500000D03*
%TO.P,U3,3,~FAULT*%
%TO.N,unconnected-(U3-~FAULT-Pad3)*%
X119650000Y-108500000D03*
%TO.P,U3,4,~EN*%
%TO.N,unconnected-(U3-~EN-Pad4)*%
X122190000Y-108500000D03*
D25*
%TO.P,U3,5,GND*%
%TO.N,GND*%
X124730000Y-108500000D03*
%TO.P,U3,6,GND*%
X124730000Y-95800000D03*
D23*
%TO.P,U3,7,VIN*%
%TO.N,+12V*%
X122190000Y-95800000D03*
%TO.P,U3,8,M2*%
%TO.N,/GRE_2_MOTOR*%
X119650000Y-95800000D03*
%TO.P,U3,9,M1*%
%TO.N,/GRE_STR_2_MOTOR*%
X117110000Y-95800000D03*
%TO.P,U3,10,VM*%
%TO.N,unconnected-(U3-VM-Pad10)*%
X114570000Y-95800000D03*
%TD*%
D14*
%TO.P,R10,1*%
%TO.N,GND*%
X78050000Y-105750000D03*
%TO.P,R10,2*%
%TO.N,Net-(U2-DIR)*%
X74950000Y-105750000D03*
%TD*%
D20*
%TO.P,JP1,1,A*%
%TO.N,+3.3V*%
X131400000Y-70000000D03*
D21*
%TO.P,JP1,2,C*%
%TO.N,Net-(JP1-C)*%
X132700000Y-70000000D03*
D22*
%TO.P,JP1,3,B*%
%TO.N,GND*%
X134000000Y-70000000D03*
%TD*%
D14*
%TO.P,R2,1*%
%TO.N,/DSDA-*%
X76100000Y-73500000D03*
%TO.P,R2,2*%
%TO.N,GND*%
X73000000Y-73500000D03*
%TD*%
D11*
%TO.P,GPIO_25,1,K*%
%TO.N,GND*%
X91250000Y-118805000D03*
D12*
%TO.P,GPIO_25,2,A*%
%TO.N,/GPIO_25*%
X91250000Y-116265000D03*
%TD*%
D25*
%TO.P,J1,1,Pin_1*%
%TO.N,Net-(J1-Pin_1)*%
X119460000Y-66750000D03*
D23*
%TO.P,J1,2,Pin_2*%
%TO.N,Net-(J1-Pin_2)*%
X122000000Y-66750000D03*
%TO.P,J1,3,Pin_3*%
%TO.N,/I2C1_SCL*%
X124540000Y-66750000D03*
%TO.P,J1,4,Pin_4*%
%TO.N,/I2C1_SDA*%
X127080000Y-66750000D03*
%TD*%
D26*
%TO.P,C1,1,+*%
%TO.N,+12V*%
X145750000Y-109000000D03*
D27*
%TO.P,C1,2,-*%
%TO.N,GND*%
X143250000Y-109000000D03*
%TD*%
D28*
%TO.P,JP4,1,A*%
%TO.N,+3.3V*%
X123750000Y-112920000D03*
D29*
%TO.P,JP4,2,C*%
%TO.N,Net-(JP4-C)*%
X123750000Y-114220000D03*
D30*
%TO.P,JP4,3,B*%
%TO.N,GND*%
X123750000Y-115520000D03*
%TD*%
D23*
%TO.P,U4,1,PWM*%
%TO.N,/PWM2_BRO*%
X99070000Y-108500000D03*
%TO.P,U4,2,DIR*%
%TO.N,Net-(U4-DIR)*%
X101610000Y-108500000D03*
%TO.P,U4,3,~FAULT*%
%TO.N,unconnected-(U4-~FAULT-Pad3)*%
X104150000Y-108500000D03*
%TO.P,U4,4,~EN*%
%TO.N,unconnected-(U4-~EN-Pad4)*%
X106690000Y-108500000D03*
D25*
%TO.P,U4,5,GND*%
%TO.N,GND*%
X109230000Y-108500000D03*
%TO.P,U4,6,GND*%
X109230000Y-95800000D03*
D23*
%TO.P,U4,7,VIN*%
%TO.N,+12V*%
X106690000Y-95800000D03*
%TO.P,U4,8,M2*%
%TO.N,/BRO_MOTOR*%
X104150000Y-95800000D03*
%TO.P,U4,9,M1*%
%TO.N,/BRO_STR_MOTOR*%
X101610000Y-95800000D03*
%TO.P,U4,10,VM*%
%TO.N,unconnected-(U4-VM-Pad10)*%
X99070000Y-95800000D03*
%TD*%
D19*
%TO.P,TP6,1,1*%
%TO.N,/DSCL+*%
X144250000Y-64500000D03*
%TD*%
D13*
%TO.P,,0*%
%TO.N,N/C*%
X113320000Y-117290000D03*
%TD*%
D20*
%TO.P,JP2,1,A*%
%TO.N,+3.3V*%
X137950000Y-70000000D03*
D21*
%TO.P,JP2,2,C*%
%TO.N,Net-(JP2-C)*%
X139250000Y-70000000D03*
D22*
%TO.P,JP2,3,B*%
%TO.N,GND*%
X140550000Y-70000000D03*
%TD*%
D20*
%TO.P,JP6,1,A*%
%TO.N,+3.3V*%
X118700000Y-70000000D03*
D21*
%TO.P,JP6,2,C*%
%TO.N,Net-(J1-Pin_1)*%
X120000000Y-70000000D03*
D22*
%TO.P,JP6,3,B*%
%TO.N,GND*%
X121300000Y-70000000D03*
%TD*%
D31*
%TO.P,C2,1*%
%TO.N,+3.3V*%
X64117500Y-75275000D03*
%TO.P,C2,2*%
%TO.N,GND*%
X62982500Y-75275000D03*
%TD*%
D19*
%TO.P,GND,1,1*%
%TO.N,GND*%
X117000000Y-76500000D03*
%TD*%
%TO.P,TP8,1,1*%
%TO.N,GND*%
X108500000Y-120500000D03*
%TD*%
D32*
%TO.P,R3,1*%
%TO.N,/DSCL+*%
X78550000Y-78725000D03*
%TO.P,R3,2*%
%TO.N,/DSCL-*%
X78550000Y-81825000D03*
%TD*%
D14*
%TO.P,R8,1*%
%TO.N,GND*%
X109300000Y-106000000D03*
%TO.P,R8,2*%
%TO.N,Net-(U4-DIR)*%
X106200000Y-106000000D03*
%TD*%
D23*
%TO.P,U1,1,PWM*%
%TO.N,/PWM3_BLU*%
X53270000Y-108550000D03*
%TO.P,U1,2,DIR*%
%TO.N,Net-(U1-DIR)*%
X55810000Y-108550000D03*
%TO.P,U1,3,~FAULT*%
%TO.N,unconnected-(U1-~FAULT-Pad3)*%
X58350000Y-108550000D03*
%TO.P,U1,4,~EN*%
%TO.N,unconnected-(U1-~EN-Pad4)*%
X60890000Y-108550000D03*
D25*
%TO.P,U1,5,GND*%
%TO.N,GND*%
X63430000Y-108550000D03*
%TO.P,U1,6,GND*%
X63430000Y-95850000D03*
D23*
%TO.P,U1,7,VIN*%
%TO.N,+12V*%
X60890000Y-95850000D03*
%TO.P,U1,8,M2*%
%TO.N,/BLU_MOTOR*%
X58350000Y-95850000D03*
%TO.P,U1,9,M1*%
%TO.N,/BLU_STR_MOTOR*%
X55810000Y-95850000D03*
%TO.P,U1,10,VM*%
%TO.N,unconnected-(U1-VM-Pad10)*%
X53270000Y-95850000D03*
%TD*%
D33*
%TO.P,IC1,1,VDD(A)*%
%TO.N,+3.3V*%
X61350000Y-76775000D03*
%TO.P,IC1,2,SDA*%
%TO.N,/I2C1_SDA*%
X61350000Y-77275000D03*
%TO.P,IC1,3,EN*%
%TO.N,unconnected-(IC1-EN-Pad3)*%
X61350000Y-77775000D03*
%TO.P,IC1,4,SCL*%
%TO.N,/I2C1_SCL*%
X61350000Y-78275000D03*
%TO.P,IC1,5,VSS*%
%TO.N,GND*%
X61350000Y-78775000D03*
%TO.P,IC1,6,DSCLM*%
%TO.N,/DSCL-*%
X65750000Y-78775000D03*
%TO.P,IC1,7,DSCLP*%
%TO.N,/DSCL+*%
X65750000Y-78275000D03*
%TO.P,IC1,8,DSDAP*%
%TO.N,/DSDA+*%
X65750000Y-77775000D03*
%TO.P,IC1,9,DSDAM*%
%TO.N,/DSDA-*%
X65750000Y-77275000D03*
%TO.P,IC1,10,VDD(B)*%
%TO.N,+3.3V*%
X65750000Y-76775000D03*
%TD*%
D19*
%TO.P,TP9,1,1*%
%TO.N,+12V*%
X116750000Y-87500000D03*
%TD*%
D14*
%TO.P,R1,1*%
%TO.N,/DSCL-*%
X76100000Y-81775000D03*
%TO.P,R1,2*%
%TO.N,GND*%
X73000000Y-81775000D03*
%TD*%
D34*
%TO.P,J3,1,Pin_1*%
%TO.N,-BATT*%
X153245000Y-88440000D03*
%TO.P,J3,2,Pin_2*%
%TO.N,+12V*%
X153245000Y-96314000D03*
%TD*%
D19*
%TO.P,TP10,1,1*%
%TO.N,+5V*%
X121500000Y-76500000D03*
%TD*%
D25*
%TO.P,BME/BMP280,1,P3*%
%TO.N,Net-(JP3-C)*%
X120250000Y-121050000D03*
D23*
%TO.P,BME/BMP280,2,P4*%
%TO.N,Net-(JP4-C)*%
X120250000Y-118510000D03*
%TO.P,BME/BMP280,3,SCL*%
%TO.N,/I2C1_SCL*%
X120250000Y-115970000D03*
%TO.P,BME/BMP280,4,SDA*%
%TO.N,/I2C1_SDA*%
X120250000Y-113430000D03*
%TD*%
D13*
%TO.P,,0*%
%TO.N,N/C*%
X113320000Y-68290000D03*
%TD*%
D19*
%TO.P,TP1,1,1*%
%TO.N,/I2C1_SCL*%
X96500000Y-120500000D03*
%TD*%
D35*
%TO.P,R4,1*%
%TO.N,/DSDA+*%
X78550000Y-76550000D03*
%TO.P,R4,2*%
%TO.N,/DSDA-*%
X78550000Y-73450000D03*
%TD*%
D23*
%TO.P,U2,1,PWM*%
%TO.N,/PWM4_GRE_1*%
X68570000Y-108500000D03*
%TO.P,U2,2,DIR*%
%TO.N,Net-(U2-DIR)*%
X71110000Y-108500000D03*
%TO.P,U2,3,~FAULT*%
%TO.N,unconnected-(U2-~FAULT-Pad3)*%
X73650000Y-108500000D03*
%TO.P,U2,4,~EN*%
%TO.N,unconnected-(U2-~EN-Pad4)*%
X76190000Y-108500000D03*
D25*
%TO.P,U2,5,GND*%
%TO.N,GND*%
X78730000Y-108500000D03*
%TO.P,U2,6,GND*%
X78730000Y-95800000D03*
D23*
%TO.P,U2,7,VIN*%
%TO.N,+12V*%
X76190000Y-95800000D03*
%TO.P,U2,8,M2*%
%TO.N,/GRE_1_MOTOR*%
X73650000Y-95800000D03*
%TO.P,U2,9,M1*%
%TO.N,/GRE_STR_1_MOTOR*%
X71110000Y-95800000D03*
%TO.P,U2,10,VM*%
%TO.N,unconnected-(U2-VM-Pad10)*%
X68570000Y-95800000D03*
%TD*%
D15*
%TO.P,LED2,1,K*%
%TO.N,GND*%
X60800000Y-119500000D03*
%TO.P,LED2,2,A*%
%TO.N,Net-(J4-GPIO16)*%
X62500000Y-119500000D03*
%TD*%
D25*
%TO.P,OLED,1,P1*%
%TO.N,Net-(JP1-C)*%
X132200000Y-66750000D03*
D23*
%TO.P,OLED,2,P2*%
%TO.N,Net-(JP2-C)*%
X134740000Y-66750000D03*
%TO.P,OLED,3,SCL*%
%TO.N,/I2C1_SCL*%
X137280000Y-66750000D03*
%TO.P,OLED,4,SDA*%
%TO.N,/I2C1_SDA*%
X139820000Y-66750000D03*
%TD*%
D36*
%TO.P,Q1,1,G*%
%TO.N,+12V*%
X147485000Y-99790000D03*
D37*
%TO.P,Q1,2,D*%
%TO.N,-BATT*%
X136055000Y-97250000D03*
D36*
%TO.P,Q1,3,S*%
%TO.N,GND*%
X147485000Y-94710000D03*
%TD*%
D28*
%TO.P,JP3,1,A*%
%TO.N,+3.3V*%
X123750000Y-118700000D03*
D29*
%TO.P,JP3,2,C*%
%TO.N,Net-(JP3-C)*%
X123750000Y-120000000D03*
D30*
%TO.P,JP3,3,B*%
%TO.N,GND*%
X123750000Y-121300000D03*
%TD*%
D19*
%TO.P,TP2,1,1*%
%TO.N,/I2C1_SDA*%
X100500000Y-120500000D03*
%TD*%
%TO.P,TP7,1,1*%
%TO.N,/PWM1_OR*%
X104500000Y-120500000D03*
%TD*%
D13*
%TO.P,,0*%
%TO.N,N/C*%
X55320000Y-68290000D03*
%TD*%
D16*
%TO.P,    X1    ,*%
%TO.N,*%
X161770000Y-119847500D03*
X161770000Y-108417500D03*
D17*
%TO.P,    X1    ,1*%
%TO.N,/OR_STR_MOTOR*%
X155420000Y-118577500D03*
D18*
%TO.P,    X1    ,2*%
%TO.N,/OR_MOTOR*%
X152880000Y-117307500D03*
%TO.P,    X1    ,3*%
%TO.N,/GRE_STR_1_MOTOR*%
X155420000Y-116037500D03*
%TO.P,    X1    ,4*%
%TO.N,/BLU_MOTOR*%
X152880000Y-114767500D03*
%TO.P,    X1    ,5*%
%TO.N,/BLU_STR_MOTOR*%
X155420000Y-113497500D03*
%TO.P,    X1    ,6*%
%TO.N,/GRE_1_MOTOR*%
X152880000Y-112227500D03*
%TO.P,    X1    ,7*%
%TO.N,/BRO_STR_MOTOR*%
X155420000Y-110957500D03*
%TO.P,    X1    ,8*%
%TO.N,/BRO_MOTOR*%
X152880000Y-109687500D03*
%TD*%
D10*
%TO.P,R5,1*%
%TO.N,+3.3V*%
X73000000Y-78775000D03*
%TO.P,R5,2*%
%TO.N,/DSCL+*%
X76100000Y-78775000D03*
%TD*%
D19*
%TO.P,TP5,1,1*%
%TO.N,/DSCL-*%
X148250000Y-64500000D03*
%TD*%
D14*
%TO.P,R11,1*%
%TO.N,GND*%
X124300000Y-105750000D03*
%TO.P,R11,2*%
%TO.N,Net-(U3-DIR)*%
X121200000Y-105750000D03*
%TD*%
D23*
%TO.P,U7,1,OUT-*%
%TO.N,GND*%
X126100000Y-88290000D03*
D24*
X126100000Y-85750000D03*
D23*
%TO.P,U7,2,IN-*%
X144700000Y-88240000D03*
D24*
X144700000Y-85700000D03*
D25*
%TO.P,U7,3,IN+*%
%TO.N,+12V*%
X144700000Y-77580000D03*
X144700000Y-75040000D03*
%TO.P,U7,4,OUT+*%
%TO.N,+5V*%
X126100000Y-77530000D03*
X126100000Y-74990000D03*
%TD*%
D19*
%TO.P,TP3,1,1*%
%TO.N,/DSDA+*%
X161500000Y-61750000D03*
%TD*%
D25*
%TO.P,J4,1,3V3*%
%TO.N,+3.3V*%
X60150000Y-69790000D03*
D23*
%TO.P,J4,2,5V*%
%TO.N,+5V*%
X60150000Y-67250000D03*
%TO.P,J4,3,SDA/GPIO2*%
%TO.N,/I2C1_SDA*%
X62690000Y-69790000D03*
%TO.P,J4,4,5V*%
%TO.N,+5V*%
X62690000Y-67250000D03*
%TO.P,J4,5,SCL/GPIO3*%
%TO.N,/I2C1_SCL*%
X65230000Y-69790000D03*
%TO.P,J4,6,GND*%
%TO.N,GND*%
X65230000Y-67250000D03*
%TO.P,J4,7,GCLK0/GPIO4*%
%TO.N,unconnected-(J4-GCLK0{slash}GPIO4-Pad7)*%
X67770000Y-69790000D03*
%TO.P,J4,8,GPIO14/TXD*%
%TO.N,unconnected-(J4-GPIO14{slash}TXD-Pad8)*%
X67770000Y-67250000D03*
%TO.P,J4,9,GND*%
%TO.N,GND*%
X70310000Y-69790000D03*
%TO.P,J4,10,GPIO15/RXD*%
%TO.N,unconnected-(J4-GPIO15{slash}RXD-Pad10)*%
X70310000Y-67250000D03*
%TO.P,J4,11,GPIO17*%
%TO.N,unconnected-(J4-GPIO17-Pad11)*%
X72850000Y-69790000D03*
%TO.P,J4,12,GPIO18/PWM0*%
%TO.N,unconnected-(J4-GPIO18{slash}PWM0-Pad12)*%
X72850000Y-67250000D03*
%TO.P,J4,13,GPIO27*%
%TO.N,/GPIO_27*%
X75390000Y-69790000D03*
%TO.P,J4,14,GND*%
%TO.N,GND*%
X75390000Y-67250000D03*
%TO.P,J4,15,GPIO22*%
%TO.N,/GPIO_22*%
X77930000Y-69790000D03*
%TO.P,J4,16,GPIO23*%
%TO.N,/GPIO_23*%
X77930000Y-67250000D03*
%TO.P,J4,17,3V3*%
%TO.N,+3.3V*%
X80470000Y-69790000D03*
%TO.P,J4,18,GPIO24*%
%TO.N,/GPIO_24*%
X80470000Y-67250000D03*
%TO.P,J4,19,MOSI0/GPIO10*%
%TO.N,unconnected-(J4-MOSI0{slash}GPIO10-Pad19)*%
X83010000Y-69790000D03*
%TO.P,J4,20,GND*%
%TO.N,GND*%
X83010000Y-67250000D03*
%TO.P,J4,21,MISO0/GPIO9*%
%TO.N,unconnected-(J4-MISO0{slash}GPIO9-Pad21)*%
X85550000Y-69790000D03*
%TO.P,J4,22,GPIO25*%
%TO.N,/GPIO_25*%
X85550000Y-67250000D03*
%TO.P,J4,23,SCLK0/GPIO11*%
%TO.N,unconnected-(J4-SCLK0{slash}GPIO11-Pad23)*%
X88090000Y-69790000D03*
%TO.P,J4,24,~{CE0}/GPIO8*%
%TO.N,unconnected-(J4-~{CE0}{slash}GPIO8-Pad24)*%
X88090000Y-67250000D03*
%TO.P,J4,25,GND*%
%TO.N,GND*%
X90630000Y-69790000D03*
%TO.P,J4,26,~{CE1}/GPIO7*%
%TO.N,unconnected-(J4-~{CE1}{slash}GPIO7-Pad26)*%
X90630000Y-67250000D03*
%TO.P,J4,27,ID_SD/GPIO0*%
%TO.N,unconnected-(J4-ID_SD{slash}GPIO0-Pad27)*%
X93170000Y-69790000D03*
%TO.P,J4,28,ID_SC/GPIO1*%
%TO.N,unconnected-(J4-ID_SC{slash}GPIO1-Pad28)*%
X93170000Y-67250000D03*
%TO.P,J4,29,GCLK1/GPIO5*%
%TO.N,unconnected-(J4-GCLK1{slash}GPIO5-Pad29)*%
X95710000Y-69790000D03*
%TO.P,J4,30,GND*%
%TO.N,GND*%
X95710000Y-67250000D03*
%TO.P,J4,31,GCLK2/GPIO6*%
%TO.N,Net-(J4-GCLK2{slash}GPIO6)*%
X98250000Y-69790000D03*
%TO.P,J4,32,PWM0/GPIO12*%
%TO.N,unconnected-(J4-PWM0{slash}GPIO12-Pad32)*%
X98250000Y-67250000D03*
%TO.P,J4,33,PWM1/GPIO13*%
%TO.N,/GPIO_13*%
X100790000Y-69790000D03*
%TO.P,J4,34,GND*%
%TO.N,GND*%
X100790000Y-67250000D03*
%TO.P,J4,35,GPIO19/MISO1*%
%TO.N,unconnected-(J4-GPIO19{slash}MISO1-Pad35)*%
X103330000Y-69790000D03*
%TO.P,J4,36,GPIO16*%
%TO.N,Net-(J4-GPIO16)*%
X103330000Y-67250000D03*
%TO.P,J4,37,GPIO26*%
%TO.N,/GPIO_26*%
X105870000Y-69790000D03*
%TO.P,J4,38,GPIO20/MOSI1*%
%TO.N,/GPIO_20*%
X105870000Y-67250000D03*
%TO.P,J4,39,GND*%
%TO.N,GND*%
X108410000Y-69790000D03*
%TO.P,J4,40,GPIO21/SCLK1*%
%TO.N,/GPIO_21*%
X108410000Y-67250000D03*
%TD*%
D38*
%TO.N,GND*%
X56500000Y-103000000D03*
%TO.N,/GPIO_13*%
X54500000Y-104000000D03*
%TO.N,/GPIO_21*%
X69500000Y-104000000D03*
%TO.N,/GPIO_20*%
X87250000Y-105500000D03*
%TO.N,/GPIO_27*%
X99250000Y-106000000D03*
%TO.N,/GPIO_26*%
X115750000Y-107250000D03*
%TO.N,GND*%
X68750000Y-74250000D03*
X62527464Y-82777464D03*
X117750000Y-120000000D03*
X59000000Y-81000000D03*
X99500000Y-92750000D03*
X100750000Y-86750000D03*
X59750000Y-99250000D03*
X135750000Y-70500000D03*
X62500000Y-73000000D03*
X99250000Y-87500000D03*
X103750000Y-80250000D03*
X129500000Y-69500000D03*
X69500000Y-102250000D03*
X92000000Y-77250000D03*
X110250000Y-120500000D03*
X113500000Y-76500000D03*
X98500000Y-92750000D03*
X99000000Y-93500000D03*
X91500000Y-78000000D03*
X93000000Y-77250000D03*
X92500000Y-78000000D03*
X129250000Y-120250000D03*
X115000000Y-76500000D03*
X135750000Y-69500000D03*
X58250000Y-81750000D03*
X103750000Y-79250000D03*
X102250000Y-87500000D03*
X91500000Y-76500000D03*
X58500000Y-112250000D03*
X60000000Y-113000000D03*
X101750000Y-86750000D03*
X123000000Y-70500000D03*
X99750000Y-86750000D03*
X98000000Y-93500000D03*
X59500000Y-118250000D03*
X69750000Y-73500000D03*
X60500000Y-112250000D03*
X93500000Y-76500000D03*
X129500000Y-115520000D03*
X68000000Y-82750000D03*
X104500000Y-80750000D03*
X114250000Y-77250000D03*
X61000000Y-113000000D03*
X103000000Y-79750000D03*
X101250000Y-86000000D03*
X59500000Y-112250000D03*
X59000000Y-113000000D03*
X114250000Y-75750000D03*
X100250000Y-87500000D03*
X131625000Y-107875000D03*
X98750000Y-86750000D03*
X71000000Y-73500000D03*
X62750000Y-83000000D03*
X59500000Y-117250000D03*
X59750000Y-100250000D03*
X71500000Y-110500000D03*
X97500000Y-92750000D03*
X99250000Y-86000000D03*
X111250000Y-120500000D03*
X92500000Y-76500000D03*
X123000000Y-69500000D03*
X67250000Y-82250000D03*
X104500000Y-79750000D03*
X68000000Y-81750000D03*
X69500000Y-101250000D03*
X61500000Y-73500000D03*
X129250000Y-121250000D03*
X129250639Y-119250639D03*
X90500000Y-78000000D03*
X98250000Y-87500000D03*
X101250000Y-87500000D03*
X142750000Y-67250000D03*
X52500000Y-88500000D03*
X129500000Y-70500000D03*
X104500000Y-78750000D03*
X60500000Y-99750000D03*
X70250000Y-101750000D03*
X94500000Y-120250000D03*
X129250000Y-122250000D03*
X100250000Y-86000000D03*
X61500000Y-74500000D03*
X56000000Y-73500000D03*
X91000000Y-77250000D03*
X67250000Y-83250000D03*
X57000000Y-73500000D03*
X56500000Y-74250000D03*
X142000000Y-68000000D03*
X59750000Y-80250000D03*
X61777464Y-83527464D03*
X70250000Y-102750000D03*
%TO.N,+3.3V*%
X144750000Y-71750000D03*
X102000000Y-84000000D03*
X67425000Y-75425000D03*
X131302730Y-115643620D03*
X69500000Y-77500000D03*
X78750000Y-84000000D03*
X135000000Y-72750000D03*
%TO.N,/I2C1_SDA*%
X129500000Y-60500000D03*
X98500000Y-121475500D03*
%TO.N,/I2C1_SCL*%
X96500000Y-122500000D03*
X129250000Y-62250000D03*
%TO.N,/GPIO_27*%
X103329500Y-73500000D03*
%TO.N,Net-(J4-GCLK2{slash}GPIO6)*%
X79250000Y-106750000D03*
X80500000Y-92500000D03*
X79000000Y-97762299D03*
%TO.N,Net-(J4-GPIO16)*%
X81875000Y-92375000D03*
X79750000Y-105750000D03*
X80250000Y-98000000D03*
%TO.N,/BLU_MOTOR*%
X137125000Y-113625000D03*
%TO.N,/BLU_STR_MOTOR*%
X130276825Y-112473175D03*
%TO.N,/BRO_STR_MOTOR*%
X124875000Y-99375000D03*
%TO.N,/GPIO_22*%
X81500000Y-90250000D03*
X80633873Y-104883873D03*
X81424255Y-96835249D03*
%TO.N,/GPIO_23*%
X81602927Y-105147074D03*
X81920500Y-97702856D03*
X82250000Y-89000000D03*
%TO.N,/GPIO_24*%
X82934354Y-98199500D03*
X83750000Y-87000000D03*
X83000000Y-110750000D03*
%TO.N,/GPIO_25*%
X84000000Y-98199500D03*
X85000000Y-110750000D03*
X84750000Y-86000000D03*
%TD*%
D39*
%TO.N,GND*%
X63800000Y-108180000D02*
X63430000Y-108550000D01*
X63800000Y-105750000D02*
X63800000Y-108180000D01*
%TO.N,Net-(U1-DIR)*%
X58800000Y-105750000D02*
X60700000Y-105750000D01*
X55810000Y-108550000D02*
X56000000Y-108550000D01*
X56000000Y-108550000D02*
X58800000Y-105750000D01*
D40*
%TO.N,/GPIO_13*%
X54500000Y-104550000D02*
X55700000Y-105750000D01*
X54500000Y-104000000D02*
X54500000Y-104550000D01*
D41*
%TO.N,GND*%
X59750000Y-99750000D02*
X60500000Y-99750000D01*
X56375000Y-103125000D02*
X59750000Y-99750000D01*
D40*
%TO.N,/PWM3_BLU*%
X53270000Y-103230000D02*
X53270000Y-108550000D01*
X58250000Y-98250000D02*
X53270000Y-103230000D01*
X65000000Y-97250000D02*
X64000000Y-98250000D01*
X64000000Y-98250000D02*
X58250000Y-98250000D01*
X65000000Y-94000000D02*
X65000000Y-97250000D01*
X63388033Y-87559000D02*
X63388033Y-92388033D01*
X62213033Y-86384000D02*
X63388033Y-87559000D01*
X63388033Y-92388033D02*
X65000000Y-94000000D01*
D39*
%TO.N,GND*%
X78050000Y-107820000D02*
X78730000Y-108500000D01*
X78050000Y-105750000D02*
X78050000Y-107820000D01*
%TO.N,Net-(U2-DIR)*%
X73050000Y-105750000D02*
X74950000Y-105750000D01*
X71110000Y-107690000D02*
X73050000Y-105750000D01*
X71110000Y-108500000D02*
X71110000Y-107690000D01*
D40*
%TO.N,/GPIO_21*%
X69500000Y-105300000D02*
X69950000Y-105750000D01*
X69500000Y-104000000D02*
X69500000Y-105300000D01*
%TO.N,/GPIO_20*%
X87250000Y-105500000D02*
X85950000Y-105500000D01*
X85950000Y-105500000D02*
X85700000Y-105750000D01*
D39*
%TO.N,GND*%
X93800000Y-105750000D02*
X93800000Y-108370000D01*
X93800000Y-108370000D02*
X93980000Y-108550000D01*
%TO.N,Net-(U5-DIR)*%
X88800000Y-105750000D02*
X90700000Y-105750000D01*
X86360000Y-108190000D02*
X88800000Y-105750000D01*
X86360000Y-108550000D02*
X86360000Y-108190000D01*
%TO.N,GND*%
X109300000Y-108430000D02*
X109230000Y-108500000D01*
X109300000Y-106000000D02*
X109300000Y-108430000D01*
%TO.N,Net-(U4-DIR)*%
X104300000Y-106000000D02*
X106200000Y-106000000D01*
X104110000Y-106000000D02*
X101610000Y-108500000D01*
X104300000Y-106000000D02*
X104110000Y-106000000D01*
D40*
%TO.N,/GPIO_27*%
X99250000Y-106000000D02*
X101200000Y-106000000D01*
D39*
%TO.N,GND*%
X124300000Y-108070000D02*
X124730000Y-108500000D01*
X124300000Y-105750000D02*
X124300000Y-108070000D01*
%TO.N,Net-(U3-DIR)*%
X121150000Y-105750000D02*
X121200000Y-105800000D01*
X119300000Y-105750000D02*
X121150000Y-105750000D01*
X117110000Y-107940000D02*
X119300000Y-105750000D01*
X117110000Y-108500000D02*
X117110000Y-107940000D01*
D40*
%TO.N,/GPIO_26*%
X115750000Y-106200000D02*
X116200000Y-105750000D01*
X115750000Y-107250000D02*
X115750000Y-106200000D01*
D39*
%TO.N,/GRE_STR_1_MOTOR*%
X157500000Y-120000000D02*
X157500000Y-118117500D01*
X141750000Y-120500000D02*
X157000000Y-120500000D01*
X134677001Y-113427001D02*
X141750000Y-120500000D01*
X132980651Y-113427001D02*
X134677001Y-113427001D01*
X126050000Y-106496350D02*
X132980651Y-113427001D01*
X126050000Y-104997056D02*
X126050000Y-106496350D01*
X157500000Y-118117500D02*
X155420000Y-116037500D01*
X124952944Y-103900000D02*
X126050000Y-104997056D01*
X71110000Y-95800000D02*
X71110000Y-98860000D01*
X71110000Y-98860000D02*
X75000000Y-102750000D01*
X75000000Y-102750000D02*
X105165888Y-102750000D01*
X105165888Y-102750000D02*
X106315888Y-103900000D01*
X106315888Y-103900000D02*
X124952944Y-103900000D01*
X157000000Y-120500000D02*
X157500000Y-120000000D01*
%TO.N,/GRE_1_MOTOR*%
X73650000Y-99150000D02*
X73650000Y-95800000D01*
X76000000Y-101500000D02*
X73650000Y-99150000D01*
X105612944Y-101500000D02*
X76000000Y-101500000D01*
X127250000Y-104500000D02*
X125450000Y-102700000D01*
X127250000Y-106000000D02*
X127250000Y-104500000D01*
X106812944Y-102700000D02*
X105612944Y-101500000D01*
X133477500Y-112227500D02*
X127250000Y-106000000D01*
X125450000Y-102700000D02*
X106812944Y-102700000D01*
X152880000Y-112227500D02*
X133477500Y-112227500D01*
D40*
%TO.N,/PWM5_GRE_2*%
X110160000Y-104750000D02*
X113910000Y-108500000D01*
X105999162Y-104750000D02*
X110160000Y-104750000D01*
X74325000Y-103575000D02*
X104824162Y-103575000D01*
X67395000Y-96645000D02*
X74325000Y-103575000D01*
X67395000Y-88837033D02*
X67395000Y-96645000D01*
X104824162Y-103575000D02*
X105999162Y-104750000D01*
X69848033Y-86384000D02*
X67395000Y-88837033D01*
X113910000Y-108500000D02*
X114570000Y-108500000D01*
D41*
%TO.N,+12V*%
X91440000Y-95850000D02*
X91440000Y-94290000D01*
X147485000Y-99790000D02*
X147485000Y-107265000D01*
X147485000Y-99790000D02*
X151210000Y-99790000D01*
X88692081Y-99800000D02*
X91440000Y-97052081D01*
X114050000Y-90600000D02*
X110330000Y-90600000D01*
X156250000Y-85250000D02*
X156250000Y-94500000D01*
X151210000Y-99790000D02*
X153245000Y-97755000D01*
X153245000Y-97755000D02*
X153245000Y-96314000D01*
X144700000Y-77580000D02*
X144700000Y-80950000D01*
X142900000Y-82750000D02*
X144700000Y-80950000D01*
X144700000Y-80950000D02*
X144750000Y-81000000D01*
X144700000Y-75040000D02*
X144700000Y-77580000D01*
X91440000Y-97052081D02*
X91440000Y-95850000D01*
X106690000Y-90600000D02*
X106690000Y-95800000D01*
X152000000Y-81000000D02*
X156250000Y-85250000D01*
X154436000Y-96314000D02*
X153245000Y-96314000D01*
X156250000Y-94500000D02*
X154436000Y-96314000D01*
X116750000Y-87500000D02*
X122190000Y-92940000D01*
X91440000Y-94290000D02*
X95130000Y-90600000D01*
X116750000Y-87900000D02*
X114050000Y-90600000D01*
X116750000Y-87500000D02*
X116750000Y-87900000D01*
X76190000Y-98190000D02*
X77800000Y-99800000D01*
X147485000Y-107265000D02*
X145750000Y-109000000D01*
X121500000Y-82750000D02*
X142900000Y-82750000D01*
X110330000Y-90600000D02*
X106690000Y-90600000D01*
X116750000Y-87500000D02*
X121500000Y-82750000D01*
X122190000Y-92940000D02*
X122190000Y-95800000D01*
X76190000Y-95800000D02*
X76190000Y-98190000D01*
X95130000Y-90600000D02*
X110330000Y-90600000D01*
X144750000Y-81000000D02*
X152000000Y-81000000D01*
X77800000Y-99800000D02*
X88692081Y-99800000D01*
D39*
%TO.N,GND*%
X94500000Y-120250000D02*
X93000000Y-121750000D01*
X59750000Y-80250000D02*
X60875000Y-79125000D01*
X59550000Y-118250000D02*
X60800000Y-119500000D01*
X110250000Y-120500000D02*
X111250000Y-120500000D01*
D41*
X144700000Y-85700000D02*
X144700000Y-88240000D01*
D39*
X59500000Y-117250000D02*
X59500000Y-117125000D01*
D41*
X142000000Y-110250000D02*
X143000000Y-109250000D01*
D39*
X112750000Y-122000000D02*
X114000000Y-122000000D01*
X62500000Y-74500000D02*
X62917500Y-74917500D01*
X140550000Y-70000000D02*
X140550000Y-69450000D01*
D41*
X147220000Y-94710000D02*
X147485000Y-94710000D01*
D39*
X127270000Y-115520000D02*
X127020000Y-115520000D01*
X129500000Y-115520000D02*
X127020000Y-115520000D01*
D41*
X134000000Y-110250000D02*
X142000000Y-110250000D01*
X113500000Y-76500000D02*
X117000000Y-76500000D01*
D39*
X60875000Y-79125000D02*
X61750000Y-79125000D01*
X93000000Y-121750000D02*
X54971673Y-121750000D01*
X50659033Y-90340967D02*
X52500000Y-88500000D01*
X121300000Y-70000000D02*
X122500000Y-70000000D01*
D41*
X126100000Y-85750000D02*
X126100000Y-88290000D01*
D39*
X108500000Y-120500000D02*
X110250000Y-120500000D01*
X114000000Y-122000000D02*
X116000000Y-120000000D01*
X129250000Y-121250000D02*
X129250000Y-122250000D01*
X129250000Y-120250000D02*
X129250000Y-121250000D01*
X59500000Y-118250000D02*
X59550000Y-118250000D01*
X59500000Y-117250000D02*
X59500000Y-118250000D01*
D41*
X143000000Y-109250000D02*
X143000000Y-98930000D01*
D39*
X54971673Y-121750000D02*
X50659033Y-117437360D01*
X129200000Y-121300000D02*
X129250000Y-121250000D01*
D41*
X132505000Y-88240000D02*
X129250000Y-91495000D01*
D39*
X123750000Y-115520000D02*
X127020000Y-115520000D01*
D41*
X144700000Y-88240000D02*
X132505000Y-88240000D01*
D39*
X140550000Y-69450000D02*
X142000000Y-68000000D01*
X127800000Y-70000000D02*
X128750000Y-70000000D01*
X134000000Y-70000000D02*
X135250000Y-70000000D01*
X73000000Y-73500000D02*
X69750000Y-73500000D01*
X50659033Y-117437360D02*
X50659033Y-90340967D01*
X135250000Y-70000000D02*
X135750000Y-69500000D01*
X111250000Y-120500000D02*
X112750000Y-122000000D01*
X122500000Y-70000000D02*
X123000000Y-70500000D01*
X129000000Y-70000000D02*
X129500000Y-69500000D01*
D41*
X143000000Y-98930000D02*
X147220000Y-94710000D01*
D39*
X135250000Y-70000000D02*
X135750000Y-70500000D01*
X142000000Y-68000000D02*
X142750000Y-67250000D01*
X67725000Y-81775000D02*
X67250000Y-82250000D01*
X61500000Y-74500000D02*
X62500000Y-74500000D01*
D41*
X129250000Y-105500000D02*
X131625000Y-107875000D01*
D39*
X59500000Y-117125000D02*
X60800000Y-115825000D01*
X61500000Y-73500000D02*
X61500000Y-74500000D01*
X73000000Y-81775000D02*
X67725000Y-81775000D01*
D41*
X129250000Y-91495000D02*
X129250000Y-105500000D01*
X131625000Y-107875000D02*
X134000000Y-110250000D01*
D39*
X62917500Y-74917500D02*
X62917500Y-75120444D01*
X129000000Y-70000000D02*
X129500000Y-70500000D01*
X123750000Y-121300000D02*
X129200000Y-121300000D01*
X122500000Y-70000000D02*
X123000000Y-69500000D01*
X116000000Y-120000000D02*
X117750000Y-120000000D01*
%TO.N,+3.3V*%
X64925000Y-76425000D02*
X64117500Y-76425000D01*
X135500000Y-72250000D02*
X131500000Y-72250000D01*
X125250000Y-72250000D02*
X119600000Y-72250000D01*
X67425000Y-75425000D02*
X66425000Y-76425000D01*
X118700000Y-71350000D02*
X118700000Y-70000000D01*
X128246350Y-118700000D02*
X123750000Y-118700000D01*
X131302730Y-115643620D02*
X128246350Y-118700000D01*
X119600000Y-72250000D02*
X118700000Y-71350000D01*
X64117500Y-76425000D02*
X64117500Y-75275000D01*
X125200000Y-70000000D02*
X125200000Y-72200000D01*
X60925000Y-76425000D02*
X63500000Y-76425000D01*
X63500000Y-80250000D02*
X59833000Y-83917000D01*
X67425000Y-74019365D02*
X69694365Y-71750000D01*
X135500000Y-72250000D02*
X138000000Y-72250000D01*
X78510000Y-71750000D02*
X80470000Y-69790000D01*
X131302730Y-115374081D02*
X128848649Y-112920000D01*
X73000000Y-77500000D02*
X73000000Y-78775000D01*
X135000000Y-72750000D02*
X135500000Y-72250000D01*
X128848649Y-112920000D02*
X123750000Y-112920000D01*
X66425000Y-76425000D02*
X64925000Y-76425000D01*
X137950000Y-70000000D02*
X137950000Y-72200000D01*
X59833000Y-83917000D02*
X52209033Y-83917000D01*
X69694365Y-71750000D02*
X78510000Y-71750000D01*
X78750000Y-84000000D02*
X102000000Y-84000000D01*
X63500000Y-76425000D02*
X63500000Y-80250000D01*
X73000000Y-76500000D02*
X73000000Y-77500000D01*
X131400000Y-72150000D02*
X131500000Y-72250000D01*
X60150000Y-75650000D02*
X60925000Y-76425000D01*
X131500000Y-72250000D02*
X125250000Y-72250000D01*
X125200000Y-72200000D02*
X125250000Y-72250000D01*
X67425000Y-75425000D02*
X67425000Y-74019365D01*
X60150000Y-69790000D02*
X60150000Y-75650000D01*
X131400000Y-70000000D02*
X131400000Y-72150000D01*
X138000000Y-72250000D02*
X144250000Y-72250000D01*
X144250000Y-72250000D02*
X144750000Y-71750000D01*
X73000000Y-77500000D02*
X69500000Y-77500000D01*
X131302730Y-115643620D02*
X131302730Y-115374081D01*
X137950000Y-72200000D02*
X138000000Y-72250000D01*
X63500000Y-76425000D02*
X64925000Y-76425000D01*
D40*
%TO.N,/I2C1_SDA*%
X59000000Y-68500000D02*
X61400000Y-68500000D01*
X59000000Y-75925000D02*
X53548000Y-81377000D01*
X59000000Y-75925000D02*
X59287500Y-76212500D01*
X59000000Y-70965000D02*
X59000000Y-75925000D01*
X60350000Y-77275000D02*
X59287500Y-76212500D01*
X99475500Y-120500000D02*
X100500000Y-120500000D01*
X58500000Y-66000000D02*
X58500000Y-68000000D01*
X98500000Y-121475500D02*
X99475500Y-120500000D01*
X129500000Y-60500000D02*
X64000000Y-60500000D01*
X59000000Y-68500000D02*
X58975000Y-68525000D01*
X58500000Y-68000000D02*
X59000000Y-68500000D01*
X61400000Y-68500000D02*
X62690000Y-69790000D01*
X53548000Y-81377000D02*
X52209033Y-81377000D01*
X61350000Y-77275000D02*
X60350000Y-77275000D01*
X58975000Y-68525000D02*
X58975000Y-70940000D01*
X58975000Y-70940000D02*
X59000000Y-70965000D01*
X64000000Y-60500000D02*
X58500000Y-66000000D01*
%TO.N,/I2C1_SCL*%
X62278299Y-68500000D02*
X63940000Y-68500000D01*
X63940000Y-68500000D02*
X65230000Y-69790000D01*
X51722332Y-82552000D02*
X51034033Y-81863701D01*
X64500000Y-61250000D02*
X61500000Y-64250000D01*
X55198000Y-82552000D02*
X51722332Y-82552000D01*
X61500000Y-64250000D02*
X61500000Y-67721701D01*
X61350000Y-78275000D02*
X59475000Y-78275000D01*
X96500000Y-120500000D02*
X96500000Y-122500000D01*
X51034033Y-80012000D02*
X52209033Y-78837000D01*
X129250000Y-62250000D02*
X128250000Y-61250000D01*
X128250000Y-61250000D02*
X64500000Y-61250000D01*
X61500000Y-67721701D02*
X62278299Y-68500000D01*
X51034033Y-81863701D02*
X51034033Y-80012000D01*
X59475000Y-78275000D02*
X55198000Y-82552000D01*
D42*
%TO.N,/DSCL-*%
X146500000Y-71750000D02*
X146500000Y-68500000D01*
X155420000Y-76827500D02*
X155420000Y-76170000D01*
X78550000Y-81825000D02*
X79925000Y-81825000D01*
X148250000Y-66750000D02*
X148250000Y-64500000D01*
X76100000Y-81775000D02*
X75275000Y-81775000D01*
X67231800Y-78775000D02*
X65750000Y-78775000D01*
X146500000Y-68500000D02*
X148250000Y-66750000D01*
X150259300Y-76827500D02*
X155420000Y-76827500D01*
X126347486Y-80650000D02*
X131247486Y-75750000D01*
X78550000Y-81825000D02*
X78100000Y-82275000D01*
X131247486Y-75750000D02*
X139000000Y-75750000D01*
X68956800Y-80500000D02*
X67231800Y-78775000D01*
X111840686Y-88975000D02*
X120165686Y-80650000D01*
X120165686Y-80650000D02*
X126347486Y-80650000D01*
X78550000Y-81825000D02*
X76150000Y-81825000D01*
X75275000Y-81775000D02*
X74000000Y-80500000D01*
X74000000Y-80500000D02*
X68956800Y-80500000D01*
X139000000Y-75750000D02*
X141010000Y-73740000D01*
X155420000Y-76170000D02*
X153500000Y-74250000D01*
X81249999Y-80500001D02*
X99931801Y-80500001D01*
X147171800Y-73740000D02*
X150259300Y-76827500D01*
X149000000Y-74250000D02*
X146500000Y-71750000D01*
X153500000Y-74250000D02*
X149000000Y-74250000D01*
X99931801Y-80500001D02*
X108406800Y-88975000D01*
X79925000Y-81825000D02*
X81249999Y-80500001D01*
X76150000Y-81825000D02*
X76100000Y-81775000D01*
X141010000Y-73740000D02*
X147171800Y-73740000D01*
X108406800Y-88975000D02*
X111840686Y-88975000D01*
%TO.N,/DSCL+*%
X120000000Y-80250000D02*
X126181800Y-80250000D01*
X75225000Y-78775000D02*
X73950000Y-80050000D01*
X78550000Y-78725000D02*
X78100000Y-78275000D01*
X146100000Y-68350000D02*
X146100000Y-72031800D01*
X81299999Y-80049999D02*
X100118199Y-80049999D01*
X140844315Y-73340000D02*
X146278200Y-73340000D01*
X78550000Y-78725000D02*
X76150000Y-78725000D01*
X108593200Y-88525000D02*
X111725000Y-88525000D01*
X73950000Y-80050000D02*
X69143200Y-80050000D01*
X146278200Y-73340000D02*
X146843200Y-72775000D01*
X78550000Y-78725000D02*
X79975000Y-78725000D01*
X138834314Y-75350000D02*
X140844315Y-73340000D01*
X76100000Y-78775000D02*
X75225000Y-78775000D01*
X79975000Y-78725000D02*
X81299999Y-80049999D01*
X111725000Y-88525000D02*
X120000000Y-80250000D01*
X76150000Y-78725000D02*
X76100000Y-78775000D01*
X131081801Y-75350000D02*
X138834314Y-75350000D01*
X146843200Y-72775000D02*
X149625700Y-75557500D01*
X67368200Y-78275000D02*
X65750000Y-78275000D01*
X100118199Y-80049999D02*
X108593200Y-88525000D01*
X126181800Y-80250000D02*
X131081801Y-75350000D01*
X69143200Y-80050000D02*
X67368200Y-78275000D01*
X144250000Y-66500000D02*
X146100000Y-68350000D01*
X144250000Y-64500000D02*
X144250000Y-66500000D01*
X146100000Y-72031800D02*
X146843200Y-72775000D01*
X149625700Y-75557500D02*
X152880000Y-75557500D01*
%TO.N,/DSDA+*%
X116720000Y-65845686D02*
X118815686Y-63750000D01*
X153156800Y-61725000D02*
X154969999Y-63538199D01*
X69918200Y-75225000D02*
X67368200Y-77775000D01*
X75000000Y-76500000D02*
X73725000Y-75225000D01*
X156250000Y-70500000D02*
X154750000Y-70500000D01*
X118815686Y-63750000D02*
X130750000Y-63750000D01*
X76150000Y-76550000D02*
X76100000Y-76500000D01*
X105025000Y-75225000D02*
X107525000Y-72725000D01*
X161500000Y-61750000D02*
X160375000Y-61750000D01*
X107525000Y-72725000D02*
X113693326Y-72725000D01*
X73725000Y-75225000D02*
X69918200Y-75225000D01*
X130750000Y-63750000D02*
X132775000Y-61725000D01*
X113693326Y-72725000D02*
X116720000Y-69698326D01*
X78550000Y-76550000D02*
X79450000Y-76550000D01*
X80775000Y-75225000D02*
X105025000Y-75225000D01*
X154750000Y-70500000D02*
X152880000Y-68630000D01*
X116720000Y-69698326D02*
X116720000Y-65845686D01*
X160375000Y-61750000D02*
X158000000Y-64125000D01*
X158000000Y-68750000D02*
X156250000Y-70500000D01*
X152880000Y-68630000D02*
X152880000Y-67937500D01*
X76100000Y-76500000D02*
X75000000Y-76500000D01*
X79450000Y-76550000D02*
X80775000Y-75225000D01*
X154969999Y-65847501D02*
X152880000Y-67937500D01*
X78550000Y-76550000D02*
X76150000Y-76550000D01*
X67368200Y-77775000D02*
X65750000Y-77775000D01*
X78550000Y-76550000D02*
X78100000Y-77000000D01*
X158000000Y-64125000D02*
X158000000Y-68750000D01*
X154969999Y-63538199D02*
X154969999Y-65847501D01*
X132775000Y-61725000D02*
X153156800Y-61725000D01*
%TO.N,/DSDA-*%
X67231800Y-77275000D02*
X65750000Y-77275000D01*
X155409100Y-63340900D02*
X155159100Y-63090900D01*
X79500000Y-73450000D02*
X80825000Y-74775000D01*
X118750000Y-63250000D02*
X130684314Y-63250000D01*
X155159100Y-63090900D02*
X156500000Y-61750000D01*
X80825000Y-74775000D02*
X104909314Y-74775000D01*
X132659314Y-61275000D02*
X153343200Y-61275000D01*
X130684314Y-63250000D02*
X132659314Y-61275000D01*
X116320000Y-69532641D02*
X116320000Y-65680000D01*
X78550000Y-73450000D02*
X79500000Y-73450000D01*
X107409314Y-72275000D02*
X113577641Y-72275000D01*
X155409100Y-63340900D02*
X155420000Y-63351800D01*
X76150000Y-73450000D02*
X76100000Y-73500000D01*
X116320000Y-65680000D02*
X118750000Y-63250000D01*
X113577641Y-72275000D02*
X116320000Y-69532641D01*
X69731800Y-74775000D02*
X67231800Y-77275000D01*
X104909314Y-74775000D02*
X107409314Y-72275000D01*
X155420000Y-63351800D02*
X155420000Y-69207500D01*
X78550000Y-73450000D02*
X78100000Y-73000000D01*
X75000000Y-73500000D02*
X73725000Y-74775000D01*
X76100000Y-73500000D02*
X75000000Y-73500000D01*
X153343200Y-61275000D02*
X155409100Y-63340900D01*
X73725000Y-74775000D02*
X69731800Y-74775000D01*
X78550000Y-73450000D02*
X76150000Y-73450000D01*
D41*
%TO.N,+5V*%
X121500000Y-76500000D02*
X124590000Y-76500000D01*
X126100000Y-74990000D02*
X124830000Y-76260000D01*
X124830000Y-76260000D02*
X126100000Y-77530000D01*
X124590000Y-76500000D02*
X126100000Y-74990000D01*
D40*
%TO.N,/GPIO_27*%
X81750000Y-70250000D02*
X81750000Y-69204149D01*
X81750000Y-69204149D02*
X81045851Y-68500000D01*
X85000000Y-73500000D02*
X81750000Y-70250000D01*
X81045851Y-68500000D02*
X76680000Y-68500000D01*
X76680000Y-68500000D02*
X75390000Y-69790000D01*
X103329500Y-73500000D02*
X85000000Y-73500000D01*
%TO.N,Net-(J4-GCLK2{slash}GPIO6)*%
X80250000Y-92750000D02*
X80500000Y-92500000D01*
X79000000Y-97762299D02*
X79117701Y-97762299D01*
X79250000Y-106750000D02*
X80500000Y-108000000D01*
X79117701Y-97762299D02*
X80250000Y-96630000D01*
X80250000Y-96630000D02*
X80250000Y-92750000D01*
X77750000Y-112750000D02*
X65575000Y-112750000D01*
X65575000Y-112750000D02*
X62500000Y-115825000D01*
X80500000Y-110000000D02*
X77750000Y-112750000D01*
X80500000Y-108000000D02*
X80500000Y-110000000D01*
%TO.N,Net-(J4-GPIO16)*%
X81224500Y-109911896D02*
X77936396Y-113200000D01*
X79750000Y-105750000D02*
X81224500Y-107224500D01*
X81224500Y-107224500D02*
X81224500Y-109911896D01*
X80500000Y-97016396D02*
X80700000Y-96816396D01*
X80250000Y-98000000D02*
X80500000Y-97750000D01*
X77936396Y-113200000D02*
X68800000Y-113200000D01*
X80700000Y-96816396D02*
X80700000Y-93550000D01*
X80700000Y-93550000D02*
X81875000Y-92375000D01*
X80500000Y-97750000D02*
X80500000Y-97016396D01*
X68800000Y-113200000D02*
X62500000Y-119500000D01*
D39*
%TO.N,Net-(U3-DIR)*%
X117110000Y-107890000D02*
X117110000Y-108500000D01*
%TO.N,Net-(JP1-C)*%
X132700000Y-67250000D02*
X132700000Y-70000000D01*
X132200000Y-66750000D02*
X132700000Y-67250000D01*
%TO.N,Net-(JP2-C)*%
X136290000Y-68300000D02*
X138800000Y-68300000D01*
X134740000Y-66750000D02*
X136290000Y-68300000D01*
X138800000Y-68300000D02*
X139250000Y-68750000D01*
X139250000Y-68750000D02*
X139250000Y-70000000D01*
%TO.N,Net-(JP3-C)*%
X121300000Y-120000000D02*
X120250000Y-121050000D01*
X123750000Y-120000000D02*
X121300000Y-120000000D01*
%TO.N,Net-(JP4-C)*%
X121800000Y-116960000D02*
X120250000Y-118510000D01*
X122760050Y-114220000D02*
X121800000Y-115180050D01*
X121800000Y-115180050D02*
X121800000Y-116960000D01*
X123750000Y-114220000D02*
X122760050Y-114220000D01*
%TO.N,/BLU_MOTOR*%
X138267500Y-114767500D02*
X152880000Y-114767500D01*
X137125000Y-113625000D02*
X138267500Y-114767500D01*
%TO.N,/BLU_STR_MOTOR*%
X158700000Y-120497056D02*
X157447056Y-121750000D01*
X130330475Y-112473175D02*
X130276825Y-112473175D01*
X157447056Y-121750000D02*
X139607300Y-121750000D01*
X139607300Y-121750000D02*
X130330475Y-112473175D01*
X158700000Y-116777500D02*
X158700000Y-120497056D01*
X155420000Y-113497500D02*
X158700000Y-116777500D01*
D40*
%TO.N,/PWM4_GRE_1*%
X65938033Y-105868033D02*
X68570000Y-108500000D01*
X65938033Y-87559000D02*
X65938033Y-105868033D01*
X64763033Y-86384000D02*
X65938033Y-87559000D01*
%TO.N,/PWM2_BRO*%
X94595000Y-104025000D02*
X74138604Y-104025000D01*
X62077562Y-84251964D02*
X61805069Y-84251964D01*
X62501964Y-83750000D02*
X62501964Y-83827562D01*
X66750000Y-85000000D02*
X65500000Y-83750000D01*
X65500000Y-83750000D02*
X62501964Y-83750000D01*
X99070000Y-108500000D02*
X94595000Y-104025000D01*
X61805069Y-84251964D02*
X59673033Y-86384000D01*
X62501964Y-83827562D02*
X62077562Y-84251964D01*
X74138604Y-104025000D02*
X66750000Y-96636396D01*
X66750000Y-96636396D02*
X66750000Y-85000000D01*
D39*
%TO.N,/BRO_STR_MOTOR*%
X123500000Y-98000000D02*
X103810000Y-98000000D01*
X124875000Y-99375000D02*
X123500000Y-98000000D01*
X103810000Y-98000000D02*
X101610000Y-95800000D01*
D40*
%TO.N,/PWM1_OR*%
X51750000Y-109750000D02*
X56000000Y-114000000D01*
X91750000Y-113500000D02*
X95830000Y-117580000D01*
X95830000Y-117580000D02*
X96920000Y-117580000D01*
X89000000Y-113500000D02*
X91750000Y-113500000D01*
X51750000Y-91782033D02*
X51750000Y-109750000D01*
X58500000Y-119250000D02*
X60000000Y-120750000D01*
X95920000Y-117580000D02*
X96920000Y-117580000D01*
X57148033Y-86384000D02*
X51750000Y-91782033D01*
X92750000Y-120750000D02*
X95920000Y-117580000D01*
X58500000Y-115250000D02*
X58500000Y-119250000D01*
X83820000Y-108550000D02*
X84050000Y-108550000D01*
X84050000Y-108550000D02*
X89000000Y-113500000D01*
X104500000Y-120500000D02*
X104500000Y-119000000D01*
X60000000Y-120750000D02*
X92750000Y-120750000D01*
X103080000Y-117580000D02*
X96920000Y-117580000D01*
X56000000Y-114000000D02*
X57250000Y-114000000D01*
X57250000Y-114000000D02*
X58500000Y-115250000D01*
X104500000Y-119000000D02*
X103080000Y-117580000D01*
D41*
%TO.N,-BATT*%
X147250000Y-91500000D02*
X141805000Y-91500000D01*
X141805000Y-91500000D02*
X136055000Y-97250000D01*
X153245000Y-88440000D02*
X150310000Y-88440000D01*
X150310000Y-88440000D02*
X147250000Y-91500000D01*
D40*
%TO.N,/GPIO_22*%
X81424255Y-96835249D02*
X81150000Y-96560994D01*
X81150000Y-94125305D02*
X82750000Y-92525305D01*
X82750000Y-91500000D02*
X81500000Y-90250000D01*
X80633873Y-104883873D02*
X80633873Y-105203325D01*
X81674500Y-110825500D02*
X76250000Y-116250000D01*
X82750000Y-92525305D02*
X82750000Y-91500000D01*
X80633873Y-105203325D02*
X81674500Y-106243952D01*
X81150000Y-96560994D02*
X81150000Y-94125305D01*
X81674500Y-106243952D02*
X81674500Y-110825500D01*
%TO.N,/GPIO_23*%
X82150000Y-105694147D02*
X81602927Y-105147074D01*
X82195000Y-97428356D02*
X81920500Y-97702856D01*
X82150000Y-115350000D02*
X82150000Y-105694147D01*
X81250000Y-116250000D02*
X82150000Y-115350000D01*
X83200000Y-89950000D02*
X83200000Y-92711701D01*
X82250000Y-89000000D02*
X83200000Y-89950000D01*
X82195000Y-93716701D02*
X82195000Y-97428356D01*
X83200000Y-92711701D02*
X82195000Y-93716701D01*
%TO.N,/GPIO_24*%
X83000000Y-110750000D02*
X83000000Y-111375500D01*
X82645000Y-97910146D02*
X82934354Y-98199500D01*
X84000000Y-88275305D02*
X84000000Y-93000000D01*
X83750000Y-87000000D02*
X83750000Y-88025305D01*
X82645000Y-94355000D02*
X82645000Y-97910146D01*
X86250000Y-114625500D02*
X86250000Y-116265000D01*
X84000000Y-93000000D02*
X82645000Y-94355000D01*
X83000000Y-111375500D02*
X86250000Y-114625500D01*
X83750000Y-88025305D02*
X84000000Y-88275305D01*
%TO.N,/GPIO_25*%
X85000000Y-111750000D02*
X89515000Y-116265000D01*
X84995000Y-97204500D02*
X84000000Y-98199500D01*
X89515000Y-116265000D02*
X91250000Y-116265000D01*
X84995000Y-86245000D02*
X84995000Y-97204500D01*
X84750000Y-86000000D02*
X84995000Y-86245000D01*
X85000000Y-110750000D02*
X85000000Y-111750000D01*
D39*
%TO.N,Net-(J1-Pin_2)*%
X125789950Y-68300000D02*
X123550000Y-68300000D01*
X123550000Y-68300000D02*
X122000000Y-66750000D01*
X126500000Y-70000000D02*
X126500000Y-69010050D01*
X126500000Y-69010050D02*
X125789950Y-68300000D01*
%TO.N,Net-(J1-Pin_1)*%
X120000000Y-70000000D02*
X120000000Y-67290000D01*
X120000000Y-67290000D02*
X119460000Y-66750000D01*
%TD*%
M02*
