%TF.GenerationSoftware,KiCad,Pcbnew,7.0.1*%
%TF.CreationDate,2023-08-01T18:44:54-04:00*%
%TF.ProjectId,DaughterBoard_UTAP,44617567-6874-4657-9242-6f6172645f55,rev?*%
%TF.SameCoordinates,Original*%
%TF.FileFunction,Drillmap*%
%TF.FilePolarity,Positive*%
%FSLAX45Y45*%
G04 Gerber Fmt 4.5, Leading zero omitted, Abs format (unit mm)*
G04 Created by KiCad (PCBNEW 7.0.1) date 2023-08-01 18:44:54*
%MOMM*%
%LPD*%
G01*
G04 APERTURE LIST*
%ADD10C,0.100000*%
%ADD11C,0.200000*%
%ADD12C,0.345000*%
G04 APERTURE END LIST*
D10*
X5600000Y-5950000D02*
X16550000Y-5950000D01*
X16825000Y-12300000D02*
X5600000Y-12300000D01*
X5600000Y-5950000D02*
G75*
G03*
X5000000Y-6550000I0J-600000D01*
G01*
X5000000Y-11700000D02*
G75*
G03*
X5600000Y-12300000I600000J0D01*
G01*
X16825000Y-6225000D02*
X16825000Y-12300000D01*
X5000000Y-11700000D02*
X5000000Y-6550000D01*
X16550000Y-5950000D02*
X16825000Y-6225000D01*
D11*
D12*
X16004500Y-6494250D02*
X16349500Y-6839250D01*
X16349500Y-6494250D02*
X16004500Y-6839250D01*
X16004500Y-7637250D02*
X16349500Y-7982250D01*
X16349500Y-7637250D02*
X16004500Y-7982250D01*
X16004500Y-10669250D02*
X16349500Y-11014250D01*
X16349500Y-10669250D02*
X16004500Y-11014250D01*
X16004500Y-11812250D02*
X16349500Y-12157250D01*
X16349500Y-11812250D02*
X16004500Y-12157250D01*
D11*
X5242619Y-12617524D02*
X5242619Y-12417524D01*
X5242619Y-12417524D02*
X5290238Y-12417524D01*
X5290238Y-12417524D02*
X5318810Y-12427048D01*
X5318810Y-12427048D02*
X5337857Y-12446095D01*
X5337857Y-12446095D02*
X5347381Y-12465143D01*
X5347381Y-12465143D02*
X5356905Y-12503238D01*
X5356905Y-12503238D02*
X5356905Y-12531809D01*
X5356905Y-12531809D02*
X5347381Y-12569905D01*
X5347381Y-12569905D02*
X5337857Y-12588952D01*
X5337857Y-12588952D02*
X5318810Y-12608000D01*
X5318810Y-12608000D02*
X5290238Y-12617524D01*
X5290238Y-12617524D02*
X5242619Y-12617524D01*
X5442619Y-12617524D02*
X5442619Y-12484190D01*
X5442619Y-12522286D02*
X5452143Y-12503238D01*
X5452143Y-12503238D02*
X5461667Y-12493714D01*
X5461667Y-12493714D02*
X5480714Y-12484190D01*
X5480714Y-12484190D02*
X5499762Y-12484190D01*
X5566429Y-12617524D02*
X5566429Y-12484190D01*
X5566429Y-12417524D02*
X5556905Y-12427048D01*
X5556905Y-12427048D02*
X5566429Y-12436571D01*
X5566429Y-12436571D02*
X5575952Y-12427048D01*
X5575952Y-12427048D02*
X5566429Y-12417524D01*
X5566429Y-12417524D02*
X5566429Y-12436571D01*
X5690238Y-12617524D02*
X5671190Y-12608000D01*
X5671190Y-12608000D02*
X5661667Y-12588952D01*
X5661667Y-12588952D02*
X5661667Y-12417524D01*
X5795000Y-12617524D02*
X5775952Y-12608000D01*
X5775952Y-12608000D02*
X5766428Y-12588952D01*
X5766428Y-12588952D02*
X5766428Y-12417524D01*
X6023571Y-12617524D02*
X6023571Y-12417524D01*
X6023571Y-12417524D02*
X6090238Y-12560381D01*
X6090238Y-12560381D02*
X6156905Y-12417524D01*
X6156905Y-12417524D02*
X6156905Y-12617524D01*
X6337857Y-12617524D02*
X6337857Y-12512762D01*
X6337857Y-12512762D02*
X6328333Y-12493714D01*
X6328333Y-12493714D02*
X6309286Y-12484190D01*
X6309286Y-12484190D02*
X6271190Y-12484190D01*
X6271190Y-12484190D02*
X6252143Y-12493714D01*
X6337857Y-12608000D02*
X6318809Y-12617524D01*
X6318809Y-12617524D02*
X6271190Y-12617524D01*
X6271190Y-12617524D02*
X6252143Y-12608000D01*
X6252143Y-12608000D02*
X6242619Y-12588952D01*
X6242619Y-12588952D02*
X6242619Y-12569905D01*
X6242619Y-12569905D02*
X6252143Y-12550857D01*
X6252143Y-12550857D02*
X6271190Y-12541333D01*
X6271190Y-12541333D02*
X6318809Y-12541333D01*
X6318809Y-12541333D02*
X6337857Y-12531809D01*
X6433095Y-12484190D02*
X6433095Y-12684190D01*
X6433095Y-12493714D02*
X6452143Y-12484190D01*
X6452143Y-12484190D02*
X6490238Y-12484190D01*
X6490238Y-12484190D02*
X6509286Y-12493714D01*
X6509286Y-12493714D02*
X6518809Y-12503238D01*
X6518809Y-12503238D02*
X6528333Y-12522286D01*
X6528333Y-12522286D02*
X6528333Y-12579428D01*
X6528333Y-12579428D02*
X6518809Y-12598476D01*
X6518809Y-12598476D02*
X6509286Y-12608000D01*
X6509286Y-12608000D02*
X6490238Y-12617524D01*
X6490238Y-12617524D02*
X6452143Y-12617524D01*
X6452143Y-12617524D02*
X6433095Y-12608000D01*
X6614048Y-12598476D02*
X6623571Y-12608000D01*
X6623571Y-12608000D02*
X6614048Y-12617524D01*
X6614048Y-12617524D02*
X6604524Y-12608000D01*
X6604524Y-12608000D02*
X6614048Y-12598476D01*
X6614048Y-12598476D02*
X6614048Y-12617524D01*
X6614048Y-12493714D02*
X6623571Y-12503238D01*
X6623571Y-12503238D02*
X6614048Y-12512762D01*
X6614048Y-12512762D02*
X6604524Y-12503238D01*
X6604524Y-12503238D02*
X6614048Y-12493714D01*
X6614048Y-12493714D02*
X6614048Y-12512762D01*
X4795000Y-12845000D02*
X4995000Y-13045000D01*
X4995000Y-12845000D02*
X4795000Y-13045000D01*
X5223571Y-12837524D02*
X5347381Y-12837524D01*
X5347381Y-12837524D02*
X5280714Y-12913714D01*
X5280714Y-12913714D02*
X5309286Y-12913714D01*
X5309286Y-12913714D02*
X5328333Y-12923238D01*
X5328333Y-12923238D02*
X5337857Y-12932762D01*
X5337857Y-12932762D02*
X5347381Y-12951809D01*
X5347381Y-12951809D02*
X5347381Y-12999428D01*
X5347381Y-12999428D02*
X5337857Y-13018476D01*
X5337857Y-13018476D02*
X5328333Y-13028000D01*
X5328333Y-13028000D02*
X5309286Y-13037524D01*
X5309286Y-13037524D02*
X5252143Y-13037524D01*
X5252143Y-13037524D02*
X5233095Y-13028000D01*
X5233095Y-13028000D02*
X5223571Y-13018476D01*
X5433095Y-13018476D02*
X5442619Y-13028000D01*
X5442619Y-13028000D02*
X5433095Y-13037524D01*
X5433095Y-13037524D02*
X5423571Y-13028000D01*
X5423571Y-13028000D02*
X5433095Y-13018476D01*
X5433095Y-13018476D02*
X5433095Y-13037524D01*
X5614048Y-12904190D02*
X5614048Y-13037524D01*
X5566429Y-12828000D02*
X5518810Y-12970857D01*
X5518810Y-12970857D02*
X5642619Y-12970857D01*
X5814048Y-12837524D02*
X5718809Y-12837524D01*
X5718809Y-12837524D02*
X5709286Y-12932762D01*
X5709286Y-12932762D02*
X5718809Y-12923238D01*
X5718809Y-12923238D02*
X5737857Y-12913714D01*
X5737857Y-12913714D02*
X5785476Y-12913714D01*
X5785476Y-12913714D02*
X5804524Y-12923238D01*
X5804524Y-12923238D02*
X5814048Y-12932762D01*
X5814048Y-12932762D02*
X5823571Y-12951809D01*
X5823571Y-12951809D02*
X5823571Y-12999428D01*
X5823571Y-12999428D02*
X5814048Y-13018476D01*
X5814048Y-13018476D02*
X5804524Y-13028000D01*
X5804524Y-13028000D02*
X5785476Y-13037524D01*
X5785476Y-13037524D02*
X5737857Y-13037524D01*
X5737857Y-13037524D02*
X5718809Y-13028000D01*
X5718809Y-13028000D02*
X5709286Y-13018476D01*
X5947381Y-12837524D02*
X5966429Y-12837524D01*
X5966429Y-12837524D02*
X5985476Y-12847048D01*
X5985476Y-12847048D02*
X5995000Y-12856571D01*
X5995000Y-12856571D02*
X6004524Y-12875619D01*
X6004524Y-12875619D02*
X6014048Y-12913714D01*
X6014048Y-12913714D02*
X6014048Y-12961333D01*
X6014048Y-12961333D02*
X6004524Y-12999428D01*
X6004524Y-12999428D02*
X5995000Y-13018476D01*
X5995000Y-13018476D02*
X5985476Y-13028000D01*
X5985476Y-13028000D02*
X5966429Y-13037524D01*
X5966429Y-13037524D02*
X5947381Y-13037524D01*
X5947381Y-13037524D02*
X5928333Y-13028000D01*
X5928333Y-13028000D02*
X5918809Y-13018476D01*
X5918809Y-13018476D02*
X5909286Y-12999428D01*
X5909286Y-12999428D02*
X5899762Y-12961333D01*
X5899762Y-12961333D02*
X5899762Y-12913714D01*
X5899762Y-12913714D02*
X5909286Y-12875619D01*
X5909286Y-12875619D02*
X5918809Y-12856571D01*
X5918809Y-12856571D02*
X5928333Y-12847048D01*
X5928333Y-12847048D02*
X5947381Y-12837524D01*
X6099762Y-13037524D02*
X6099762Y-12904190D01*
X6099762Y-12923238D02*
X6109286Y-12913714D01*
X6109286Y-12913714D02*
X6128333Y-12904190D01*
X6128333Y-12904190D02*
X6156905Y-12904190D01*
X6156905Y-12904190D02*
X6175952Y-12913714D01*
X6175952Y-12913714D02*
X6185476Y-12932762D01*
X6185476Y-12932762D02*
X6185476Y-13037524D01*
X6185476Y-12932762D02*
X6195000Y-12913714D01*
X6195000Y-12913714D02*
X6214048Y-12904190D01*
X6214048Y-12904190D02*
X6242619Y-12904190D01*
X6242619Y-12904190D02*
X6261667Y-12913714D01*
X6261667Y-12913714D02*
X6271190Y-12932762D01*
X6271190Y-12932762D02*
X6271190Y-13037524D01*
X6366429Y-13037524D02*
X6366429Y-12904190D01*
X6366429Y-12923238D02*
X6375952Y-12913714D01*
X6375952Y-12913714D02*
X6395000Y-12904190D01*
X6395000Y-12904190D02*
X6423571Y-12904190D01*
X6423571Y-12904190D02*
X6442619Y-12913714D01*
X6442619Y-12913714D02*
X6452143Y-12932762D01*
X6452143Y-12932762D02*
X6452143Y-13037524D01*
X6452143Y-12932762D02*
X6461667Y-12913714D01*
X6461667Y-12913714D02*
X6480714Y-12904190D01*
X6480714Y-12904190D02*
X6509286Y-12904190D01*
X6509286Y-12904190D02*
X6528333Y-12913714D01*
X6528333Y-12913714D02*
X6537857Y-12932762D01*
X6537857Y-12932762D02*
X6537857Y-13037524D01*
X6928333Y-12828000D02*
X6756905Y-13085143D01*
X7185476Y-12837524D02*
X7204524Y-12837524D01*
X7204524Y-12837524D02*
X7223572Y-12847048D01*
X7223572Y-12847048D02*
X7233095Y-12856571D01*
X7233095Y-12856571D02*
X7242619Y-12875619D01*
X7242619Y-12875619D02*
X7252143Y-12913714D01*
X7252143Y-12913714D02*
X7252143Y-12961333D01*
X7252143Y-12961333D02*
X7242619Y-12999428D01*
X7242619Y-12999428D02*
X7233095Y-13018476D01*
X7233095Y-13018476D02*
X7223572Y-13028000D01*
X7223572Y-13028000D02*
X7204524Y-13037524D01*
X7204524Y-13037524D02*
X7185476Y-13037524D01*
X7185476Y-13037524D02*
X7166429Y-13028000D01*
X7166429Y-13028000D02*
X7156905Y-13018476D01*
X7156905Y-13018476D02*
X7147381Y-12999428D01*
X7147381Y-12999428D02*
X7137857Y-12961333D01*
X7137857Y-12961333D02*
X7137857Y-12913714D01*
X7137857Y-12913714D02*
X7147381Y-12875619D01*
X7147381Y-12875619D02*
X7156905Y-12856571D01*
X7156905Y-12856571D02*
X7166429Y-12847048D01*
X7166429Y-12847048D02*
X7185476Y-12837524D01*
X7337857Y-13018476D02*
X7347381Y-13028000D01*
X7347381Y-13028000D02*
X7337857Y-13037524D01*
X7337857Y-13037524D02*
X7328333Y-13028000D01*
X7328333Y-13028000D02*
X7337857Y-13018476D01*
X7337857Y-13018476D02*
X7337857Y-13037524D01*
X7537857Y-13037524D02*
X7423572Y-13037524D01*
X7480714Y-13037524D02*
X7480714Y-12837524D01*
X7480714Y-12837524D02*
X7461667Y-12866095D01*
X7461667Y-12866095D02*
X7442619Y-12885143D01*
X7442619Y-12885143D02*
X7423572Y-12894667D01*
X7604524Y-12837524D02*
X7728333Y-12837524D01*
X7728333Y-12837524D02*
X7661667Y-12913714D01*
X7661667Y-12913714D02*
X7690238Y-12913714D01*
X7690238Y-12913714D02*
X7709286Y-12923238D01*
X7709286Y-12923238D02*
X7718810Y-12932762D01*
X7718810Y-12932762D02*
X7728333Y-12951809D01*
X7728333Y-12951809D02*
X7728333Y-12999428D01*
X7728333Y-12999428D02*
X7718810Y-13018476D01*
X7718810Y-13018476D02*
X7709286Y-13028000D01*
X7709286Y-13028000D02*
X7690238Y-13037524D01*
X7690238Y-13037524D02*
X7633095Y-13037524D01*
X7633095Y-13037524D02*
X7614048Y-13028000D01*
X7614048Y-13028000D02*
X7604524Y-13018476D01*
X7909286Y-12837524D02*
X7814048Y-12837524D01*
X7814048Y-12837524D02*
X7804524Y-12932762D01*
X7804524Y-12932762D02*
X7814048Y-12923238D01*
X7814048Y-12923238D02*
X7833095Y-12913714D01*
X7833095Y-12913714D02*
X7880714Y-12913714D01*
X7880714Y-12913714D02*
X7899762Y-12923238D01*
X7899762Y-12923238D02*
X7909286Y-12932762D01*
X7909286Y-12932762D02*
X7918810Y-12951809D01*
X7918810Y-12951809D02*
X7918810Y-12999428D01*
X7918810Y-12999428D02*
X7909286Y-13018476D01*
X7909286Y-13018476D02*
X7899762Y-13028000D01*
X7899762Y-13028000D02*
X7880714Y-13037524D01*
X7880714Y-13037524D02*
X7833095Y-13037524D01*
X7833095Y-13037524D02*
X7814048Y-13028000D01*
X7814048Y-13028000D02*
X7804524Y-13018476D01*
X8033095Y-12923238D02*
X8014048Y-12913714D01*
X8014048Y-12913714D02*
X8004524Y-12904190D01*
X8004524Y-12904190D02*
X7995000Y-12885143D01*
X7995000Y-12885143D02*
X7995000Y-12875619D01*
X7995000Y-12875619D02*
X8004524Y-12856571D01*
X8004524Y-12856571D02*
X8014048Y-12847048D01*
X8014048Y-12847048D02*
X8033095Y-12837524D01*
X8033095Y-12837524D02*
X8071191Y-12837524D01*
X8071191Y-12837524D02*
X8090238Y-12847048D01*
X8090238Y-12847048D02*
X8099762Y-12856571D01*
X8099762Y-12856571D02*
X8109286Y-12875619D01*
X8109286Y-12875619D02*
X8109286Y-12885143D01*
X8109286Y-12885143D02*
X8099762Y-12904190D01*
X8099762Y-12904190D02*
X8090238Y-12913714D01*
X8090238Y-12913714D02*
X8071191Y-12923238D01*
X8071191Y-12923238D02*
X8033095Y-12923238D01*
X8033095Y-12923238D02*
X8014048Y-12932762D01*
X8014048Y-12932762D02*
X8004524Y-12942286D01*
X8004524Y-12942286D02*
X7995000Y-12961333D01*
X7995000Y-12961333D02*
X7995000Y-12999428D01*
X7995000Y-12999428D02*
X8004524Y-13018476D01*
X8004524Y-13018476D02*
X8014048Y-13028000D01*
X8014048Y-13028000D02*
X8033095Y-13037524D01*
X8033095Y-13037524D02*
X8071191Y-13037524D01*
X8071191Y-13037524D02*
X8090238Y-13028000D01*
X8090238Y-13028000D02*
X8099762Y-13018476D01*
X8099762Y-13018476D02*
X8109286Y-12999428D01*
X8109286Y-12999428D02*
X8109286Y-12961333D01*
X8109286Y-12961333D02*
X8099762Y-12942286D01*
X8099762Y-12942286D02*
X8090238Y-12932762D01*
X8090238Y-12932762D02*
X8071191Y-12923238D01*
X8185476Y-12837524D02*
X8185476Y-12875619D01*
X8261667Y-12837524D02*
X8261667Y-12875619D01*
X8556905Y-13113714D02*
X8547381Y-13104190D01*
X8547381Y-13104190D02*
X8528334Y-13075619D01*
X8528334Y-13075619D02*
X8518810Y-13056571D01*
X8518810Y-13056571D02*
X8509286Y-13028000D01*
X8509286Y-13028000D02*
X8499762Y-12980381D01*
X8499762Y-12980381D02*
X8499762Y-12942286D01*
X8499762Y-12942286D02*
X8509286Y-12894667D01*
X8509286Y-12894667D02*
X8518810Y-12866095D01*
X8518810Y-12866095D02*
X8528334Y-12847048D01*
X8528334Y-12847048D02*
X8547381Y-12818476D01*
X8547381Y-12818476D02*
X8556905Y-12808952D01*
X8718810Y-12904190D02*
X8718810Y-13037524D01*
X8671191Y-12828000D02*
X8623572Y-12970857D01*
X8623572Y-12970857D02*
X8747381Y-12970857D01*
X8975953Y-13037524D02*
X8975953Y-12837524D01*
X9061667Y-13037524D02*
X9061667Y-12932762D01*
X9061667Y-12932762D02*
X9052143Y-12913714D01*
X9052143Y-12913714D02*
X9033096Y-12904190D01*
X9033096Y-12904190D02*
X9004524Y-12904190D01*
X9004524Y-12904190D02*
X8985477Y-12913714D01*
X8985477Y-12913714D02*
X8975953Y-12923238D01*
X9185477Y-13037524D02*
X9166429Y-13028000D01*
X9166429Y-13028000D02*
X9156905Y-13018476D01*
X9156905Y-13018476D02*
X9147381Y-12999428D01*
X9147381Y-12999428D02*
X9147381Y-12942286D01*
X9147381Y-12942286D02*
X9156905Y-12923238D01*
X9156905Y-12923238D02*
X9166429Y-12913714D01*
X9166429Y-12913714D02*
X9185477Y-12904190D01*
X9185477Y-12904190D02*
X9214048Y-12904190D01*
X9214048Y-12904190D02*
X9233096Y-12913714D01*
X9233096Y-12913714D02*
X9242619Y-12923238D01*
X9242619Y-12923238D02*
X9252143Y-12942286D01*
X9252143Y-12942286D02*
X9252143Y-12999428D01*
X9252143Y-12999428D02*
X9242619Y-13018476D01*
X9242619Y-13018476D02*
X9233096Y-13028000D01*
X9233096Y-13028000D02*
X9214048Y-13037524D01*
X9214048Y-13037524D02*
X9185477Y-13037524D01*
X9366429Y-13037524D02*
X9347381Y-13028000D01*
X9347381Y-13028000D02*
X9337858Y-13008952D01*
X9337858Y-13008952D02*
X9337858Y-12837524D01*
X9518810Y-13028000D02*
X9499762Y-13037524D01*
X9499762Y-13037524D02*
X9461667Y-13037524D01*
X9461667Y-13037524D02*
X9442619Y-13028000D01*
X9442619Y-13028000D02*
X9433096Y-13008952D01*
X9433096Y-13008952D02*
X9433096Y-12932762D01*
X9433096Y-12932762D02*
X9442619Y-12913714D01*
X9442619Y-12913714D02*
X9461667Y-12904190D01*
X9461667Y-12904190D02*
X9499762Y-12904190D01*
X9499762Y-12904190D02*
X9518810Y-12913714D01*
X9518810Y-12913714D02*
X9528334Y-12932762D01*
X9528334Y-12932762D02*
X9528334Y-12951809D01*
X9528334Y-12951809D02*
X9433096Y-12970857D01*
X9604524Y-13028000D02*
X9623572Y-13037524D01*
X9623572Y-13037524D02*
X9661667Y-13037524D01*
X9661667Y-13037524D02*
X9680715Y-13028000D01*
X9680715Y-13028000D02*
X9690239Y-13008952D01*
X9690239Y-13008952D02*
X9690239Y-12999428D01*
X9690239Y-12999428D02*
X9680715Y-12980381D01*
X9680715Y-12980381D02*
X9661667Y-12970857D01*
X9661667Y-12970857D02*
X9633096Y-12970857D01*
X9633096Y-12970857D02*
X9614048Y-12961333D01*
X9614048Y-12961333D02*
X9604524Y-12942286D01*
X9604524Y-12942286D02*
X9604524Y-12932762D01*
X9604524Y-12932762D02*
X9614048Y-12913714D01*
X9614048Y-12913714D02*
X9633096Y-12904190D01*
X9633096Y-12904190D02*
X9661667Y-12904190D01*
X9661667Y-12904190D02*
X9680715Y-12913714D01*
X9756905Y-13113714D02*
X9766429Y-13104190D01*
X9766429Y-13104190D02*
X9785477Y-13075619D01*
X9785477Y-13075619D02*
X9795000Y-13056571D01*
X9795000Y-13056571D02*
X9804524Y-13028000D01*
X9804524Y-13028000D02*
X9814048Y-12980381D01*
X9814048Y-12980381D02*
X9814048Y-12942286D01*
X9814048Y-12942286D02*
X9804524Y-12894667D01*
X9804524Y-12894667D02*
X9795000Y-12866095D01*
X9795000Y-12866095D02*
X9785477Y-12847048D01*
X9785477Y-12847048D02*
X9766429Y-12818476D01*
X9766429Y-12818476D02*
X9756905Y-12808952D01*
X10118810Y-13113714D02*
X10109286Y-13104190D01*
X10109286Y-13104190D02*
X10090239Y-13075619D01*
X10090239Y-13075619D02*
X10080715Y-13056571D01*
X10080715Y-13056571D02*
X10071191Y-13028000D01*
X10071191Y-13028000D02*
X10061667Y-12980381D01*
X10061667Y-12980381D02*
X10061667Y-12942286D01*
X10061667Y-12942286D02*
X10071191Y-12894667D01*
X10071191Y-12894667D02*
X10080715Y-12866095D01*
X10080715Y-12866095D02*
X10090239Y-12847048D01*
X10090239Y-12847048D02*
X10109286Y-12818476D01*
X10109286Y-12818476D02*
X10118810Y-12808952D01*
X10195000Y-12904190D02*
X10195000Y-13037524D01*
X10195000Y-12923238D02*
X10204524Y-12913714D01*
X10204524Y-12913714D02*
X10223572Y-12904190D01*
X10223572Y-12904190D02*
X10252143Y-12904190D01*
X10252143Y-12904190D02*
X10271191Y-12913714D01*
X10271191Y-12913714D02*
X10280715Y-12932762D01*
X10280715Y-12932762D02*
X10280715Y-13037524D01*
X10404524Y-13037524D02*
X10385477Y-13028000D01*
X10385477Y-13028000D02*
X10375953Y-13018476D01*
X10375953Y-13018476D02*
X10366429Y-12999428D01*
X10366429Y-12999428D02*
X10366429Y-12942286D01*
X10366429Y-12942286D02*
X10375953Y-12923238D01*
X10375953Y-12923238D02*
X10385477Y-12913714D01*
X10385477Y-12913714D02*
X10404524Y-12904190D01*
X10404524Y-12904190D02*
X10433096Y-12904190D01*
X10433096Y-12904190D02*
X10452143Y-12913714D01*
X10452143Y-12913714D02*
X10461667Y-12923238D01*
X10461667Y-12923238D02*
X10471191Y-12942286D01*
X10471191Y-12942286D02*
X10471191Y-12999428D01*
X10471191Y-12999428D02*
X10461667Y-13018476D01*
X10461667Y-13018476D02*
X10452143Y-13028000D01*
X10452143Y-13028000D02*
X10433096Y-13037524D01*
X10433096Y-13037524D02*
X10404524Y-13037524D01*
X10528334Y-12904190D02*
X10604524Y-12904190D01*
X10556905Y-12837524D02*
X10556905Y-13008952D01*
X10556905Y-13008952D02*
X10566429Y-13028000D01*
X10566429Y-13028000D02*
X10585477Y-13037524D01*
X10585477Y-13037524D02*
X10604524Y-13037524D01*
X10823572Y-12904190D02*
X10823572Y-13104190D01*
X10823572Y-12913714D02*
X10842620Y-12904190D01*
X10842620Y-12904190D02*
X10880715Y-12904190D01*
X10880715Y-12904190D02*
X10899762Y-12913714D01*
X10899762Y-12913714D02*
X10909286Y-12923238D01*
X10909286Y-12923238D02*
X10918810Y-12942286D01*
X10918810Y-12942286D02*
X10918810Y-12999428D01*
X10918810Y-12999428D02*
X10909286Y-13018476D01*
X10909286Y-13018476D02*
X10899762Y-13028000D01*
X10899762Y-13028000D02*
X10880715Y-13037524D01*
X10880715Y-13037524D02*
X10842620Y-13037524D01*
X10842620Y-13037524D02*
X10823572Y-13028000D01*
X11033096Y-13037524D02*
X11014048Y-13028000D01*
X11014048Y-13028000D02*
X11004524Y-13008952D01*
X11004524Y-13008952D02*
X11004524Y-12837524D01*
X11195000Y-13037524D02*
X11195000Y-12932762D01*
X11195000Y-12932762D02*
X11185477Y-12913714D01*
X11185477Y-12913714D02*
X11166429Y-12904190D01*
X11166429Y-12904190D02*
X11128334Y-12904190D01*
X11128334Y-12904190D02*
X11109286Y-12913714D01*
X11195000Y-13028000D02*
X11175953Y-13037524D01*
X11175953Y-13037524D02*
X11128334Y-13037524D01*
X11128334Y-13037524D02*
X11109286Y-13028000D01*
X11109286Y-13028000D02*
X11099762Y-13008952D01*
X11099762Y-13008952D02*
X11099762Y-12989905D01*
X11099762Y-12989905D02*
X11109286Y-12970857D01*
X11109286Y-12970857D02*
X11128334Y-12961333D01*
X11128334Y-12961333D02*
X11175953Y-12961333D01*
X11175953Y-12961333D02*
X11195000Y-12951809D01*
X11261667Y-12904190D02*
X11337858Y-12904190D01*
X11290239Y-12837524D02*
X11290239Y-13008952D01*
X11290239Y-13008952D02*
X11299762Y-13028000D01*
X11299762Y-13028000D02*
X11318810Y-13037524D01*
X11318810Y-13037524D02*
X11337858Y-13037524D01*
X11480715Y-13028000D02*
X11461667Y-13037524D01*
X11461667Y-13037524D02*
X11423572Y-13037524D01*
X11423572Y-13037524D02*
X11404524Y-13028000D01*
X11404524Y-13028000D02*
X11395000Y-13008952D01*
X11395000Y-13008952D02*
X11395000Y-12932762D01*
X11395000Y-12932762D02*
X11404524Y-12913714D01*
X11404524Y-12913714D02*
X11423572Y-12904190D01*
X11423572Y-12904190D02*
X11461667Y-12904190D01*
X11461667Y-12904190D02*
X11480715Y-12913714D01*
X11480715Y-12913714D02*
X11490239Y-12932762D01*
X11490239Y-12932762D02*
X11490239Y-12951809D01*
X11490239Y-12951809D02*
X11395000Y-12970857D01*
X11661667Y-13037524D02*
X11661667Y-12837524D01*
X11661667Y-13028000D02*
X11642620Y-13037524D01*
X11642620Y-13037524D02*
X11604524Y-13037524D01*
X11604524Y-13037524D02*
X11585477Y-13028000D01*
X11585477Y-13028000D02*
X11575953Y-13018476D01*
X11575953Y-13018476D02*
X11566429Y-12999428D01*
X11566429Y-12999428D02*
X11566429Y-12942286D01*
X11566429Y-12942286D02*
X11575953Y-12923238D01*
X11575953Y-12923238D02*
X11585477Y-12913714D01*
X11585477Y-12913714D02*
X11604524Y-12904190D01*
X11604524Y-12904190D02*
X11642620Y-12904190D01*
X11642620Y-12904190D02*
X11661667Y-12913714D01*
X11737858Y-13113714D02*
X11747381Y-13104190D01*
X11747381Y-13104190D02*
X11766429Y-13075619D01*
X11766429Y-13075619D02*
X11775953Y-13056571D01*
X11775953Y-13056571D02*
X11785477Y-13028000D01*
X11785477Y-13028000D02*
X11795000Y-12980381D01*
X11795000Y-12980381D02*
X11795000Y-12942286D01*
X11795000Y-12942286D02*
X11785477Y-12894667D01*
X11785477Y-12894667D02*
X11775953Y-12866095D01*
X11775953Y-12866095D02*
X11766429Y-12847048D01*
X11766429Y-12847048D02*
X11747381Y-12818476D01*
X11747381Y-12818476D02*
X11737858Y-12808952D01*
M02*
