%TF.GenerationSoftware,KiCad,Pcbnew,7.0.1*%
%TF.CreationDate,2023-08-01T18:44:54-04:00*%
%TF.ProjectId,DaughterBoard_UTAP,44617567-6874-4657-9242-6f6172645f55,rev?*%
%TF.SameCoordinates,Original*%
%TF.FileFunction,Drillmap*%
%TF.FilePolarity,Positive*%
%FSLAX45Y45*%
G04 Gerber Fmt 4.5, Leading zero omitted, Abs format (unit mm)*
G04 Created by KiCad (PCBNEW 7.0.1) date 2023-08-01 18:44:54*
%MOMM*%
%LPD*%
G01*
G04 APERTURE LIST*
%ADD10C,0.100000*%
%ADD11C,0.200000*%
%ADD12C,0.040000*%
%ADD13C,0.080000*%
%ADD14C,0.090000*%
%ADD15C,0.127000*%
%ADD16C,0.270000*%
G04 APERTURE END LIST*
D10*
X5600000Y-5950000D02*
X16550000Y-5950000D01*
X16825000Y-12300000D02*
X5600000Y-12300000D01*
X5600000Y-5950000D02*
G75*
G03*
X5000000Y-6550000I0J-600000D01*
G01*
X5000000Y-11700000D02*
G75*
G03*
X5600000Y-12300000I600000J0D01*
G01*
X16825000Y-6225000D02*
X16825000Y-12300000D01*
X5000000Y-11700000D02*
X5000000Y-6550000D01*
X16550000Y-5950000D02*
X16825000Y-6225000D01*
D11*
D12*
X5230000Y-8830000D02*
X5270000Y-8870000D01*
X5270000Y-8830000D02*
X5230000Y-8870000D01*
X5580000Y-7330000D02*
X5620000Y-7370000D01*
X5620000Y-7330000D02*
X5580000Y-7370000D01*
X5580000Y-10330000D02*
X5620000Y-10370000D01*
X5620000Y-10330000D02*
X5580000Y-10370000D01*
X5605000Y-10230000D02*
X5645000Y-10270000D01*
X5645000Y-10230000D02*
X5605000Y-10270000D01*
X5630000Y-7405000D02*
X5670000Y-7445000D01*
X5670000Y-7405000D02*
X5630000Y-7445000D01*
X5680000Y-7330000D02*
X5720000Y-7370000D01*
X5720000Y-7330000D02*
X5680000Y-7370000D01*
X5680000Y-10305000D02*
X5720000Y-10345000D01*
X5720000Y-10305000D02*
X5680000Y-10345000D01*
X5805000Y-8155000D02*
X5845000Y-8195000D01*
X5845000Y-8155000D02*
X5805000Y-8195000D01*
X5830000Y-11205000D02*
X5870000Y-11245000D01*
X5870000Y-11205000D02*
X5830000Y-11245000D01*
X5880000Y-8080000D02*
X5920000Y-8120000D01*
X5920000Y-8080000D02*
X5880000Y-8120000D01*
X5880000Y-11280000D02*
X5920000Y-11320000D01*
X5920000Y-11280000D02*
X5880000Y-11320000D01*
X5930000Y-11205000D02*
X5970000Y-11245000D01*
X5970000Y-11205000D02*
X5930000Y-11245000D01*
X5930000Y-11705000D02*
X5970000Y-11745000D01*
X5970000Y-11705000D02*
X5930000Y-11745000D01*
X5930000Y-11805000D02*
X5970000Y-11845000D01*
X5970000Y-11805000D02*
X5930000Y-11845000D01*
X5955000Y-8005000D02*
X5995000Y-8045000D01*
X5995000Y-8005000D02*
X5955000Y-8045000D01*
X5955000Y-9905000D02*
X5995000Y-9945000D01*
X5995000Y-9905000D02*
X5955000Y-9945000D01*
X5955000Y-10005000D02*
X5995000Y-10045000D01*
X5995000Y-10005000D02*
X5955000Y-10045000D01*
X5980000Y-11280000D02*
X6020000Y-11320000D01*
X6020000Y-11280000D02*
X5980000Y-11320000D01*
X6030000Y-9955000D02*
X6070000Y-9995000D01*
X6070000Y-9955000D02*
X6030000Y-9995000D01*
X6030000Y-11205000D02*
X6070000Y-11245000D01*
X6070000Y-11205000D02*
X6030000Y-11245000D01*
X6080000Y-11280000D02*
X6120000Y-11320000D01*
X6120000Y-11280000D02*
X6080000Y-11320000D01*
X6130000Y-7330000D02*
X6170000Y-7370000D01*
X6170000Y-7330000D02*
X6130000Y-7370000D01*
X6130000Y-7430000D02*
X6170000Y-7470000D01*
X6170000Y-7430000D02*
X6130000Y-7470000D01*
X6157746Y-8332746D02*
X6197746Y-8372746D01*
X6197746Y-8332746D02*
X6157746Y-8372746D01*
X6230000Y-7280000D02*
X6270000Y-7320000D01*
X6270000Y-7280000D02*
X6230000Y-7320000D01*
X6232746Y-8257746D02*
X6272746Y-8297746D01*
X6272746Y-8257746D02*
X6232746Y-8297746D01*
X6255000Y-8280000D02*
X6295000Y-8320000D01*
X6295000Y-8280000D02*
X6255000Y-8320000D01*
X6705000Y-8205000D02*
X6745000Y-8245000D01*
X6745000Y-8205000D02*
X6705000Y-8245000D01*
X6705000Y-8305000D02*
X6745000Y-8345000D01*
X6745000Y-8305000D02*
X6705000Y-8345000D01*
X6722500Y-7522500D02*
X6762500Y-7562500D01*
X6762500Y-7522500D02*
X6722500Y-7562500D01*
X6780000Y-8155000D02*
X6820000Y-8195000D01*
X6820000Y-8155000D02*
X6780000Y-8195000D01*
X6780000Y-8255000D02*
X6820000Y-8295000D01*
X6820000Y-8255000D02*
X6780000Y-8295000D01*
X6855000Y-7405000D02*
X6895000Y-7445000D01*
X6895000Y-7405000D02*
X6855000Y-7445000D01*
X6930000Y-7730000D02*
X6970000Y-7770000D01*
X6970000Y-7730000D02*
X6930000Y-7770000D01*
X6955000Y-7330000D02*
X6995000Y-7370000D01*
X6995000Y-7330000D02*
X6955000Y-7370000D01*
X6955000Y-10280000D02*
X6995000Y-10320000D01*
X6995000Y-10280000D02*
X6955000Y-10320000D01*
X7005000Y-10205000D02*
X7045000Y-10245000D01*
X7045000Y-10205000D02*
X7005000Y-10245000D01*
X7005000Y-10355000D02*
X7045000Y-10395000D01*
X7045000Y-10355000D02*
X7005000Y-10395000D01*
X7055000Y-10280000D02*
X7095000Y-10320000D01*
X7095000Y-10280000D02*
X7055000Y-10320000D01*
X7080000Y-7330000D02*
X7120000Y-7370000D01*
X7120000Y-7330000D02*
X7080000Y-7370000D01*
X7130000Y-11030000D02*
X7170000Y-11070000D01*
X7170000Y-11030000D02*
X7130000Y-11070000D01*
X7855000Y-8380000D02*
X7895000Y-8420000D01*
X7895000Y-8380000D02*
X7855000Y-8420000D01*
X7880000Y-9756230D02*
X7920000Y-9796230D01*
X7920000Y-9756230D02*
X7880000Y-9796230D01*
X7905000Y-10655000D02*
X7945000Y-10695000D01*
X7945000Y-10655000D02*
X7905000Y-10695000D01*
X7955000Y-10555000D02*
X7995000Y-10595000D01*
X7995000Y-10555000D02*
X7955000Y-10595000D01*
X8005000Y-9780000D02*
X8045000Y-9820000D01*
X8045000Y-9780000D02*
X8005000Y-9820000D01*
X8030000Y-9230000D02*
X8070000Y-9270000D01*
X8070000Y-9230000D02*
X8030000Y-9270000D01*
X8043387Y-10468387D02*
X8083387Y-10508387D01*
X8083387Y-10468387D02*
X8043387Y-10508387D01*
X8122425Y-9663525D02*
X8162425Y-9703525D01*
X8162425Y-9663525D02*
X8122425Y-9703525D01*
X8130000Y-9005000D02*
X8170000Y-9045000D01*
X8170000Y-9005000D02*
X8130000Y-9045000D01*
X8140293Y-10494707D02*
X8180293Y-10534707D01*
X8180293Y-10494707D02*
X8140293Y-10534707D01*
X8167500Y-9217500D02*
X8207500Y-9257500D01*
X8207500Y-9217500D02*
X8167500Y-9257500D01*
X8172050Y-9750286D02*
X8212050Y-9790286D01*
X8212050Y-9750286D02*
X8172050Y-9790286D01*
X8205000Y-8880000D02*
X8245000Y-8920000D01*
X8245000Y-8880000D02*
X8205000Y-8920000D01*
X8273435Y-9799950D02*
X8313435Y-9839950D01*
X8313435Y-9799950D02*
X8273435Y-9839950D01*
X8280000Y-11055000D02*
X8320000Y-11095000D01*
X8320000Y-11055000D02*
X8280000Y-11095000D01*
X8355000Y-8680000D02*
X8395000Y-8720000D01*
X8395000Y-8680000D02*
X8355000Y-8720000D01*
X8380000Y-9799950D02*
X8420000Y-9839950D01*
X8420000Y-9799950D02*
X8380000Y-9839950D01*
X8455000Y-8580000D02*
X8495000Y-8620000D01*
X8495000Y-8580000D02*
X8455000Y-8620000D01*
X8480000Y-11055000D02*
X8520000Y-11095000D01*
X8520000Y-11055000D02*
X8480000Y-11095000D01*
X9030000Y-7780000D02*
X9070000Y-7820000D01*
X9070000Y-7780000D02*
X9030000Y-7820000D01*
X9080000Y-7705000D02*
X9120000Y-7745000D01*
X9120000Y-7705000D02*
X9080000Y-7745000D01*
X9130000Y-7630000D02*
X9170000Y-7670000D01*
X9170000Y-7630000D02*
X9130000Y-7670000D01*
X9130000Y-7780000D02*
X9170000Y-7820000D01*
X9170000Y-7780000D02*
X9130000Y-7820000D01*
X9180000Y-7705000D02*
X9220000Y-7745000D01*
X9220000Y-7705000D02*
X9180000Y-7745000D01*
X9230000Y-7630000D02*
X9270000Y-7670000D01*
X9270000Y-7630000D02*
X9230000Y-7670000D01*
X9230000Y-7780000D02*
X9270000Y-7820000D01*
X9270000Y-7780000D02*
X9230000Y-7820000D01*
X9280000Y-7705000D02*
X9320000Y-7745000D01*
X9320000Y-7705000D02*
X9280000Y-7745000D01*
X9330000Y-7630000D02*
X9370000Y-7670000D01*
X9370000Y-7630000D02*
X9330000Y-7670000D01*
X9430000Y-12005000D02*
X9470000Y-12045000D01*
X9470000Y-12005000D02*
X9430000Y-12045000D01*
X9630000Y-12230000D02*
X9670000Y-12270000D01*
X9670000Y-12230000D02*
X9630000Y-12270000D01*
X9730000Y-9255000D02*
X9770000Y-9295000D01*
X9770000Y-9255000D02*
X9730000Y-9295000D01*
X9780000Y-9330000D02*
X9820000Y-9370000D01*
X9820000Y-9330000D02*
X9780000Y-9370000D01*
X9805000Y-8730000D02*
X9845000Y-8770000D01*
X9845000Y-8730000D02*
X9805000Y-8770000D01*
X9830000Y-9255000D02*
X9870000Y-9295000D01*
X9870000Y-9255000D02*
X9830000Y-9295000D01*
X9830000Y-12127550D02*
X9870000Y-12167550D01*
X9870000Y-12127550D02*
X9830000Y-12167550D01*
X9855000Y-8655000D02*
X9895000Y-8695000D01*
X9895000Y-8655000D02*
X9855000Y-8695000D01*
X9880000Y-9330000D02*
X9920000Y-9370000D01*
X9920000Y-9330000D02*
X9880000Y-9370000D01*
X9905000Y-8580000D02*
X9945000Y-8620000D01*
X9945000Y-8580000D02*
X9905000Y-8620000D01*
X9905000Y-8730000D02*
X9945000Y-8770000D01*
X9945000Y-8730000D02*
X9905000Y-8770000D01*
X9930000Y-9255000D02*
X9970000Y-9295000D01*
X9970000Y-9255000D02*
X9930000Y-9295000D01*
X9955000Y-8655000D02*
X9995000Y-8695000D01*
X9995000Y-8655000D02*
X9955000Y-8695000D01*
X10005000Y-8580000D02*
X10045000Y-8620000D01*
X10045000Y-8580000D02*
X10005000Y-8620000D01*
X10005000Y-8730000D02*
X10045000Y-8770000D01*
X10045000Y-8730000D02*
X10005000Y-8770000D01*
X10055000Y-8655000D02*
X10095000Y-8695000D01*
X10095000Y-8655000D02*
X10055000Y-8695000D01*
X10105000Y-8580000D02*
X10145000Y-8620000D01*
X10145000Y-8580000D02*
X10105000Y-8620000D01*
X10105000Y-8730000D02*
X10145000Y-8770000D01*
X10145000Y-8730000D02*
X10105000Y-8770000D01*
X10155000Y-8655000D02*
X10195000Y-8695000D01*
X10195000Y-8655000D02*
X10155000Y-8695000D01*
X10180000Y-8380000D02*
X10220000Y-8420000D01*
X10220000Y-8380000D02*
X10180000Y-8420000D01*
X10205000Y-8730000D02*
X10245000Y-8770000D01*
X10245000Y-8730000D02*
X10205000Y-8770000D01*
X10280000Y-7955000D02*
X10320000Y-7995000D01*
X10320000Y-7955000D02*
X10280000Y-7995000D01*
X10312950Y-7330000D02*
X10352950Y-7370000D01*
X10352950Y-7330000D02*
X10312950Y-7370000D01*
X10355000Y-7905000D02*
X10395000Y-7945000D01*
X10395000Y-7905000D02*
X10355000Y-7945000D01*
X10355000Y-8005000D02*
X10395000Y-8045000D01*
X10395000Y-8005000D02*
X10355000Y-8045000D01*
X10430000Y-7855000D02*
X10470000Y-7895000D01*
X10470000Y-7855000D02*
X10430000Y-7895000D01*
X10430000Y-7955000D02*
X10470000Y-7995000D01*
X10470000Y-7955000D02*
X10430000Y-7995000D01*
X10430000Y-8055000D02*
X10470000Y-8095000D01*
X10470000Y-8055000D02*
X10430000Y-8095000D01*
X11005000Y-12030000D02*
X11045000Y-12070000D01*
X11045000Y-12030000D02*
X11005000Y-12070000D01*
X11105000Y-12030000D02*
X11145000Y-12070000D01*
X11145000Y-12030000D02*
X11105000Y-12070000D01*
X11330000Y-7630000D02*
X11370000Y-7670000D01*
X11370000Y-7630000D02*
X11330000Y-7670000D01*
X11405000Y-7555000D02*
X11445000Y-7595000D01*
X11445000Y-7555000D02*
X11405000Y-7595000D01*
X11405000Y-7705000D02*
X11445000Y-7745000D01*
X11445000Y-7705000D02*
X11405000Y-7745000D01*
X11480000Y-7630000D02*
X11520000Y-7670000D01*
X11520000Y-7630000D02*
X11480000Y-7670000D01*
X11755000Y-11980000D02*
X11795000Y-12020000D01*
X11795000Y-11980000D02*
X11755000Y-12020000D01*
X12280000Y-6930000D02*
X12320000Y-6970000D01*
X12320000Y-6930000D02*
X12280000Y-6970000D01*
X12280000Y-7030000D02*
X12320000Y-7070000D01*
X12320000Y-7030000D02*
X12280000Y-7070000D01*
X12467500Y-9917500D02*
X12507500Y-9957500D01*
X12507500Y-9917500D02*
X12467500Y-9957500D01*
X12905000Y-6205000D02*
X12945000Y-6245000D01*
X12945000Y-6205000D02*
X12905000Y-6245000D01*
X12905000Y-12005000D02*
X12945000Y-12045000D01*
X12945000Y-12005000D02*
X12905000Y-12045000D01*
X12905000Y-12105000D02*
X12945000Y-12145000D01*
X12945000Y-12105000D02*
X12905000Y-12145000D01*
X12905000Y-12205000D02*
X12945000Y-12245000D01*
X12945000Y-12205000D02*
X12905000Y-12245000D01*
X12905064Y-11905064D02*
X12945064Y-11945064D01*
X12945064Y-11905064D02*
X12905064Y-11945064D01*
X12930000Y-6030000D02*
X12970000Y-6070000D01*
X12970000Y-6030000D02*
X12930000Y-6070000D01*
X12930000Y-6930000D02*
X12970000Y-6970000D01*
X12970000Y-6930000D02*
X12930000Y-6970000D01*
X12930000Y-7030000D02*
X12970000Y-7070000D01*
X12970000Y-7030000D02*
X12930000Y-7070000D01*
X12930000Y-11532000D02*
X12970000Y-11572000D01*
X12970000Y-11532000D02*
X12930000Y-11572000D01*
X13007682Y-11227317D02*
X13047682Y-11267317D01*
X13047682Y-11227317D02*
X13007682Y-11267317D01*
X13110273Y-11544362D02*
X13150273Y-11584362D01*
X13150273Y-11544362D02*
X13110273Y-11584362D01*
X13142500Y-10767500D02*
X13182500Y-10807500D01*
X13182500Y-10767500D02*
X13142500Y-10807500D01*
X13480000Y-7255000D02*
X13520000Y-7295000D01*
X13520000Y-7255000D02*
X13480000Y-7295000D01*
X13555000Y-6930000D02*
X13595000Y-6970000D01*
X13595000Y-6930000D02*
X13555000Y-6970000D01*
X13555000Y-7030000D02*
X13595000Y-7070000D01*
X13595000Y-7030000D02*
X13555000Y-7070000D01*
X13692500Y-11342500D02*
X13732500Y-11382500D01*
X13732500Y-11342500D02*
X13692500Y-11382500D01*
X14180000Y-6780000D02*
X14220000Y-6820000D01*
X14220000Y-6780000D02*
X14180000Y-6820000D01*
X14255000Y-6705000D02*
X14295000Y-6745000D01*
X14295000Y-6705000D02*
X14255000Y-6745000D01*
X14455000Y-7155000D02*
X14495000Y-7195000D01*
X14495000Y-7155000D02*
X14455000Y-7195000D01*
D13*
X14365000Y-10900000D02*
G75*
G03*
X14365000Y-10900000I-40000J0D01*
G01*
X14615000Y-10900000D02*
G75*
G03*
X14615000Y-10900000I-40000J0D01*
G01*
D14*
X7625000Y-11580000D02*
X7625000Y-11670000D01*
X7580000Y-11625000D02*
X7670000Y-11625000D01*
X7625000Y-11834000D02*
X7625000Y-11924000D01*
X7580000Y-11879000D02*
X7670000Y-11879000D01*
X8125000Y-11580000D02*
X8125000Y-11670000D01*
X8080000Y-11625000D02*
X8170000Y-11625000D01*
X8125000Y-11834000D02*
X8125000Y-11924000D01*
X8080000Y-11879000D02*
X8170000Y-11879000D01*
X8625000Y-11581500D02*
X8625000Y-11671500D01*
X8580000Y-11626500D02*
X8670000Y-11626500D01*
X8625000Y-11835500D02*
X8625000Y-11925500D01*
X8580000Y-11880500D02*
X8670000Y-11880500D01*
X9125000Y-11581500D02*
X9125000Y-11671500D01*
X9080000Y-11626500D02*
X9170000Y-11626500D01*
X9125000Y-11835500D02*
X9125000Y-11925500D01*
X9080000Y-11880500D02*
X9170000Y-11880500D01*
X15288000Y-6748750D02*
X15288000Y-6838750D01*
X15243000Y-6793750D02*
X15333000Y-6793750D01*
X15288000Y-7002750D02*
X15288000Y-7092750D01*
X15243000Y-7047750D02*
X15333000Y-7047750D01*
X15288000Y-7256750D02*
X15288000Y-7346750D01*
X15243000Y-7301750D02*
X15333000Y-7301750D01*
X15288000Y-7510750D02*
X15288000Y-7600750D01*
X15243000Y-7555750D02*
X15333000Y-7555750D01*
X15288000Y-10923750D02*
X15288000Y-11013750D01*
X15243000Y-10968750D02*
X15333000Y-10968750D01*
X15288000Y-11177750D02*
X15288000Y-11267750D01*
X15243000Y-11222750D02*
X15333000Y-11222750D01*
X15288000Y-11431750D02*
X15288000Y-11521750D01*
X15243000Y-11476750D02*
X15333000Y-11476750D01*
X15288000Y-11685750D02*
X15288000Y-11775750D01*
X15243000Y-11730750D02*
X15333000Y-11730750D01*
X15542000Y-6875750D02*
X15542000Y-6965750D01*
X15497000Y-6920750D02*
X15587000Y-6920750D01*
X15542000Y-7129750D02*
X15542000Y-7219750D01*
X15497000Y-7174750D02*
X15587000Y-7174750D01*
X15542000Y-7383750D02*
X15542000Y-7473750D01*
X15497000Y-7428750D02*
X15587000Y-7428750D01*
X15542000Y-7637750D02*
X15542000Y-7727750D01*
X15497000Y-7682750D02*
X15587000Y-7682750D01*
X15542000Y-11050750D02*
X15542000Y-11140750D01*
X15497000Y-11095750D02*
X15587000Y-11095750D01*
X15542000Y-11304750D02*
X15542000Y-11394750D01*
X15497000Y-11349750D02*
X15587000Y-11349750D01*
X15542000Y-11558750D02*
X15542000Y-11648750D01*
X15497000Y-11603750D02*
X15587000Y-11603750D01*
X15542000Y-11812750D02*
X15542000Y-11902750D01*
X15497000Y-11857750D02*
X15587000Y-11857750D01*
D10*
X5256259Y-7411056D02*
X5256259Y-7340344D01*
X5185548Y-7340344D01*
X5185548Y-7411056D01*
X5256259Y-7411056D01*
X5256259Y-7665056D02*
X5256259Y-7594344D01*
X5185548Y-7594344D01*
X5185548Y-7665056D01*
X5256259Y-7665056D01*
X5256259Y-7919056D02*
X5256259Y-7848344D01*
X5185548Y-7848344D01*
X5185548Y-7919056D01*
X5256259Y-7919056D01*
X5256259Y-8173056D02*
X5256259Y-8102344D01*
X5185548Y-8102344D01*
X5185548Y-8173056D01*
X5256259Y-8173056D01*
X5256259Y-8427056D02*
X5256259Y-8356344D01*
X5185548Y-8356344D01*
X5185548Y-8427056D01*
X5256259Y-8427056D01*
X5256259Y-8681056D02*
X5256259Y-8610344D01*
X5185548Y-8610344D01*
X5185548Y-8681056D01*
X5256259Y-8681056D01*
X5362356Y-9620356D02*
X5362356Y-9549644D01*
X5291644Y-9549644D01*
X5291644Y-9620356D01*
X5362356Y-9620356D01*
X5362356Y-10890356D02*
X5362356Y-10819644D01*
X5291644Y-10819644D01*
X5291644Y-10890356D01*
X5362356Y-10890356D01*
X5616356Y-9620356D02*
X5616356Y-9549644D01*
X5545644Y-9549644D01*
X5545644Y-9620356D01*
X5616356Y-9620356D01*
X5616356Y-10890356D02*
X5616356Y-10819644D01*
X5545644Y-10819644D01*
X5545644Y-10890356D01*
X5616356Y-10890356D01*
X5750159Y-8673756D02*
X5750159Y-8603044D01*
X5679448Y-8603044D01*
X5679448Y-8673756D01*
X5750159Y-8673756D01*
X5750159Y-8927756D02*
X5750159Y-8857044D01*
X5679448Y-8857044D01*
X5679448Y-8927756D01*
X5750159Y-8927756D01*
X5750159Y-9181756D02*
X5750159Y-9111044D01*
X5679448Y-9111044D01*
X5679448Y-9181756D01*
X5750159Y-9181756D01*
X5870356Y-9620356D02*
X5870356Y-9549644D01*
X5799644Y-9549644D01*
X5799644Y-9620356D01*
X5870356Y-9620356D01*
X5870356Y-10890356D02*
X5870356Y-10819644D01*
X5799644Y-10819644D01*
X5799644Y-10890356D01*
X5870356Y-10890356D01*
X6002659Y-8673756D02*
X6002659Y-8603044D01*
X5931948Y-8603044D01*
X5931948Y-8673756D01*
X6002659Y-8673756D01*
X6002659Y-8927756D02*
X6002659Y-8857044D01*
X5931948Y-8857044D01*
X5931948Y-8927756D01*
X6002659Y-8927756D01*
X6002659Y-9181756D02*
X6002659Y-9111044D01*
X5931948Y-9111044D01*
X5931948Y-9181756D01*
X6002659Y-9181756D01*
X6050356Y-6760356D02*
X6050356Y-6689644D01*
X5979644Y-6689644D01*
X5979644Y-6760356D01*
X6050356Y-6760356D01*
X6050356Y-7014356D02*
X6050356Y-6943644D01*
X5979644Y-6943644D01*
X5979644Y-7014356D01*
X6050356Y-7014356D01*
X6124356Y-9620356D02*
X6124356Y-9549644D01*
X6053644Y-9549644D01*
X6053644Y-9620356D01*
X6124356Y-9620356D01*
X6124356Y-10890356D02*
X6124356Y-10819644D01*
X6053644Y-10819644D01*
X6053644Y-10890356D01*
X6124356Y-10890356D01*
X6256659Y-8673756D02*
X6256659Y-8603044D01*
X6185948Y-8603044D01*
X6185948Y-8673756D01*
X6256659Y-8673756D01*
X6256659Y-8927756D02*
X6256659Y-8857044D01*
X6185948Y-8857044D01*
X6185948Y-8927756D01*
X6256659Y-8927756D01*
X6256659Y-9181756D02*
X6256659Y-9111044D01*
X6185948Y-9111044D01*
X6185948Y-9181756D01*
X6256659Y-9181756D01*
X6304356Y-6760356D02*
X6304356Y-6689644D01*
X6233644Y-6689644D01*
X6233644Y-6760356D01*
X6304356Y-6760356D01*
X6304356Y-7014356D02*
X6304356Y-6943644D01*
X6233644Y-6943644D01*
X6233644Y-7014356D01*
X6304356Y-7014356D01*
X6378356Y-9620356D02*
X6378356Y-9549644D01*
X6307644Y-9549644D01*
X6307644Y-9620356D01*
X6378356Y-9620356D01*
X6378356Y-10890356D02*
X6378356Y-10819644D01*
X6307644Y-10819644D01*
X6307644Y-10890356D01*
X6378356Y-10890356D01*
X6511659Y-8673756D02*
X6511659Y-8603044D01*
X6440948Y-8603044D01*
X6440948Y-8673756D01*
X6511659Y-8673756D01*
X6511659Y-8927756D02*
X6511659Y-8857044D01*
X6440948Y-8857044D01*
X6440948Y-8927756D01*
X6511659Y-8927756D01*
X6511659Y-9181756D02*
X6511659Y-9111044D01*
X6440948Y-9111044D01*
X6440948Y-9181756D01*
X6511659Y-9181756D01*
X6558356Y-6760356D02*
X6558356Y-6689644D01*
X6487644Y-6689644D01*
X6487644Y-6760356D01*
X6558356Y-6760356D01*
X6558356Y-7014356D02*
X6558356Y-6943644D01*
X6487644Y-6943644D01*
X6487644Y-7014356D01*
X6558356Y-7014356D01*
X6812356Y-6760356D02*
X6812356Y-6689644D01*
X6741644Y-6689644D01*
X6741644Y-6760356D01*
X6812356Y-6760356D01*
X6812356Y-7014356D02*
X6812356Y-6943644D01*
X6741644Y-6943644D01*
X6741644Y-7014356D01*
X6812356Y-7014356D01*
X6892356Y-9615356D02*
X6892356Y-9544644D01*
X6821644Y-9544644D01*
X6821644Y-9615356D01*
X6892356Y-9615356D01*
X6892356Y-10885356D02*
X6892356Y-10814644D01*
X6821644Y-10814644D01*
X6821644Y-10885356D01*
X6892356Y-10885356D01*
X7020159Y-8673756D02*
X7020159Y-8603044D01*
X6949448Y-8603044D01*
X6949448Y-8673756D01*
X7020159Y-8673756D01*
X7020159Y-8927756D02*
X7020159Y-8857044D01*
X6949448Y-8857044D01*
X6949448Y-8927756D01*
X7020159Y-8927756D01*
X7020159Y-9181756D02*
X7020159Y-9111044D01*
X6949448Y-9111044D01*
X6949448Y-9181756D01*
X7020159Y-9181756D01*
X7066356Y-6760356D02*
X7066356Y-6689644D01*
X6995644Y-6689644D01*
X6995644Y-6760356D01*
X7066356Y-6760356D01*
X7066356Y-7014356D02*
X7066356Y-6943644D01*
X6995644Y-6943644D01*
X6995644Y-7014356D01*
X7066356Y-7014356D01*
X7146356Y-9615356D02*
X7146356Y-9544644D01*
X7075644Y-9544644D01*
X7075644Y-9615356D01*
X7146356Y-9615356D01*
X7146356Y-10885356D02*
X7146356Y-10814644D01*
X7075644Y-10814644D01*
X7075644Y-10885356D01*
X7146356Y-10885356D01*
X7272659Y-8673756D02*
X7272659Y-8603044D01*
X7201948Y-8603044D01*
X7201948Y-8673756D01*
X7272659Y-8673756D01*
X7272659Y-8927756D02*
X7272659Y-8857044D01*
X7201948Y-8857044D01*
X7201948Y-8927756D01*
X7272659Y-8927756D01*
X7272659Y-9181756D02*
X7272659Y-9111044D01*
X7201948Y-9111044D01*
X7201948Y-9181756D01*
X7272659Y-9181756D01*
X7320356Y-6760356D02*
X7320356Y-6689644D01*
X7249644Y-6689644D01*
X7249644Y-6760356D01*
X7320356Y-6760356D01*
X7320356Y-7014356D02*
X7320356Y-6943644D01*
X7249644Y-6943644D01*
X7249644Y-7014356D01*
X7320356Y-7014356D01*
X7400356Y-9615356D02*
X7400356Y-9544644D01*
X7329644Y-9544644D01*
X7329644Y-9615356D01*
X7400356Y-9615356D01*
X7400356Y-10885356D02*
X7400356Y-10814644D01*
X7329644Y-10814644D01*
X7329644Y-10885356D01*
X7400356Y-10885356D01*
X7526659Y-8673756D02*
X7526659Y-8603044D01*
X7455948Y-8603044D01*
X7455948Y-8673756D01*
X7526659Y-8673756D01*
X7526659Y-8927756D02*
X7526659Y-8857044D01*
X7455948Y-8857044D01*
X7455948Y-8927756D01*
X7526659Y-8927756D01*
X7526659Y-9181756D02*
X7526659Y-9111044D01*
X7455948Y-9111044D01*
X7455948Y-9181756D01*
X7526659Y-9181756D01*
X7574356Y-6760356D02*
X7574356Y-6689644D01*
X7503644Y-6689644D01*
X7503644Y-6760356D01*
X7574356Y-6760356D01*
X7574356Y-7014356D02*
X7574356Y-6943644D01*
X7503644Y-6943644D01*
X7503644Y-7014356D01*
X7574356Y-7014356D01*
X7654356Y-9615356D02*
X7654356Y-9544644D01*
X7583644Y-9544644D01*
X7583644Y-9615356D01*
X7654356Y-9615356D01*
X7654356Y-10885356D02*
X7654356Y-10814644D01*
X7583644Y-10814644D01*
X7583644Y-10885356D01*
X7654356Y-10885356D01*
X7781659Y-8673756D02*
X7781659Y-8603044D01*
X7710948Y-8603044D01*
X7710948Y-8673756D01*
X7781659Y-8673756D01*
X7781659Y-8927756D02*
X7781659Y-8857044D01*
X7710948Y-8857044D01*
X7710948Y-8927756D01*
X7781659Y-8927756D01*
X7781659Y-9181756D02*
X7781659Y-9111044D01*
X7710948Y-9111044D01*
X7710948Y-9181756D01*
X7781659Y-9181756D01*
X7828356Y-6760356D02*
X7828356Y-6689644D01*
X7757644Y-6689644D01*
X7757644Y-6760356D01*
X7828356Y-6760356D01*
X7828356Y-7014356D02*
X7828356Y-6943644D01*
X7757644Y-6943644D01*
X7757644Y-7014356D01*
X7828356Y-7014356D01*
X7908356Y-9615356D02*
X7908356Y-9544644D01*
X7837644Y-9544644D01*
X7837644Y-9615356D01*
X7908356Y-9615356D01*
X7908356Y-10885356D02*
X7908356Y-10814644D01*
X7837644Y-10814644D01*
X7837644Y-10885356D01*
X7908356Y-10885356D01*
X8082356Y-6760356D02*
X8082356Y-6689644D01*
X8011644Y-6689644D01*
X8011644Y-6760356D01*
X8082356Y-6760356D01*
X8082356Y-7014356D02*
X8082356Y-6943644D01*
X8011644Y-6943644D01*
X8011644Y-7014356D01*
X8082356Y-7014356D01*
X8336356Y-6760356D02*
X8336356Y-6689644D01*
X8265644Y-6689644D01*
X8265644Y-6760356D01*
X8336356Y-6760356D01*
X8336356Y-7014356D02*
X8336356Y-6943644D01*
X8265644Y-6943644D01*
X8265644Y-7014356D01*
X8336356Y-7014356D01*
X8417356Y-9620356D02*
X8417356Y-9549644D01*
X8346644Y-9549644D01*
X8346644Y-9620356D01*
X8417356Y-9620356D01*
X8417356Y-10890356D02*
X8417356Y-10819644D01*
X8346644Y-10819644D01*
X8346644Y-10890356D01*
X8417356Y-10890356D01*
X8590356Y-6760356D02*
X8590356Y-6689644D01*
X8519644Y-6689644D01*
X8519644Y-6760356D01*
X8590356Y-6760356D01*
X8590356Y-7014356D02*
X8590356Y-6943644D01*
X8519644Y-6943644D01*
X8519644Y-7014356D01*
X8590356Y-7014356D01*
X8671356Y-9620356D02*
X8671356Y-9549644D01*
X8600644Y-9549644D01*
X8600644Y-9620356D01*
X8671356Y-9620356D01*
X8671356Y-10890356D02*
X8671356Y-10819644D01*
X8600644Y-10819644D01*
X8600644Y-10890356D01*
X8671356Y-10890356D01*
X8844356Y-6760356D02*
X8844356Y-6689644D01*
X8773644Y-6689644D01*
X8773644Y-6760356D01*
X8844356Y-6760356D01*
X8844356Y-7014356D02*
X8844356Y-6943644D01*
X8773644Y-6943644D01*
X8773644Y-7014356D01*
X8844356Y-7014356D01*
X8925356Y-9620356D02*
X8925356Y-9549644D01*
X8854644Y-9549644D01*
X8854644Y-9620356D01*
X8925356Y-9620356D01*
X8925356Y-10890356D02*
X8925356Y-10819644D01*
X8854644Y-10819644D01*
X8854644Y-10890356D01*
X8925356Y-10890356D01*
X9098356Y-6760356D02*
X9098356Y-6689644D01*
X9027644Y-6689644D01*
X9027644Y-6760356D01*
X9098356Y-6760356D01*
X9098356Y-7014356D02*
X9098356Y-6943644D01*
X9027644Y-6943644D01*
X9027644Y-7014356D01*
X9098356Y-7014356D01*
X9179356Y-9620356D02*
X9179356Y-9549644D01*
X9108644Y-9549644D01*
X9108644Y-9620356D01*
X9179356Y-9620356D01*
X9179356Y-10890356D02*
X9179356Y-10819644D01*
X9108644Y-10819644D01*
X9108644Y-10890356D01*
X9179356Y-10890356D01*
X9352356Y-6760356D02*
X9352356Y-6689644D01*
X9281644Y-6689644D01*
X9281644Y-6760356D01*
X9352356Y-6760356D01*
X9352356Y-7014356D02*
X9352356Y-6943644D01*
X9281644Y-6943644D01*
X9281644Y-7014356D01*
X9352356Y-7014356D01*
X9433356Y-9620356D02*
X9433356Y-9549644D01*
X9362644Y-9549644D01*
X9362644Y-9620356D01*
X9433356Y-9620356D01*
X9433356Y-10890356D02*
X9433356Y-10819644D01*
X9362644Y-10819644D01*
X9362644Y-10890356D01*
X9433356Y-10890356D01*
X9606356Y-6760356D02*
X9606356Y-6689644D01*
X9535644Y-6689644D01*
X9535644Y-6760356D01*
X9606356Y-6760356D01*
X9606356Y-7014356D02*
X9606356Y-6943644D01*
X9535644Y-6943644D01*
X9535644Y-7014356D01*
X9606356Y-7014356D01*
X9860356Y-6760356D02*
X9860356Y-6689644D01*
X9789644Y-6689644D01*
X9789644Y-6760356D01*
X9860356Y-6760356D01*
X9860356Y-7014356D02*
X9860356Y-6943644D01*
X9789644Y-6943644D01*
X9789644Y-7014356D01*
X9860356Y-7014356D01*
X9942356Y-9615356D02*
X9942356Y-9544644D01*
X9871644Y-9544644D01*
X9871644Y-9615356D01*
X9942356Y-9615356D01*
X9942356Y-10885356D02*
X9942356Y-10814644D01*
X9871644Y-10814644D01*
X9871644Y-10885356D01*
X9942356Y-10885356D01*
X10114356Y-6760356D02*
X10114356Y-6689644D01*
X10043644Y-6689644D01*
X10043644Y-6760356D01*
X10114356Y-6760356D01*
X10114356Y-7014356D02*
X10114356Y-6943644D01*
X10043644Y-6943644D01*
X10043644Y-7014356D01*
X10114356Y-7014356D01*
X10196356Y-9615356D02*
X10196356Y-9544644D01*
X10125644Y-9544644D01*
X10125644Y-9615356D01*
X10196356Y-9615356D01*
X10196356Y-10885356D02*
X10196356Y-10814644D01*
X10125644Y-10814644D01*
X10125644Y-10885356D01*
X10196356Y-10885356D01*
X10368356Y-6760356D02*
X10368356Y-6689644D01*
X10297644Y-6689644D01*
X10297644Y-6760356D01*
X10368356Y-6760356D01*
X10368356Y-7014356D02*
X10368356Y-6943644D01*
X10297644Y-6943644D01*
X10297644Y-7014356D01*
X10368356Y-7014356D01*
X10450356Y-9615356D02*
X10450356Y-9544644D01*
X10379644Y-9544644D01*
X10379644Y-9615356D01*
X10450356Y-9615356D01*
X10450356Y-10885356D02*
X10450356Y-10814644D01*
X10379644Y-10814644D01*
X10379644Y-10885356D01*
X10450356Y-10885356D01*
X10622356Y-6760356D02*
X10622356Y-6689644D01*
X10551644Y-6689644D01*
X10551644Y-6760356D01*
X10622356Y-6760356D01*
X10622356Y-7014356D02*
X10622356Y-6943644D01*
X10551644Y-6943644D01*
X10551644Y-7014356D01*
X10622356Y-7014356D01*
X10704356Y-9615356D02*
X10704356Y-9544644D01*
X10633644Y-9544644D01*
X10633644Y-9615356D01*
X10704356Y-9615356D01*
X10704356Y-10885356D02*
X10704356Y-10814644D01*
X10633644Y-10814644D01*
X10633644Y-10885356D01*
X10704356Y-10885356D01*
X10876356Y-6760356D02*
X10876356Y-6689644D01*
X10805644Y-6689644D01*
X10805644Y-6760356D01*
X10876356Y-6760356D01*
X10876356Y-7014356D02*
X10876356Y-6943644D01*
X10805644Y-6943644D01*
X10805644Y-7014356D01*
X10876356Y-7014356D01*
X10958356Y-9615356D02*
X10958356Y-9544644D01*
X10887644Y-9544644D01*
X10887644Y-9615356D01*
X10958356Y-9615356D01*
X10958356Y-10885356D02*
X10958356Y-10814644D01*
X10887644Y-10814644D01*
X10887644Y-10885356D01*
X10958356Y-10885356D01*
X11088759Y-7438556D02*
X11088759Y-7367844D01*
X11018048Y-7367844D01*
X11018048Y-7438556D01*
X11088759Y-7438556D01*
X11088759Y-7692556D02*
X11088759Y-7621844D01*
X11018048Y-7621844D01*
X11018048Y-7692556D01*
X11088759Y-7692556D01*
X11088759Y-7946556D02*
X11088759Y-7875844D01*
X11018048Y-7875844D01*
X11018048Y-7946556D01*
X11088759Y-7946556D01*
X11088759Y-8200556D02*
X11088759Y-8129844D01*
X11018048Y-8129844D01*
X11018048Y-8200556D01*
X11088759Y-8200556D01*
X11088759Y-8454556D02*
X11088759Y-8383844D01*
X11018048Y-8383844D01*
X11018048Y-8454556D01*
X11088759Y-8454556D01*
X11088759Y-8708556D02*
X11088759Y-8637844D01*
X11018048Y-8637844D01*
X11018048Y-8708556D01*
X11088759Y-8708556D01*
X11492356Y-9615356D02*
X11492356Y-9544644D01*
X11421644Y-9544644D01*
X11421644Y-9615356D01*
X11492356Y-9615356D01*
X11492356Y-10885356D02*
X11492356Y-10814644D01*
X11421644Y-10814644D01*
X11421644Y-10885356D01*
X11492356Y-10885356D01*
X11746356Y-9615356D02*
X11746356Y-9544644D01*
X11675644Y-9544644D01*
X11675644Y-9615356D01*
X11746356Y-9615356D01*
X11746356Y-10885356D02*
X11746356Y-10814644D01*
X11675644Y-10814644D01*
X11675644Y-10885356D01*
X11746356Y-10885356D01*
X11981356Y-6710356D02*
X11981356Y-6639644D01*
X11910644Y-6639644D01*
X11910644Y-6710356D01*
X11981356Y-6710356D01*
X12000356Y-9615356D02*
X12000356Y-9544644D01*
X11929644Y-9544644D01*
X11929644Y-9615356D01*
X12000356Y-9615356D01*
X12000356Y-10885356D02*
X12000356Y-10814644D01*
X11929644Y-10814644D01*
X11929644Y-10885356D01*
X12000356Y-10885356D01*
X12060356Y-11378356D02*
X12060356Y-11307644D01*
X11989644Y-11307644D01*
X11989644Y-11378356D01*
X12060356Y-11378356D01*
X12060356Y-11632356D02*
X12060356Y-11561644D01*
X11989644Y-11561644D01*
X11989644Y-11632356D01*
X12060356Y-11632356D01*
X12060356Y-11886356D02*
X12060356Y-11815644D01*
X11989644Y-11815644D01*
X11989644Y-11886356D01*
X12060356Y-11886356D01*
X12060356Y-12140356D02*
X12060356Y-12069644D01*
X11989644Y-12069644D01*
X11989644Y-12140356D01*
X12060356Y-12140356D01*
X12235356Y-6710356D02*
X12235356Y-6639644D01*
X12164644Y-6639644D01*
X12164644Y-6710356D01*
X12235356Y-6710356D01*
X12254356Y-9615356D02*
X12254356Y-9544644D01*
X12183644Y-9544644D01*
X12183644Y-9615356D01*
X12254356Y-9615356D01*
X12254356Y-10885356D02*
X12254356Y-10814644D01*
X12183644Y-10814644D01*
X12183644Y-10885356D01*
X12254356Y-10885356D01*
X12489356Y-6710356D02*
X12489356Y-6639644D01*
X12418644Y-6639644D01*
X12418644Y-6710356D01*
X12489356Y-6710356D01*
X12508356Y-9615356D02*
X12508356Y-9544644D01*
X12437644Y-9544644D01*
X12437644Y-9615356D01*
X12508356Y-9615356D01*
X12508356Y-10885356D02*
X12508356Y-10814644D01*
X12437644Y-10814644D01*
X12437644Y-10885356D01*
X12508356Y-10885356D01*
X12645356Y-7534356D02*
X12645356Y-7463644D01*
X12574644Y-7463644D01*
X12574644Y-7534356D01*
X12645356Y-7534356D01*
X12645356Y-7788356D02*
X12645356Y-7717644D01*
X12574644Y-7717644D01*
X12574644Y-7788356D01*
X12645356Y-7788356D01*
X12645356Y-8610356D02*
X12645356Y-8539644D01*
X12574644Y-8539644D01*
X12574644Y-8610356D01*
X12645356Y-8610356D01*
X12645356Y-8864356D02*
X12645356Y-8793644D01*
X12574644Y-8793644D01*
X12574644Y-8864356D01*
X12645356Y-8864356D01*
X12743356Y-6710356D02*
X12743356Y-6639644D01*
X12672644Y-6639644D01*
X12672644Y-6710356D01*
X12743356Y-6710356D01*
X13255356Y-6710356D02*
X13255356Y-6639644D01*
X13184644Y-6639644D01*
X13184644Y-6710356D01*
X13255356Y-6710356D01*
X13509356Y-6710356D02*
X13509356Y-6639644D01*
X13438644Y-6639644D01*
X13438644Y-6710356D01*
X13509356Y-6710356D01*
X13763356Y-6710356D02*
X13763356Y-6639644D01*
X13692644Y-6639644D01*
X13692644Y-6710356D01*
X13763356Y-6710356D01*
X14017356Y-6710356D02*
X14017356Y-6639644D01*
X13946644Y-6639644D01*
X13946644Y-6710356D01*
X14017356Y-6710356D01*
X14505356Y-7539356D02*
X14505356Y-7468644D01*
X14434644Y-7468644D01*
X14434644Y-7539356D01*
X14505356Y-7539356D01*
X14505356Y-7793356D02*
X14505356Y-7722644D01*
X14434644Y-7722644D01*
X14434644Y-7793356D01*
X14505356Y-7793356D01*
X14505356Y-8605356D02*
X14505356Y-8534644D01*
X14434644Y-8534644D01*
X14434644Y-8605356D01*
X14505356Y-8605356D01*
X14505356Y-8859356D02*
X14505356Y-8788644D01*
X14434644Y-8788644D01*
X14434644Y-8859356D01*
X14505356Y-8859356D01*
D15*
X15324500Y-8907500D02*
X15388000Y-8844000D01*
X15324500Y-8780500D01*
X15261000Y-8844000D01*
X15324500Y-8907500D01*
D11*
X15388000Y-9042120D02*
X15388000Y-8645880D01*
X15388000Y-8645880D02*
G75*
G03*
X15261000Y-8645880I-63500J0D01*
G01*
X15261000Y-8645880D02*
X15261000Y-9042120D01*
X15261000Y-9042120D02*
G75*
G03*
X15388000Y-9042120I63500J0D01*
G01*
D15*
X15324500Y-9694900D02*
X15388000Y-9631400D01*
X15324500Y-9567900D01*
X15261000Y-9631400D01*
X15324500Y-9694900D01*
D11*
X15388000Y-9829520D02*
X15388000Y-9433280D01*
X15388000Y-9433280D02*
G75*
G03*
X15261000Y-9433280I-63500J0D01*
G01*
X15261000Y-9433280D02*
X15261000Y-9829520D01*
X15261000Y-9829520D02*
G75*
G03*
X15388000Y-9829520I63500J0D01*
G01*
D16*
X5397000Y-6694000D02*
X5667000Y-6964000D01*
X5667000Y-6694000D02*
X5397000Y-6964000D01*
X5667000Y-6829000D02*
G75*
G03*
X5667000Y-6829000I-135000J0D01*
G01*
X5397000Y-11594000D02*
X5667000Y-11864000D01*
X5667000Y-11594000D02*
X5397000Y-11864000D01*
X5667000Y-11729000D02*
G75*
G03*
X5667000Y-11729000I-135000J0D01*
G01*
X11197000Y-6694000D02*
X11467000Y-6964000D01*
X11467000Y-6694000D02*
X11197000Y-6964000D01*
X11467000Y-6829000D02*
G75*
G03*
X11467000Y-6829000I-135000J0D01*
G01*
X11197000Y-11594000D02*
X11467000Y-11864000D01*
X11467000Y-11594000D02*
X11197000Y-11864000D01*
X11467000Y-11729000D02*
G75*
G03*
X11467000Y-11729000I-135000J0D01*
G01*
D11*
X5242619Y-12617524D02*
X5242619Y-12417524D01*
X5242619Y-12417524D02*
X5290238Y-12417524D01*
X5290238Y-12417524D02*
X5318810Y-12427048D01*
X5318810Y-12427048D02*
X5337857Y-12446095D01*
X5337857Y-12446095D02*
X5347381Y-12465143D01*
X5347381Y-12465143D02*
X5356905Y-12503238D01*
X5356905Y-12503238D02*
X5356905Y-12531809D01*
X5356905Y-12531809D02*
X5347381Y-12569905D01*
X5347381Y-12569905D02*
X5337857Y-12588952D01*
X5337857Y-12588952D02*
X5318810Y-12608000D01*
X5318810Y-12608000D02*
X5290238Y-12617524D01*
X5290238Y-12617524D02*
X5242619Y-12617524D01*
X5442619Y-12617524D02*
X5442619Y-12484190D01*
X5442619Y-12522286D02*
X5452143Y-12503238D01*
X5452143Y-12503238D02*
X5461667Y-12493714D01*
X5461667Y-12493714D02*
X5480714Y-12484190D01*
X5480714Y-12484190D02*
X5499762Y-12484190D01*
X5566429Y-12617524D02*
X5566429Y-12484190D01*
X5566429Y-12417524D02*
X5556905Y-12427048D01*
X5556905Y-12427048D02*
X5566429Y-12436571D01*
X5566429Y-12436571D02*
X5575952Y-12427048D01*
X5575952Y-12427048D02*
X5566429Y-12417524D01*
X5566429Y-12417524D02*
X5566429Y-12436571D01*
X5690238Y-12617524D02*
X5671190Y-12608000D01*
X5671190Y-12608000D02*
X5661667Y-12588952D01*
X5661667Y-12588952D02*
X5661667Y-12417524D01*
X5795000Y-12617524D02*
X5775952Y-12608000D01*
X5775952Y-12608000D02*
X5766428Y-12588952D01*
X5766428Y-12588952D02*
X5766428Y-12417524D01*
X6023571Y-12617524D02*
X6023571Y-12417524D01*
X6023571Y-12417524D02*
X6090238Y-12560381D01*
X6090238Y-12560381D02*
X6156905Y-12417524D01*
X6156905Y-12417524D02*
X6156905Y-12617524D01*
X6337857Y-12617524D02*
X6337857Y-12512762D01*
X6337857Y-12512762D02*
X6328333Y-12493714D01*
X6328333Y-12493714D02*
X6309286Y-12484190D01*
X6309286Y-12484190D02*
X6271190Y-12484190D01*
X6271190Y-12484190D02*
X6252143Y-12493714D01*
X6337857Y-12608000D02*
X6318809Y-12617524D01*
X6318809Y-12617524D02*
X6271190Y-12617524D01*
X6271190Y-12617524D02*
X6252143Y-12608000D01*
X6252143Y-12608000D02*
X6242619Y-12588952D01*
X6242619Y-12588952D02*
X6242619Y-12569905D01*
X6242619Y-12569905D02*
X6252143Y-12550857D01*
X6252143Y-12550857D02*
X6271190Y-12541333D01*
X6271190Y-12541333D02*
X6318809Y-12541333D01*
X6318809Y-12541333D02*
X6337857Y-12531809D01*
X6433095Y-12484190D02*
X6433095Y-12684190D01*
X6433095Y-12493714D02*
X6452143Y-12484190D01*
X6452143Y-12484190D02*
X6490238Y-12484190D01*
X6490238Y-12484190D02*
X6509286Y-12493714D01*
X6509286Y-12493714D02*
X6518809Y-12503238D01*
X6518809Y-12503238D02*
X6528333Y-12522286D01*
X6528333Y-12522286D02*
X6528333Y-12579428D01*
X6528333Y-12579428D02*
X6518809Y-12598476D01*
X6518809Y-12598476D02*
X6509286Y-12608000D01*
X6509286Y-12608000D02*
X6490238Y-12617524D01*
X6490238Y-12617524D02*
X6452143Y-12617524D01*
X6452143Y-12617524D02*
X6433095Y-12608000D01*
X6614048Y-12598476D02*
X6623571Y-12608000D01*
X6623571Y-12608000D02*
X6614048Y-12617524D01*
X6614048Y-12617524D02*
X6604524Y-12608000D01*
X6604524Y-12608000D02*
X6614048Y-12598476D01*
X6614048Y-12598476D02*
X6614048Y-12617524D01*
X6614048Y-12493714D02*
X6623571Y-12503238D01*
X6623571Y-12503238D02*
X6614048Y-12512762D01*
X6614048Y-12512762D02*
X6604524Y-12503238D01*
X6604524Y-12503238D02*
X6614048Y-12493714D01*
X6614048Y-12493714D02*
X6614048Y-12512762D01*
D12*
X4955000Y-12925000D02*
X4995000Y-12965000D01*
X4995000Y-12925000D02*
X4955000Y-12965000D01*
D11*
X5280714Y-12837524D02*
X5299762Y-12837524D01*
X5299762Y-12837524D02*
X5318810Y-12847048D01*
X5318810Y-12847048D02*
X5328333Y-12856571D01*
X5328333Y-12856571D02*
X5337857Y-12875619D01*
X5337857Y-12875619D02*
X5347381Y-12913714D01*
X5347381Y-12913714D02*
X5347381Y-12961333D01*
X5347381Y-12961333D02*
X5337857Y-12999428D01*
X5337857Y-12999428D02*
X5328333Y-13018476D01*
X5328333Y-13018476D02*
X5318810Y-13028000D01*
X5318810Y-13028000D02*
X5299762Y-13037524D01*
X5299762Y-13037524D02*
X5280714Y-13037524D01*
X5280714Y-13037524D02*
X5261667Y-13028000D01*
X5261667Y-13028000D02*
X5252143Y-13018476D01*
X5252143Y-13018476D02*
X5242619Y-12999428D01*
X5242619Y-12999428D02*
X5233095Y-12961333D01*
X5233095Y-12961333D02*
X5233095Y-12913714D01*
X5233095Y-12913714D02*
X5242619Y-12875619D01*
X5242619Y-12875619D02*
X5252143Y-12856571D01*
X5252143Y-12856571D02*
X5261667Y-12847048D01*
X5261667Y-12847048D02*
X5280714Y-12837524D01*
X5433095Y-13018476D02*
X5442619Y-13028000D01*
X5442619Y-13028000D02*
X5433095Y-13037524D01*
X5433095Y-13037524D02*
X5423571Y-13028000D01*
X5423571Y-13028000D02*
X5433095Y-13018476D01*
X5433095Y-13018476D02*
X5433095Y-13037524D01*
X5614048Y-12904190D02*
X5614048Y-13037524D01*
X5566429Y-12828000D02*
X5518810Y-12970857D01*
X5518810Y-12970857D02*
X5642619Y-12970857D01*
X5756905Y-12837524D02*
X5775952Y-12837524D01*
X5775952Y-12837524D02*
X5795000Y-12847048D01*
X5795000Y-12847048D02*
X5804524Y-12856571D01*
X5804524Y-12856571D02*
X5814048Y-12875619D01*
X5814048Y-12875619D02*
X5823571Y-12913714D01*
X5823571Y-12913714D02*
X5823571Y-12961333D01*
X5823571Y-12961333D02*
X5814048Y-12999428D01*
X5814048Y-12999428D02*
X5804524Y-13018476D01*
X5804524Y-13018476D02*
X5795000Y-13028000D01*
X5795000Y-13028000D02*
X5775952Y-13037524D01*
X5775952Y-13037524D02*
X5756905Y-13037524D01*
X5756905Y-13037524D02*
X5737857Y-13028000D01*
X5737857Y-13028000D02*
X5728333Y-13018476D01*
X5728333Y-13018476D02*
X5718809Y-12999428D01*
X5718809Y-12999428D02*
X5709286Y-12961333D01*
X5709286Y-12961333D02*
X5709286Y-12913714D01*
X5709286Y-12913714D02*
X5718809Y-12875619D01*
X5718809Y-12875619D02*
X5728333Y-12856571D01*
X5728333Y-12856571D02*
X5737857Y-12847048D01*
X5737857Y-12847048D02*
X5756905Y-12837524D01*
X5947381Y-12837524D02*
X5966429Y-12837524D01*
X5966429Y-12837524D02*
X5985476Y-12847048D01*
X5985476Y-12847048D02*
X5995000Y-12856571D01*
X5995000Y-12856571D02*
X6004524Y-12875619D01*
X6004524Y-12875619D02*
X6014048Y-12913714D01*
X6014048Y-12913714D02*
X6014048Y-12961333D01*
X6014048Y-12961333D02*
X6004524Y-12999428D01*
X6004524Y-12999428D02*
X5995000Y-13018476D01*
X5995000Y-13018476D02*
X5985476Y-13028000D01*
X5985476Y-13028000D02*
X5966429Y-13037524D01*
X5966429Y-13037524D02*
X5947381Y-13037524D01*
X5947381Y-13037524D02*
X5928333Y-13028000D01*
X5928333Y-13028000D02*
X5918809Y-13018476D01*
X5918809Y-13018476D02*
X5909286Y-12999428D01*
X5909286Y-12999428D02*
X5899762Y-12961333D01*
X5899762Y-12961333D02*
X5899762Y-12913714D01*
X5899762Y-12913714D02*
X5909286Y-12875619D01*
X5909286Y-12875619D02*
X5918809Y-12856571D01*
X5918809Y-12856571D02*
X5928333Y-12847048D01*
X5928333Y-12847048D02*
X5947381Y-12837524D01*
X6099762Y-13037524D02*
X6099762Y-12904190D01*
X6099762Y-12923238D02*
X6109286Y-12913714D01*
X6109286Y-12913714D02*
X6128333Y-12904190D01*
X6128333Y-12904190D02*
X6156905Y-12904190D01*
X6156905Y-12904190D02*
X6175952Y-12913714D01*
X6175952Y-12913714D02*
X6185476Y-12932762D01*
X6185476Y-12932762D02*
X6185476Y-13037524D01*
X6185476Y-12932762D02*
X6195000Y-12913714D01*
X6195000Y-12913714D02*
X6214048Y-12904190D01*
X6214048Y-12904190D02*
X6242619Y-12904190D01*
X6242619Y-12904190D02*
X6261667Y-12913714D01*
X6261667Y-12913714D02*
X6271190Y-12932762D01*
X6271190Y-12932762D02*
X6271190Y-13037524D01*
X6366429Y-13037524D02*
X6366429Y-12904190D01*
X6366429Y-12923238D02*
X6375952Y-12913714D01*
X6375952Y-12913714D02*
X6395000Y-12904190D01*
X6395000Y-12904190D02*
X6423571Y-12904190D01*
X6423571Y-12904190D02*
X6442619Y-12913714D01*
X6442619Y-12913714D02*
X6452143Y-12932762D01*
X6452143Y-12932762D02*
X6452143Y-13037524D01*
X6452143Y-12932762D02*
X6461667Y-12913714D01*
X6461667Y-12913714D02*
X6480714Y-12904190D01*
X6480714Y-12904190D02*
X6509286Y-12904190D01*
X6509286Y-12904190D02*
X6528333Y-12913714D01*
X6528333Y-12913714D02*
X6537857Y-12932762D01*
X6537857Y-12932762D02*
X6537857Y-13037524D01*
X6928333Y-12828000D02*
X6756905Y-13085143D01*
X7185476Y-12837524D02*
X7204524Y-12837524D01*
X7204524Y-12837524D02*
X7223572Y-12847048D01*
X7223572Y-12847048D02*
X7233095Y-12856571D01*
X7233095Y-12856571D02*
X7242619Y-12875619D01*
X7242619Y-12875619D02*
X7252143Y-12913714D01*
X7252143Y-12913714D02*
X7252143Y-12961333D01*
X7252143Y-12961333D02*
X7242619Y-12999428D01*
X7242619Y-12999428D02*
X7233095Y-13018476D01*
X7233095Y-13018476D02*
X7223572Y-13028000D01*
X7223572Y-13028000D02*
X7204524Y-13037524D01*
X7204524Y-13037524D02*
X7185476Y-13037524D01*
X7185476Y-13037524D02*
X7166429Y-13028000D01*
X7166429Y-13028000D02*
X7156905Y-13018476D01*
X7156905Y-13018476D02*
X7147381Y-12999428D01*
X7147381Y-12999428D02*
X7137857Y-12961333D01*
X7137857Y-12961333D02*
X7137857Y-12913714D01*
X7137857Y-12913714D02*
X7147381Y-12875619D01*
X7147381Y-12875619D02*
X7156905Y-12856571D01*
X7156905Y-12856571D02*
X7166429Y-12847048D01*
X7166429Y-12847048D02*
X7185476Y-12837524D01*
X7337857Y-13018476D02*
X7347381Y-13028000D01*
X7347381Y-13028000D02*
X7337857Y-13037524D01*
X7337857Y-13037524D02*
X7328333Y-13028000D01*
X7328333Y-13028000D02*
X7337857Y-13018476D01*
X7337857Y-13018476D02*
X7337857Y-13037524D01*
X7471191Y-12837524D02*
X7490238Y-12837524D01*
X7490238Y-12837524D02*
X7509286Y-12847048D01*
X7509286Y-12847048D02*
X7518810Y-12856571D01*
X7518810Y-12856571D02*
X7528333Y-12875619D01*
X7528333Y-12875619D02*
X7537857Y-12913714D01*
X7537857Y-12913714D02*
X7537857Y-12961333D01*
X7537857Y-12961333D02*
X7528333Y-12999428D01*
X7528333Y-12999428D02*
X7518810Y-13018476D01*
X7518810Y-13018476D02*
X7509286Y-13028000D01*
X7509286Y-13028000D02*
X7490238Y-13037524D01*
X7490238Y-13037524D02*
X7471191Y-13037524D01*
X7471191Y-13037524D02*
X7452143Y-13028000D01*
X7452143Y-13028000D02*
X7442619Y-13018476D01*
X7442619Y-13018476D02*
X7433095Y-12999428D01*
X7433095Y-12999428D02*
X7423572Y-12961333D01*
X7423572Y-12961333D02*
X7423572Y-12913714D01*
X7423572Y-12913714D02*
X7433095Y-12875619D01*
X7433095Y-12875619D02*
X7442619Y-12856571D01*
X7442619Y-12856571D02*
X7452143Y-12847048D01*
X7452143Y-12847048D02*
X7471191Y-12837524D01*
X7728333Y-13037524D02*
X7614048Y-13037524D01*
X7671191Y-13037524D02*
X7671191Y-12837524D01*
X7671191Y-12837524D02*
X7652143Y-12866095D01*
X7652143Y-12866095D02*
X7633095Y-12885143D01*
X7633095Y-12885143D02*
X7614048Y-12894667D01*
X7909286Y-12837524D02*
X7814048Y-12837524D01*
X7814048Y-12837524D02*
X7804524Y-12932762D01*
X7804524Y-12932762D02*
X7814048Y-12923238D01*
X7814048Y-12923238D02*
X7833095Y-12913714D01*
X7833095Y-12913714D02*
X7880714Y-12913714D01*
X7880714Y-12913714D02*
X7899762Y-12923238D01*
X7899762Y-12923238D02*
X7909286Y-12932762D01*
X7909286Y-12932762D02*
X7918810Y-12951809D01*
X7918810Y-12951809D02*
X7918810Y-12999428D01*
X7918810Y-12999428D02*
X7909286Y-13018476D01*
X7909286Y-13018476D02*
X7899762Y-13028000D01*
X7899762Y-13028000D02*
X7880714Y-13037524D01*
X7880714Y-13037524D02*
X7833095Y-13037524D01*
X7833095Y-13037524D02*
X7814048Y-13028000D01*
X7814048Y-13028000D02*
X7804524Y-13018476D01*
X7985476Y-12837524D02*
X8118810Y-12837524D01*
X8118810Y-12837524D02*
X8033095Y-13037524D01*
X8185476Y-12837524D02*
X8185476Y-12875619D01*
X8261667Y-12837524D02*
X8261667Y-12875619D01*
X8556905Y-13113714D02*
X8547381Y-13104190D01*
X8547381Y-13104190D02*
X8528334Y-13075619D01*
X8528334Y-13075619D02*
X8518810Y-13056571D01*
X8518810Y-13056571D02*
X8509286Y-13028000D01*
X8509286Y-13028000D02*
X8499762Y-12980381D01*
X8499762Y-12980381D02*
X8499762Y-12942286D01*
X8499762Y-12942286D02*
X8509286Y-12894667D01*
X8509286Y-12894667D02*
X8518810Y-12866095D01*
X8518810Y-12866095D02*
X8528334Y-12847048D01*
X8528334Y-12847048D02*
X8547381Y-12818476D01*
X8547381Y-12818476D02*
X8556905Y-12808952D01*
X8737857Y-13037524D02*
X8623572Y-13037524D01*
X8680715Y-13037524D02*
X8680715Y-12837524D01*
X8680715Y-12837524D02*
X8661667Y-12866095D01*
X8661667Y-12866095D02*
X8642619Y-12885143D01*
X8642619Y-12885143D02*
X8623572Y-12894667D01*
X8814048Y-12856571D02*
X8823572Y-12847048D01*
X8823572Y-12847048D02*
X8842619Y-12837524D01*
X8842619Y-12837524D02*
X8890238Y-12837524D01*
X8890238Y-12837524D02*
X8909286Y-12847048D01*
X8909286Y-12847048D02*
X8918810Y-12856571D01*
X8918810Y-12856571D02*
X8928334Y-12875619D01*
X8928334Y-12875619D02*
X8928334Y-12894667D01*
X8928334Y-12894667D02*
X8918810Y-12923238D01*
X8918810Y-12923238D02*
X8804524Y-13037524D01*
X8804524Y-13037524D02*
X8928334Y-13037524D01*
X9099762Y-12837524D02*
X9061667Y-12837524D01*
X9061667Y-12837524D02*
X9042619Y-12847048D01*
X9042619Y-12847048D02*
X9033096Y-12856571D01*
X9033096Y-12856571D02*
X9014048Y-12885143D01*
X9014048Y-12885143D02*
X9004524Y-12923238D01*
X9004524Y-12923238D02*
X9004524Y-12999428D01*
X9004524Y-12999428D02*
X9014048Y-13018476D01*
X9014048Y-13018476D02*
X9023572Y-13028000D01*
X9023572Y-13028000D02*
X9042619Y-13037524D01*
X9042619Y-13037524D02*
X9080715Y-13037524D01*
X9080715Y-13037524D02*
X9099762Y-13028000D01*
X9099762Y-13028000D02*
X9109286Y-13018476D01*
X9109286Y-13018476D02*
X9118810Y-12999428D01*
X9118810Y-12999428D02*
X9118810Y-12951809D01*
X9118810Y-12951809D02*
X9109286Y-12932762D01*
X9109286Y-12932762D02*
X9099762Y-12923238D01*
X9099762Y-12923238D02*
X9080715Y-12913714D01*
X9080715Y-12913714D02*
X9042619Y-12913714D01*
X9042619Y-12913714D02*
X9023572Y-12923238D01*
X9023572Y-12923238D02*
X9014048Y-12932762D01*
X9014048Y-12932762D02*
X9004524Y-12951809D01*
X9356905Y-13037524D02*
X9356905Y-12837524D01*
X9442619Y-13037524D02*
X9442619Y-12932762D01*
X9442619Y-12932762D02*
X9433096Y-12913714D01*
X9433096Y-12913714D02*
X9414048Y-12904190D01*
X9414048Y-12904190D02*
X9385477Y-12904190D01*
X9385477Y-12904190D02*
X9366429Y-12913714D01*
X9366429Y-12913714D02*
X9356905Y-12923238D01*
X9566429Y-13037524D02*
X9547381Y-13028000D01*
X9547381Y-13028000D02*
X9537858Y-13018476D01*
X9537858Y-13018476D02*
X9528334Y-12999428D01*
X9528334Y-12999428D02*
X9528334Y-12942286D01*
X9528334Y-12942286D02*
X9537858Y-12923238D01*
X9537858Y-12923238D02*
X9547381Y-12913714D01*
X9547381Y-12913714D02*
X9566429Y-12904190D01*
X9566429Y-12904190D02*
X9595000Y-12904190D01*
X9595000Y-12904190D02*
X9614048Y-12913714D01*
X9614048Y-12913714D02*
X9623572Y-12923238D01*
X9623572Y-12923238D02*
X9633096Y-12942286D01*
X9633096Y-12942286D02*
X9633096Y-12999428D01*
X9633096Y-12999428D02*
X9623572Y-13018476D01*
X9623572Y-13018476D02*
X9614048Y-13028000D01*
X9614048Y-13028000D02*
X9595000Y-13037524D01*
X9595000Y-13037524D02*
X9566429Y-13037524D01*
X9747381Y-13037524D02*
X9728334Y-13028000D01*
X9728334Y-13028000D02*
X9718810Y-13008952D01*
X9718810Y-13008952D02*
X9718810Y-12837524D01*
X9899762Y-13028000D02*
X9880715Y-13037524D01*
X9880715Y-13037524D02*
X9842619Y-13037524D01*
X9842619Y-13037524D02*
X9823572Y-13028000D01*
X9823572Y-13028000D02*
X9814048Y-13008952D01*
X9814048Y-13008952D02*
X9814048Y-12932762D01*
X9814048Y-12932762D02*
X9823572Y-12913714D01*
X9823572Y-12913714D02*
X9842619Y-12904190D01*
X9842619Y-12904190D02*
X9880715Y-12904190D01*
X9880715Y-12904190D02*
X9899762Y-12913714D01*
X9899762Y-12913714D02*
X9909286Y-12932762D01*
X9909286Y-12932762D02*
X9909286Y-12951809D01*
X9909286Y-12951809D02*
X9814048Y-12970857D01*
X9985477Y-13028000D02*
X10004524Y-13037524D01*
X10004524Y-13037524D02*
X10042619Y-13037524D01*
X10042619Y-13037524D02*
X10061667Y-13028000D01*
X10061667Y-13028000D02*
X10071191Y-13008952D01*
X10071191Y-13008952D02*
X10071191Y-12999428D01*
X10071191Y-12999428D02*
X10061667Y-12980381D01*
X10061667Y-12980381D02*
X10042619Y-12970857D01*
X10042619Y-12970857D02*
X10014048Y-12970857D01*
X10014048Y-12970857D02*
X9995000Y-12961333D01*
X9995000Y-12961333D02*
X9985477Y-12942286D01*
X9985477Y-12942286D02*
X9985477Y-12932762D01*
X9985477Y-12932762D02*
X9995000Y-12913714D01*
X9995000Y-12913714D02*
X10014048Y-12904190D01*
X10014048Y-12904190D02*
X10042619Y-12904190D01*
X10042619Y-12904190D02*
X10061667Y-12913714D01*
X10137858Y-13113714D02*
X10147381Y-13104190D01*
X10147381Y-13104190D02*
X10166429Y-13075619D01*
X10166429Y-13075619D02*
X10175953Y-13056571D01*
X10175953Y-13056571D02*
X10185477Y-13028000D01*
X10185477Y-13028000D02*
X10195000Y-12980381D01*
X10195000Y-12980381D02*
X10195000Y-12942286D01*
X10195000Y-12942286D02*
X10185477Y-12894667D01*
X10185477Y-12894667D02*
X10175953Y-12866095D01*
X10175953Y-12866095D02*
X10166429Y-12847048D01*
X10166429Y-12847048D02*
X10147381Y-12818476D01*
X10147381Y-12818476D02*
X10137858Y-12808952D01*
D13*
X4995000Y-13209000D02*
G75*
G03*
X4995000Y-13209000I-40000J0D01*
G01*
D11*
X5280714Y-13101524D02*
X5299762Y-13101524D01*
X5299762Y-13101524D02*
X5318810Y-13111048D01*
X5318810Y-13111048D02*
X5328333Y-13120571D01*
X5328333Y-13120571D02*
X5337857Y-13139619D01*
X5337857Y-13139619D02*
X5347381Y-13177714D01*
X5347381Y-13177714D02*
X5347381Y-13225333D01*
X5347381Y-13225333D02*
X5337857Y-13263428D01*
X5337857Y-13263428D02*
X5328333Y-13282476D01*
X5328333Y-13282476D02*
X5318810Y-13292000D01*
X5318810Y-13292000D02*
X5299762Y-13301524D01*
X5299762Y-13301524D02*
X5280714Y-13301524D01*
X5280714Y-13301524D02*
X5261667Y-13292000D01*
X5261667Y-13292000D02*
X5252143Y-13282476D01*
X5252143Y-13282476D02*
X5242619Y-13263428D01*
X5242619Y-13263428D02*
X5233095Y-13225333D01*
X5233095Y-13225333D02*
X5233095Y-13177714D01*
X5233095Y-13177714D02*
X5242619Y-13139619D01*
X5242619Y-13139619D02*
X5252143Y-13120571D01*
X5252143Y-13120571D02*
X5261667Y-13111048D01*
X5261667Y-13111048D02*
X5280714Y-13101524D01*
X5433095Y-13282476D02*
X5442619Y-13292000D01*
X5442619Y-13292000D02*
X5433095Y-13301524D01*
X5433095Y-13301524D02*
X5423571Y-13292000D01*
X5423571Y-13292000D02*
X5433095Y-13282476D01*
X5433095Y-13282476D02*
X5433095Y-13301524D01*
X5556905Y-13187238D02*
X5537857Y-13177714D01*
X5537857Y-13177714D02*
X5528333Y-13168190D01*
X5528333Y-13168190D02*
X5518810Y-13149143D01*
X5518810Y-13149143D02*
X5518810Y-13139619D01*
X5518810Y-13139619D02*
X5528333Y-13120571D01*
X5528333Y-13120571D02*
X5537857Y-13111048D01*
X5537857Y-13111048D02*
X5556905Y-13101524D01*
X5556905Y-13101524D02*
X5595000Y-13101524D01*
X5595000Y-13101524D02*
X5614048Y-13111048D01*
X5614048Y-13111048D02*
X5623571Y-13120571D01*
X5623571Y-13120571D02*
X5633095Y-13139619D01*
X5633095Y-13139619D02*
X5633095Y-13149143D01*
X5633095Y-13149143D02*
X5623571Y-13168190D01*
X5623571Y-13168190D02*
X5614048Y-13177714D01*
X5614048Y-13177714D02*
X5595000Y-13187238D01*
X5595000Y-13187238D02*
X5556905Y-13187238D01*
X5556905Y-13187238D02*
X5537857Y-13196762D01*
X5537857Y-13196762D02*
X5528333Y-13206286D01*
X5528333Y-13206286D02*
X5518810Y-13225333D01*
X5518810Y-13225333D02*
X5518810Y-13263428D01*
X5518810Y-13263428D02*
X5528333Y-13282476D01*
X5528333Y-13282476D02*
X5537857Y-13292000D01*
X5537857Y-13292000D02*
X5556905Y-13301524D01*
X5556905Y-13301524D02*
X5595000Y-13301524D01*
X5595000Y-13301524D02*
X5614048Y-13292000D01*
X5614048Y-13292000D02*
X5623571Y-13282476D01*
X5623571Y-13282476D02*
X5633095Y-13263428D01*
X5633095Y-13263428D02*
X5633095Y-13225333D01*
X5633095Y-13225333D02*
X5623571Y-13206286D01*
X5623571Y-13206286D02*
X5614048Y-13196762D01*
X5614048Y-13196762D02*
X5595000Y-13187238D01*
X5756905Y-13101524D02*
X5775952Y-13101524D01*
X5775952Y-13101524D02*
X5795000Y-13111048D01*
X5795000Y-13111048D02*
X5804524Y-13120571D01*
X5804524Y-13120571D02*
X5814048Y-13139619D01*
X5814048Y-13139619D02*
X5823571Y-13177714D01*
X5823571Y-13177714D02*
X5823571Y-13225333D01*
X5823571Y-13225333D02*
X5814048Y-13263428D01*
X5814048Y-13263428D02*
X5804524Y-13282476D01*
X5804524Y-13282476D02*
X5795000Y-13292000D01*
X5795000Y-13292000D02*
X5775952Y-13301524D01*
X5775952Y-13301524D02*
X5756905Y-13301524D01*
X5756905Y-13301524D02*
X5737857Y-13292000D01*
X5737857Y-13292000D02*
X5728333Y-13282476D01*
X5728333Y-13282476D02*
X5718809Y-13263428D01*
X5718809Y-13263428D02*
X5709286Y-13225333D01*
X5709286Y-13225333D02*
X5709286Y-13177714D01*
X5709286Y-13177714D02*
X5718809Y-13139619D01*
X5718809Y-13139619D02*
X5728333Y-13120571D01*
X5728333Y-13120571D02*
X5737857Y-13111048D01*
X5737857Y-13111048D02*
X5756905Y-13101524D01*
X5947381Y-13101524D02*
X5966429Y-13101524D01*
X5966429Y-13101524D02*
X5985476Y-13111048D01*
X5985476Y-13111048D02*
X5995000Y-13120571D01*
X5995000Y-13120571D02*
X6004524Y-13139619D01*
X6004524Y-13139619D02*
X6014048Y-13177714D01*
X6014048Y-13177714D02*
X6014048Y-13225333D01*
X6014048Y-13225333D02*
X6004524Y-13263428D01*
X6004524Y-13263428D02*
X5995000Y-13282476D01*
X5995000Y-13282476D02*
X5985476Y-13292000D01*
X5985476Y-13292000D02*
X5966429Y-13301524D01*
X5966429Y-13301524D02*
X5947381Y-13301524D01*
X5947381Y-13301524D02*
X5928333Y-13292000D01*
X5928333Y-13292000D02*
X5918809Y-13282476D01*
X5918809Y-13282476D02*
X5909286Y-13263428D01*
X5909286Y-13263428D02*
X5899762Y-13225333D01*
X5899762Y-13225333D02*
X5899762Y-13177714D01*
X5899762Y-13177714D02*
X5909286Y-13139619D01*
X5909286Y-13139619D02*
X5918809Y-13120571D01*
X5918809Y-13120571D02*
X5928333Y-13111048D01*
X5928333Y-13111048D02*
X5947381Y-13101524D01*
X6099762Y-13301524D02*
X6099762Y-13168190D01*
X6099762Y-13187238D02*
X6109286Y-13177714D01*
X6109286Y-13177714D02*
X6128333Y-13168190D01*
X6128333Y-13168190D02*
X6156905Y-13168190D01*
X6156905Y-13168190D02*
X6175952Y-13177714D01*
X6175952Y-13177714D02*
X6185476Y-13196762D01*
X6185476Y-13196762D02*
X6185476Y-13301524D01*
X6185476Y-13196762D02*
X6195000Y-13177714D01*
X6195000Y-13177714D02*
X6214048Y-13168190D01*
X6214048Y-13168190D02*
X6242619Y-13168190D01*
X6242619Y-13168190D02*
X6261667Y-13177714D01*
X6261667Y-13177714D02*
X6271190Y-13196762D01*
X6271190Y-13196762D02*
X6271190Y-13301524D01*
X6366429Y-13301524D02*
X6366429Y-13168190D01*
X6366429Y-13187238D02*
X6375952Y-13177714D01*
X6375952Y-13177714D02*
X6395000Y-13168190D01*
X6395000Y-13168190D02*
X6423571Y-13168190D01*
X6423571Y-13168190D02*
X6442619Y-13177714D01*
X6442619Y-13177714D02*
X6452143Y-13196762D01*
X6452143Y-13196762D02*
X6452143Y-13301524D01*
X6452143Y-13196762D02*
X6461667Y-13177714D01*
X6461667Y-13177714D02*
X6480714Y-13168190D01*
X6480714Y-13168190D02*
X6509286Y-13168190D01*
X6509286Y-13168190D02*
X6528333Y-13177714D01*
X6528333Y-13177714D02*
X6537857Y-13196762D01*
X6537857Y-13196762D02*
X6537857Y-13301524D01*
X6928333Y-13092000D02*
X6756905Y-13349143D01*
X7185476Y-13101524D02*
X7204524Y-13101524D01*
X7204524Y-13101524D02*
X7223572Y-13111048D01*
X7223572Y-13111048D02*
X7233095Y-13120571D01*
X7233095Y-13120571D02*
X7242619Y-13139619D01*
X7242619Y-13139619D02*
X7252143Y-13177714D01*
X7252143Y-13177714D02*
X7252143Y-13225333D01*
X7252143Y-13225333D02*
X7242619Y-13263428D01*
X7242619Y-13263428D02*
X7233095Y-13282476D01*
X7233095Y-13282476D02*
X7223572Y-13292000D01*
X7223572Y-13292000D02*
X7204524Y-13301524D01*
X7204524Y-13301524D02*
X7185476Y-13301524D01*
X7185476Y-13301524D02*
X7166429Y-13292000D01*
X7166429Y-13292000D02*
X7156905Y-13282476D01*
X7156905Y-13282476D02*
X7147381Y-13263428D01*
X7147381Y-13263428D02*
X7137857Y-13225333D01*
X7137857Y-13225333D02*
X7137857Y-13177714D01*
X7137857Y-13177714D02*
X7147381Y-13139619D01*
X7147381Y-13139619D02*
X7156905Y-13120571D01*
X7156905Y-13120571D02*
X7166429Y-13111048D01*
X7166429Y-13111048D02*
X7185476Y-13101524D01*
X7337857Y-13282476D02*
X7347381Y-13292000D01*
X7347381Y-13292000D02*
X7337857Y-13301524D01*
X7337857Y-13301524D02*
X7328333Y-13292000D01*
X7328333Y-13292000D02*
X7337857Y-13282476D01*
X7337857Y-13282476D02*
X7337857Y-13301524D01*
X7471191Y-13101524D02*
X7490238Y-13101524D01*
X7490238Y-13101524D02*
X7509286Y-13111048D01*
X7509286Y-13111048D02*
X7518810Y-13120571D01*
X7518810Y-13120571D02*
X7528333Y-13139619D01*
X7528333Y-13139619D02*
X7537857Y-13177714D01*
X7537857Y-13177714D02*
X7537857Y-13225333D01*
X7537857Y-13225333D02*
X7528333Y-13263428D01*
X7528333Y-13263428D02*
X7518810Y-13282476D01*
X7518810Y-13282476D02*
X7509286Y-13292000D01*
X7509286Y-13292000D02*
X7490238Y-13301524D01*
X7490238Y-13301524D02*
X7471191Y-13301524D01*
X7471191Y-13301524D02*
X7452143Y-13292000D01*
X7452143Y-13292000D02*
X7442619Y-13282476D01*
X7442619Y-13282476D02*
X7433095Y-13263428D01*
X7433095Y-13263428D02*
X7423572Y-13225333D01*
X7423572Y-13225333D02*
X7423572Y-13177714D01*
X7423572Y-13177714D02*
X7433095Y-13139619D01*
X7433095Y-13139619D02*
X7442619Y-13120571D01*
X7442619Y-13120571D02*
X7452143Y-13111048D01*
X7452143Y-13111048D02*
X7471191Y-13101524D01*
X7604524Y-13101524D02*
X7728333Y-13101524D01*
X7728333Y-13101524D02*
X7661667Y-13177714D01*
X7661667Y-13177714D02*
X7690238Y-13177714D01*
X7690238Y-13177714D02*
X7709286Y-13187238D01*
X7709286Y-13187238D02*
X7718810Y-13196762D01*
X7718810Y-13196762D02*
X7728333Y-13215809D01*
X7728333Y-13215809D02*
X7728333Y-13263428D01*
X7728333Y-13263428D02*
X7718810Y-13282476D01*
X7718810Y-13282476D02*
X7709286Y-13292000D01*
X7709286Y-13292000D02*
X7690238Y-13301524D01*
X7690238Y-13301524D02*
X7633095Y-13301524D01*
X7633095Y-13301524D02*
X7614048Y-13292000D01*
X7614048Y-13292000D02*
X7604524Y-13282476D01*
X7918810Y-13301524D02*
X7804524Y-13301524D01*
X7861667Y-13301524D02*
X7861667Y-13101524D01*
X7861667Y-13101524D02*
X7842619Y-13130095D01*
X7842619Y-13130095D02*
X7823572Y-13149143D01*
X7823572Y-13149143D02*
X7804524Y-13158667D01*
X8099762Y-13101524D02*
X8004524Y-13101524D01*
X8004524Y-13101524D02*
X7995000Y-13196762D01*
X7995000Y-13196762D02*
X8004524Y-13187238D01*
X8004524Y-13187238D02*
X8023572Y-13177714D01*
X8023572Y-13177714D02*
X8071191Y-13177714D01*
X8071191Y-13177714D02*
X8090238Y-13187238D01*
X8090238Y-13187238D02*
X8099762Y-13196762D01*
X8099762Y-13196762D02*
X8109286Y-13215809D01*
X8109286Y-13215809D02*
X8109286Y-13263428D01*
X8109286Y-13263428D02*
X8099762Y-13282476D01*
X8099762Y-13282476D02*
X8090238Y-13292000D01*
X8090238Y-13292000D02*
X8071191Y-13301524D01*
X8071191Y-13301524D02*
X8023572Y-13301524D01*
X8023572Y-13301524D02*
X8004524Y-13292000D01*
X8004524Y-13292000D02*
X7995000Y-13282476D01*
X8185476Y-13101524D02*
X8185476Y-13139619D01*
X8261667Y-13101524D02*
X8261667Y-13139619D01*
X8556905Y-13377714D02*
X8547381Y-13368190D01*
X8547381Y-13368190D02*
X8528334Y-13339619D01*
X8528334Y-13339619D02*
X8518810Y-13320571D01*
X8518810Y-13320571D02*
X8509286Y-13292000D01*
X8509286Y-13292000D02*
X8499762Y-13244381D01*
X8499762Y-13244381D02*
X8499762Y-13206286D01*
X8499762Y-13206286D02*
X8509286Y-13158667D01*
X8509286Y-13158667D02*
X8518810Y-13130095D01*
X8518810Y-13130095D02*
X8528334Y-13111048D01*
X8528334Y-13111048D02*
X8547381Y-13082476D01*
X8547381Y-13082476D02*
X8556905Y-13072952D01*
X8623572Y-13120571D02*
X8633096Y-13111048D01*
X8633096Y-13111048D02*
X8652143Y-13101524D01*
X8652143Y-13101524D02*
X8699762Y-13101524D01*
X8699762Y-13101524D02*
X8718810Y-13111048D01*
X8718810Y-13111048D02*
X8728334Y-13120571D01*
X8728334Y-13120571D02*
X8737857Y-13139619D01*
X8737857Y-13139619D02*
X8737857Y-13158667D01*
X8737857Y-13158667D02*
X8728334Y-13187238D01*
X8728334Y-13187238D02*
X8614048Y-13301524D01*
X8614048Y-13301524D02*
X8737857Y-13301524D01*
X8975953Y-13301524D02*
X8975953Y-13101524D01*
X9061667Y-13301524D02*
X9061667Y-13196762D01*
X9061667Y-13196762D02*
X9052143Y-13177714D01*
X9052143Y-13177714D02*
X9033096Y-13168190D01*
X9033096Y-13168190D02*
X9004524Y-13168190D01*
X9004524Y-13168190D02*
X8985477Y-13177714D01*
X8985477Y-13177714D02*
X8975953Y-13187238D01*
X9185477Y-13301524D02*
X9166429Y-13292000D01*
X9166429Y-13292000D02*
X9156905Y-13282476D01*
X9156905Y-13282476D02*
X9147381Y-13263428D01*
X9147381Y-13263428D02*
X9147381Y-13206286D01*
X9147381Y-13206286D02*
X9156905Y-13187238D01*
X9156905Y-13187238D02*
X9166429Y-13177714D01*
X9166429Y-13177714D02*
X9185477Y-13168190D01*
X9185477Y-13168190D02*
X9214048Y-13168190D01*
X9214048Y-13168190D02*
X9233096Y-13177714D01*
X9233096Y-13177714D02*
X9242619Y-13187238D01*
X9242619Y-13187238D02*
X9252143Y-13206286D01*
X9252143Y-13206286D02*
X9252143Y-13263428D01*
X9252143Y-13263428D02*
X9242619Y-13282476D01*
X9242619Y-13282476D02*
X9233096Y-13292000D01*
X9233096Y-13292000D02*
X9214048Y-13301524D01*
X9214048Y-13301524D02*
X9185477Y-13301524D01*
X9366429Y-13301524D02*
X9347381Y-13292000D01*
X9347381Y-13292000D02*
X9337858Y-13272952D01*
X9337858Y-13272952D02*
X9337858Y-13101524D01*
X9518810Y-13292000D02*
X9499762Y-13301524D01*
X9499762Y-13301524D02*
X9461667Y-13301524D01*
X9461667Y-13301524D02*
X9442619Y-13292000D01*
X9442619Y-13292000D02*
X9433096Y-13272952D01*
X9433096Y-13272952D02*
X9433096Y-13196762D01*
X9433096Y-13196762D02*
X9442619Y-13177714D01*
X9442619Y-13177714D02*
X9461667Y-13168190D01*
X9461667Y-13168190D02*
X9499762Y-13168190D01*
X9499762Y-13168190D02*
X9518810Y-13177714D01*
X9518810Y-13177714D02*
X9528334Y-13196762D01*
X9528334Y-13196762D02*
X9528334Y-13215809D01*
X9528334Y-13215809D02*
X9433096Y-13234857D01*
X9604524Y-13292000D02*
X9623572Y-13301524D01*
X9623572Y-13301524D02*
X9661667Y-13301524D01*
X9661667Y-13301524D02*
X9680715Y-13292000D01*
X9680715Y-13292000D02*
X9690239Y-13272952D01*
X9690239Y-13272952D02*
X9690239Y-13263428D01*
X9690239Y-13263428D02*
X9680715Y-13244381D01*
X9680715Y-13244381D02*
X9661667Y-13234857D01*
X9661667Y-13234857D02*
X9633096Y-13234857D01*
X9633096Y-13234857D02*
X9614048Y-13225333D01*
X9614048Y-13225333D02*
X9604524Y-13206286D01*
X9604524Y-13206286D02*
X9604524Y-13196762D01*
X9604524Y-13196762D02*
X9614048Y-13177714D01*
X9614048Y-13177714D02*
X9633096Y-13168190D01*
X9633096Y-13168190D02*
X9661667Y-13168190D01*
X9661667Y-13168190D02*
X9680715Y-13177714D01*
X9756905Y-13377714D02*
X9766429Y-13368190D01*
X9766429Y-13368190D02*
X9785477Y-13339619D01*
X9785477Y-13339619D02*
X9795000Y-13320571D01*
X9795000Y-13320571D02*
X9804524Y-13292000D01*
X9804524Y-13292000D02*
X9814048Y-13244381D01*
X9814048Y-13244381D02*
X9814048Y-13206286D01*
X9814048Y-13206286D02*
X9804524Y-13158667D01*
X9804524Y-13158667D02*
X9795000Y-13130095D01*
X9795000Y-13130095D02*
X9785477Y-13111048D01*
X9785477Y-13111048D02*
X9766429Y-13082476D01*
X9766429Y-13082476D02*
X9756905Y-13072952D01*
D14*
X4950000Y-13428000D02*
X4950000Y-13518000D01*
X4905000Y-13473000D02*
X4995000Y-13473000D01*
D11*
X5280714Y-13365524D02*
X5299762Y-13365524D01*
X5299762Y-13365524D02*
X5318810Y-13375048D01*
X5318810Y-13375048D02*
X5328333Y-13384571D01*
X5328333Y-13384571D02*
X5337857Y-13403619D01*
X5337857Y-13403619D02*
X5347381Y-13441714D01*
X5347381Y-13441714D02*
X5347381Y-13489333D01*
X5347381Y-13489333D02*
X5337857Y-13527428D01*
X5337857Y-13527428D02*
X5328333Y-13546476D01*
X5328333Y-13546476D02*
X5318810Y-13556000D01*
X5318810Y-13556000D02*
X5299762Y-13565524D01*
X5299762Y-13565524D02*
X5280714Y-13565524D01*
X5280714Y-13565524D02*
X5261667Y-13556000D01*
X5261667Y-13556000D02*
X5252143Y-13546476D01*
X5252143Y-13546476D02*
X5242619Y-13527428D01*
X5242619Y-13527428D02*
X5233095Y-13489333D01*
X5233095Y-13489333D02*
X5233095Y-13441714D01*
X5233095Y-13441714D02*
X5242619Y-13403619D01*
X5242619Y-13403619D02*
X5252143Y-13384571D01*
X5252143Y-13384571D02*
X5261667Y-13375048D01*
X5261667Y-13375048D02*
X5280714Y-13365524D01*
X5433095Y-13546476D02*
X5442619Y-13556000D01*
X5442619Y-13556000D02*
X5433095Y-13565524D01*
X5433095Y-13565524D02*
X5423571Y-13556000D01*
X5423571Y-13556000D02*
X5433095Y-13546476D01*
X5433095Y-13546476D02*
X5433095Y-13565524D01*
X5537857Y-13565524D02*
X5575952Y-13565524D01*
X5575952Y-13565524D02*
X5595000Y-13556000D01*
X5595000Y-13556000D02*
X5604524Y-13546476D01*
X5604524Y-13546476D02*
X5623571Y-13517905D01*
X5623571Y-13517905D02*
X5633095Y-13479809D01*
X5633095Y-13479809D02*
X5633095Y-13403619D01*
X5633095Y-13403619D02*
X5623571Y-13384571D01*
X5623571Y-13384571D02*
X5614048Y-13375048D01*
X5614048Y-13375048D02*
X5595000Y-13365524D01*
X5595000Y-13365524D02*
X5556905Y-13365524D01*
X5556905Y-13365524D02*
X5537857Y-13375048D01*
X5537857Y-13375048D02*
X5528333Y-13384571D01*
X5528333Y-13384571D02*
X5518810Y-13403619D01*
X5518810Y-13403619D02*
X5518810Y-13451238D01*
X5518810Y-13451238D02*
X5528333Y-13470286D01*
X5528333Y-13470286D02*
X5537857Y-13479809D01*
X5537857Y-13479809D02*
X5556905Y-13489333D01*
X5556905Y-13489333D02*
X5595000Y-13489333D01*
X5595000Y-13489333D02*
X5614048Y-13479809D01*
X5614048Y-13479809D02*
X5623571Y-13470286D01*
X5623571Y-13470286D02*
X5633095Y-13451238D01*
X5756905Y-13365524D02*
X5775952Y-13365524D01*
X5775952Y-13365524D02*
X5795000Y-13375048D01*
X5795000Y-13375048D02*
X5804524Y-13384571D01*
X5804524Y-13384571D02*
X5814048Y-13403619D01*
X5814048Y-13403619D02*
X5823571Y-13441714D01*
X5823571Y-13441714D02*
X5823571Y-13489333D01*
X5823571Y-13489333D02*
X5814048Y-13527428D01*
X5814048Y-13527428D02*
X5804524Y-13546476D01*
X5804524Y-13546476D02*
X5795000Y-13556000D01*
X5795000Y-13556000D02*
X5775952Y-13565524D01*
X5775952Y-13565524D02*
X5756905Y-13565524D01*
X5756905Y-13565524D02*
X5737857Y-13556000D01*
X5737857Y-13556000D02*
X5728333Y-13546476D01*
X5728333Y-13546476D02*
X5718809Y-13527428D01*
X5718809Y-13527428D02*
X5709286Y-13489333D01*
X5709286Y-13489333D02*
X5709286Y-13441714D01*
X5709286Y-13441714D02*
X5718809Y-13403619D01*
X5718809Y-13403619D02*
X5728333Y-13384571D01*
X5728333Y-13384571D02*
X5737857Y-13375048D01*
X5737857Y-13375048D02*
X5756905Y-13365524D01*
X5947381Y-13365524D02*
X5966429Y-13365524D01*
X5966429Y-13365524D02*
X5985476Y-13375048D01*
X5985476Y-13375048D02*
X5995000Y-13384571D01*
X5995000Y-13384571D02*
X6004524Y-13403619D01*
X6004524Y-13403619D02*
X6014048Y-13441714D01*
X6014048Y-13441714D02*
X6014048Y-13489333D01*
X6014048Y-13489333D02*
X6004524Y-13527428D01*
X6004524Y-13527428D02*
X5995000Y-13546476D01*
X5995000Y-13546476D02*
X5985476Y-13556000D01*
X5985476Y-13556000D02*
X5966429Y-13565524D01*
X5966429Y-13565524D02*
X5947381Y-13565524D01*
X5947381Y-13565524D02*
X5928333Y-13556000D01*
X5928333Y-13556000D02*
X5918809Y-13546476D01*
X5918809Y-13546476D02*
X5909286Y-13527428D01*
X5909286Y-13527428D02*
X5899762Y-13489333D01*
X5899762Y-13489333D02*
X5899762Y-13441714D01*
X5899762Y-13441714D02*
X5909286Y-13403619D01*
X5909286Y-13403619D02*
X5918809Y-13384571D01*
X5918809Y-13384571D02*
X5928333Y-13375048D01*
X5928333Y-13375048D02*
X5947381Y-13365524D01*
X6099762Y-13565524D02*
X6099762Y-13432190D01*
X6099762Y-13451238D02*
X6109286Y-13441714D01*
X6109286Y-13441714D02*
X6128333Y-13432190D01*
X6128333Y-13432190D02*
X6156905Y-13432190D01*
X6156905Y-13432190D02*
X6175952Y-13441714D01*
X6175952Y-13441714D02*
X6185476Y-13460762D01*
X6185476Y-13460762D02*
X6185476Y-13565524D01*
X6185476Y-13460762D02*
X6195000Y-13441714D01*
X6195000Y-13441714D02*
X6214048Y-13432190D01*
X6214048Y-13432190D02*
X6242619Y-13432190D01*
X6242619Y-13432190D02*
X6261667Y-13441714D01*
X6261667Y-13441714D02*
X6271190Y-13460762D01*
X6271190Y-13460762D02*
X6271190Y-13565524D01*
X6366429Y-13565524D02*
X6366429Y-13432190D01*
X6366429Y-13451238D02*
X6375952Y-13441714D01*
X6375952Y-13441714D02*
X6395000Y-13432190D01*
X6395000Y-13432190D02*
X6423571Y-13432190D01*
X6423571Y-13432190D02*
X6442619Y-13441714D01*
X6442619Y-13441714D02*
X6452143Y-13460762D01*
X6452143Y-13460762D02*
X6452143Y-13565524D01*
X6452143Y-13460762D02*
X6461667Y-13441714D01*
X6461667Y-13441714D02*
X6480714Y-13432190D01*
X6480714Y-13432190D02*
X6509286Y-13432190D01*
X6509286Y-13432190D02*
X6528333Y-13441714D01*
X6528333Y-13441714D02*
X6537857Y-13460762D01*
X6537857Y-13460762D02*
X6537857Y-13565524D01*
X6928333Y-13356000D02*
X6756905Y-13613143D01*
X7185476Y-13365524D02*
X7204524Y-13365524D01*
X7204524Y-13365524D02*
X7223572Y-13375048D01*
X7223572Y-13375048D02*
X7233095Y-13384571D01*
X7233095Y-13384571D02*
X7242619Y-13403619D01*
X7242619Y-13403619D02*
X7252143Y-13441714D01*
X7252143Y-13441714D02*
X7252143Y-13489333D01*
X7252143Y-13489333D02*
X7242619Y-13527428D01*
X7242619Y-13527428D02*
X7233095Y-13546476D01*
X7233095Y-13546476D02*
X7223572Y-13556000D01*
X7223572Y-13556000D02*
X7204524Y-13565524D01*
X7204524Y-13565524D02*
X7185476Y-13565524D01*
X7185476Y-13565524D02*
X7166429Y-13556000D01*
X7166429Y-13556000D02*
X7156905Y-13546476D01*
X7156905Y-13546476D02*
X7147381Y-13527428D01*
X7147381Y-13527428D02*
X7137857Y-13489333D01*
X7137857Y-13489333D02*
X7137857Y-13441714D01*
X7137857Y-13441714D02*
X7147381Y-13403619D01*
X7147381Y-13403619D02*
X7156905Y-13384571D01*
X7156905Y-13384571D02*
X7166429Y-13375048D01*
X7166429Y-13375048D02*
X7185476Y-13365524D01*
X7337857Y-13546476D02*
X7347381Y-13556000D01*
X7347381Y-13556000D02*
X7337857Y-13565524D01*
X7337857Y-13565524D02*
X7328333Y-13556000D01*
X7328333Y-13556000D02*
X7337857Y-13546476D01*
X7337857Y-13546476D02*
X7337857Y-13565524D01*
X7471191Y-13365524D02*
X7490238Y-13365524D01*
X7490238Y-13365524D02*
X7509286Y-13375048D01*
X7509286Y-13375048D02*
X7518810Y-13384571D01*
X7518810Y-13384571D02*
X7528333Y-13403619D01*
X7528333Y-13403619D02*
X7537857Y-13441714D01*
X7537857Y-13441714D02*
X7537857Y-13489333D01*
X7537857Y-13489333D02*
X7528333Y-13527428D01*
X7528333Y-13527428D02*
X7518810Y-13546476D01*
X7518810Y-13546476D02*
X7509286Y-13556000D01*
X7509286Y-13556000D02*
X7490238Y-13565524D01*
X7490238Y-13565524D02*
X7471191Y-13565524D01*
X7471191Y-13565524D02*
X7452143Y-13556000D01*
X7452143Y-13556000D02*
X7442619Y-13546476D01*
X7442619Y-13546476D02*
X7433095Y-13527428D01*
X7433095Y-13527428D02*
X7423572Y-13489333D01*
X7423572Y-13489333D02*
X7423572Y-13441714D01*
X7423572Y-13441714D02*
X7433095Y-13403619D01*
X7433095Y-13403619D02*
X7442619Y-13384571D01*
X7442619Y-13384571D02*
X7452143Y-13375048D01*
X7452143Y-13375048D02*
X7471191Y-13365524D01*
X7604524Y-13365524D02*
X7728333Y-13365524D01*
X7728333Y-13365524D02*
X7661667Y-13441714D01*
X7661667Y-13441714D02*
X7690238Y-13441714D01*
X7690238Y-13441714D02*
X7709286Y-13451238D01*
X7709286Y-13451238D02*
X7718810Y-13460762D01*
X7718810Y-13460762D02*
X7728333Y-13479809D01*
X7728333Y-13479809D02*
X7728333Y-13527428D01*
X7728333Y-13527428D02*
X7718810Y-13546476D01*
X7718810Y-13546476D02*
X7709286Y-13556000D01*
X7709286Y-13556000D02*
X7690238Y-13565524D01*
X7690238Y-13565524D02*
X7633095Y-13565524D01*
X7633095Y-13565524D02*
X7614048Y-13556000D01*
X7614048Y-13556000D02*
X7604524Y-13546476D01*
X7909286Y-13365524D02*
X7814048Y-13365524D01*
X7814048Y-13365524D02*
X7804524Y-13460762D01*
X7804524Y-13460762D02*
X7814048Y-13451238D01*
X7814048Y-13451238D02*
X7833095Y-13441714D01*
X7833095Y-13441714D02*
X7880714Y-13441714D01*
X7880714Y-13441714D02*
X7899762Y-13451238D01*
X7899762Y-13451238D02*
X7909286Y-13460762D01*
X7909286Y-13460762D02*
X7918810Y-13479809D01*
X7918810Y-13479809D02*
X7918810Y-13527428D01*
X7918810Y-13527428D02*
X7909286Y-13546476D01*
X7909286Y-13546476D02*
X7899762Y-13556000D01*
X7899762Y-13556000D02*
X7880714Y-13565524D01*
X7880714Y-13565524D02*
X7833095Y-13565524D01*
X7833095Y-13565524D02*
X7814048Y-13556000D01*
X7814048Y-13556000D02*
X7804524Y-13546476D01*
X8090238Y-13432190D02*
X8090238Y-13565524D01*
X8042619Y-13356000D02*
X7995000Y-13498857D01*
X7995000Y-13498857D02*
X8118810Y-13498857D01*
X8185476Y-13365524D02*
X8185476Y-13403619D01*
X8261667Y-13365524D02*
X8261667Y-13403619D01*
X8556905Y-13641714D02*
X8547381Y-13632190D01*
X8547381Y-13632190D02*
X8528334Y-13603619D01*
X8528334Y-13603619D02*
X8518810Y-13584571D01*
X8518810Y-13584571D02*
X8509286Y-13556000D01*
X8509286Y-13556000D02*
X8499762Y-13508381D01*
X8499762Y-13508381D02*
X8499762Y-13470286D01*
X8499762Y-13470286D02*
X8509286Y-13422667D01*
X8509286Y-13422667D02*
X8518810Y-13394095D01*
X8518810Y-13394095D02*
X8528334Y-13375048D01*
X8528334Y-13375048D02*
X8547381Y-13346476D01*
X8547381Y-13346476D02*
X8556905Y-13336952D01*
X8623572Y-13384571D02*
X8633096Y-13375048D01*
X8633096Y-13375048D02*
X8652143Y-13365524D01*
X8652143Y-13365524D02*
X8699762Y-13365524D01*
X8699762Y-13365524D02*
X8718810Y-13375048D01*
X8718810Y-13375048D02*
X8728334Y-13384571D01*
X8728334Y-13384571D02*
X8737857Y-13403619D01*
X8737857Y-13403619D02*
X8737857Y-13422667D01*
X8737857Y-13422667D02*
X8728334Y-13451238D01*
X8728334Y-13451238D02*
X8614048Y-13565524D01*
X8614048Y-13565524D02*
X8737857Y-13565524D01*
X8909286Y-13432190D02*
X8909286Y-13565524D01*
X8861667Y-13356000D02*
X8814048Y-13498857D01*
X8814048Y-13498857D02*
X8937857Y-13498857D01*
X9166429Y-13565524D02*
X9166429Y-13365524D01*
X9252143Y-13565524D02*
X9252143Y-13460762D01*
X9252143Y-13460762D02*
X9242619Y-13441714D01*
X9242619Y-13441714D02*
X9223572Y-13432190D01*
X9223572Y-13432190D02*
X9195000Y-13432190D01*
X9195000Y-13432190D02*
X9175953Y-13441714D01*
X9175953Y-13441714D02*
X9166429Y-13451238D01*
X9375953Y-13565524D02*
X9356905Y-13556000D01*
X9356905Y-13556000D02*
X9347381Y-13546476D01*
X9347381Y-13546476D02*
X9337858Y-13527428D01*
X9337858Y-13527428D02*
X9337858Y-13470286D01*
X9337858Y-13470286D02*
X9347381Y-13451238D01*
X9347381Y-13451238D02*
X9356905Y-13441714D01*
X9356905Y-13441714D02*
X9375953Y-13432190D01*
X9375953Y-13432190D02*
X9404524Y-13432190D01*
X9404524Y-13432190D02*
X9423572Y-13441714D01*
X9423572Y-13441714D02*
X9433096Y-13451238D01*
X9433096Y-13451238D02*
X9442619Y-13470286D01*
X9442619Y-13470286D02*
X9442619Y-13527428D01*
X9442619Y-13527428D02*
X9433096Y-13546476D01*
X9433096Y-13546476D02*
X9423572Y-13556000D01*
X9423572Y-13556000D02*
X9404524Y-13565524D01*
X9404524Y-13565524D02*
X9375953Y-13565524D01*
X9556905Y-13565524D02*
X9537858Y-13556000D01*
X9537858Y-13556000D02*
X9528334Y-13536952D01*
X9528334Y-13536952D02*
X9528334Y-13365524D01*
X9709286Y-13556000D02*
X9690239Y-13565524D01*
X9690239Y-13565524D02*
X9652143Y-13565524D01*
X9652143Y-13565524D02*
X9633096Y-13556000D01*
X9633096Y-13556000D02*
X9623572Y-13536952D01*
X9623572Y-13536952D02*
X9623572Y-13460762D01*
X9623572Y-13460762D02*
X9633096Y-13441714D01*
X9633096Y-13441714D02*
X9652143Y-13432190D01*
X9652143Y-13432190D02*
X9690239Y-13432190D01*
X9690239Y-13432190D02*
X9709286Y-13441714D01*
X9709286Y-13441714D02*
X9718810Y-13460762D01*
X9718810Y-13460762D02*
X9718810Y-13479809D01*
X9718810Y-13479809D02*
X9623572Y-13498857D01*
X9795000Y-13556000D02*
X9814048Y-13565524D01*
X9814048Y-13565524D02*
X9852143Y-13565524D01*
X9852143Y-13565524D02*
X9871191Y-13556000D01*
X9871191Y-13556000D02*
X9880715Y-13536952D01*
X9880715Y-13536952D02*
X9880715Y-13527428D01*
X9880715Y-13527428D02*
X9871191Y-13508381D01*
X9871191Y-13508381D02*
X9852143Y-13498857D01*
X9852143Y-13498857D02*
X9823572Y-13498857D01*
X9823572Y-13498857D02*
X9804524Y-13489333D01*
X9804524Y-13489333D02*
X9795000Y-13470286D01*
X9795000Y-13470286D02*
X9795000Y-13460762D01*
X9795000Y-13460762D02*
X9804524Y-13441714D01*
X9804524Y-13441714D02*
X9823572Y-13432190D01*
X9823572Y-13432190D02*
X9852143Y-13432190D01*
X9852143Y-13432190D02*
X9871191Y-13441714D01*
X9947381Y-13641714D02*
X9956905Y-13632190D01*
X9956905Y-13632190D02*
X9975953Y-13603619D01*
X9975953Y-13603619D02*
X9985477Y-13584571D01*
X9985477Y-13584571D02*
X9995000Y-13556000D01*
X9995000Y-13556000D02*
X10004524Y-13508381D01*
X10004524Y-13508381D02*
X10004524Y-13470286D01*
X10004524Y-13470286D02*
X9995000Y-13422667D01*
X9995000Y-13422667D02*
X9985477Y-13394095D01*
X9985477Y-13394095D02*
X9975953Y-13375048D01*
X9975953Y-13375048D02*
X9956905Y-13346476D01*
X9956905Y-13346476D02*
X9947381Y-13336952D01*
D10*
X4980356Y-13772356D02*
X4980356Y-13701644D01*
X4909644Y-13701644D01*
X4909644Y-13772356D01*
X4980356Y-13772356D01*
D11*
X5347381Y-13829524D02*
X5233095Y-13829524D01*
X5290238Y-13829524D02*
X5290238Y-13629524D01*
X5290238Y-13629524D02*
X5271190Y-13658095D01*
X5271190Y-13658095D02*
X5252143Y-13677143D01*
X5252143Y-13677143D02*
X5233095Y-13686667D01*
X5433095Y-13810476D02*
X5442619Y-13820000D01*
X5442619Y-13820000D02*
X5433095Y-13829524D01*
X5433095Y-13829524D02*
X5423571Y-13820000D01*
X5423571Y-13820000D02*
X5433095Y-13810476D01*
X5433095Y-13810476D02*
X5433095Y-13829524D01*
X5566429Y-13629524D02*
X5585476Y-13629524D01*
X5585476Y-13629524D02*
X5604524Y-13639048D01*
X5604524Y-13639048D02*
X5614048Y-13648571D01*
X5614048Y-13648571D02*
X5623571Y-13667619D01*
X5623571Y-13667619D02*
X5633095Y-13705714D01*
X5633095Y-13705714D02*
X5633095Y-13753333D01*
X5633095Y-13753333D02*
X5623571Y-13791428D01*
X5623571Y-13791428D02*
X5614048Y-13810476D01*
X5614048Y-13810476D02*
X5604524Y-13820000D01*
X5604524Y-13820000D02*
X5585476Y-13829524D01*
X5585476Y-13829524D02*
X5566429Y-13829524D01*
X5566429Y-13829524D02*
X5547381Y-13820000D01*
X5547381Y-13820000D02*
X5537857Y-13810476D01*
X5537857Y-13810476D02*
X5528333Y-13791428D01*
X5528333Y-13791428D02*
X5518810Y-13753333D01*
X5518810Y-13753333D02*
X5518810Y-13705714D01*
X5518810Y-13705714D02*
X5528333Y-13667619D01*
X5528333Y-13667619D02*
X5537857Y-13648571D01*
X5537857Y-13648571D02*
X5547381Y-13639048D01*
X5547381Y-13639048D02*
X5566429Y-13629524D01*
X5756905Y-13629524D02*
X5775952Y-13629524D01*
X5775952Y-13629524D02*
X5795000Y-13639048D01*
X5795000Y-13639048D02*
X5804524Y-13648571D01*
X5804524Y-13648571D02*
X5814048Y-13667619D01*
X5814048Y-13667619D02*
X5823571Y-13705714D01*
X5823571Y-13705714D02*
X5823571Y-13753333D01*
X5823571Y-13753333D02*
X5814048Y-13791428D01*
X5814048Y-13791428D02*
X5804524Y-13810476D01*
X5804524Y-13810476D02*
X5795000Y-13820000D01*
X5795000Y-13820000D02*
X5775952Y-13829524D01*
X5775952Y-13829524D02*
X5756905Y-13829524D01*
X5756905Y-13829524D02*
X5737857Y-13820000D01*
X5737857Y-13820000D02*
X5728333Y-13810476D01*
X5728333Y-13810476D02*
X5718809Y-13791428D01*
X5718809Y-13791428D02*
X5709286Y-13753333D01*
X5709286Y-13753333D02*
X5709286Y-13705714D01*
X5709286Y-13705714D02*
X5718809Y-13667619D01*
X5718809Y-13667619D02*
X5728333Y-13648571D01*
X5728333Y-13648571D02*
X5737857Y-13639048D01*
X5737857Y-13639048D02*
X5756905Y-13629524D01*
X5947381Y-13629524D02*
X5966429Y-13629524D01*
X5966429Y-13629524D02*
X5985476Y-13639048D01*
X5985476Y-13639048D02*
X5995000Y-13648571D01*
X5995000Y-13648571D02*
X6004524Y-13667619D01*
X6004524Y-13667619D02*
X6014048Y-13705714D01*
X6014048Y-13705714D02*
X6014048Y-13753333D01*
X6014048Y-13753333D02*
X6004524Y-13791428D01*
X6004524Y-13791428D02*
X5995000Y-13810476D01*
X5995000Y-13810476D02*
X5985476Y-13820000D01*
X5985476Y-13820000D02*
X5966429Y-13829524D01*
X5966429Y-13829524D02*
X5947381Y-13829524D01*
X5947381Y-13829524D02*
X5928333Y-13820000D01*
X5928333Y-13820000D02*
X5918809Y-13810476D01*
X5918809Y-13810476D02*
X5909286Y-13791428D01*
X5909286Y-13791428D02*
X5899762Y-13753333D01*
X5899762Y-13753333D02*
X5899762Y-13705714D01*
X5899762Y-13705714D02*
X5909286Y-13667619D01*
X5909286Y-13667619D02*
X5918809Y-13648571D01*
X5918809Y-13648571D02*
X5928333Y-13639048D01*
X5928333Y-13639048D02*
X5947381Y-13629524D01*
X6099762Y-13829524D02*
X6099762Y-13696190D01*
X6099762Y-13715238D02*
X6109286Y-13705714D01*
X6109286Y-13705714D02*
X6128333Y-13696190D01*
X6128333Y-13696190D02*
X6156905Y-13696190D01*
X6156905Y-13696190D02*
X6175952Y-13705714D01*
X6175952Y-13705714D02*
X6185476Y-13724762D01*
X6185476Y-13724762D02*
X6185476Y-13829524D01*
X6185476Y-13724762D02*
X6195000Y-13705714D01*
X6195000Y-13705714D02*
X6214048Y-13696190D01*
X6214048Y-13696190D02*
X6242619Y-13696190D01*
X6242619Y-13696190D02*
X6261667Y-13705714D01*
X6261667Y-13705714D02*
X6271190Y-13724762D01*
X6271190Y-13724762D02*
X6271190Y-13829524D01*
X6366429Y-13829524D02*
X6366429Y-13696190D01*
X6366429Y-13715238D02*
X6375952Y-13705714D01*
X6375952Y-13705714D02*
X6395000Y-13696190D01*
X6395000Y-13696190D02*
X6423571Y-13696190D01*
X6423571Y-13696190D02*
X6442619Y-13705714D01*
X6442619Y-13705714D02*
X6452143Y-13724762D01*
X6452143Y-13724762D02*
X6452143Y-13829524D01*
X6452143Y-13724762D02*
X6461667Y-13705714D01*
X6461667Y-13705714D02*
X6480714Y-13696190D01*
X6480714Y-13696190D02*
X6509286Y-13696190D01*
X6509286Y-13696190D02*
X6528333Y-13705714D01*
X6528333Y-13705714D02*
X6537857Y-13724762D01*
X6537857Y-13724762D02*
X6537857Y-13829524D01*
X6928333Y-13620000D02*
X6756905Y-13877143D01*
X7185476Y-13629524D02*
X7204524Y-13629524D01*
X7204524Y-13629524D02*
X7223572Y-13639048D01*
X7223572Y-13639048D02*
X7233095Y-13648571D01*
X7233095Y-13648571D02*
X7242619Y-13667619D01*
X7242619Y-13667619D02*
X7252143Y-13705714D01*
X7252143Y-13705714D02*
X7252143Y-13753333D01*
X7252143Y-13753333D02*
X7242619Y-13791428D01*
X7242619Y-13791428D02*
X7233095Y-13810476D01*
X7233095Y-13810476D02*
X7223572Y-13820000D01*
X7223572Y-13820000D02*
X7204524Y-13829524D01*
X7204524Y-13829524D02*
X7185476Y-13829524D01*
X7185476Y-13829524D02*
X7166429Y-13820000D01*
X7166429Y-13820000D02*
X7156905Y-13810476D01*
X7156905Y-13810476D02*
X7147381Y-13791428D01*
X7147381Y-13791428D02*
X7137857Y-13753333D01*
X7137857Y-13753333D02*
X7137857Y-13705714D01*
X7137857Y-13705714D02*
X7147381Y-13667619D01*
X7147381Y-13667619D02*
X7156905Y-13648571D01*
X7156905Y-13648571D02*
X7166429Y-13639048D01*
X7166429Y-13639048D02*
X7185476Y-13629524D01*
X7337857Y-13810476D02*
X7347381Y-13820000D01*
X7347381Y-13820000D02*
X7337857Y-13829524D01*
X7337857Y-13829524D02*
X7328333Y-13820000D01*
X7328333Y-13820000D02*
X7337857Y-13810476D01*
X7337857Y-13810476D02*
X7337857Y-13829524D01*
X7471191Y-13629524D02*
X7490238Y-13629524D01*
X7490238Y-13629524D02*
X7509286Y-13639048D01*
X7509286Y-13639048D02*
X7518810Y-13648571D01*
X7518810Y-13648571D02*
X7528333Y-13667619D01*
X7528333Y-13667619D02*
X7537857Y-13705714D01*
X7537857Y-13705714D02*
X7537857Y-13753333D01*
X7537857Y-13753333D02*
X7528333Y-13791428D01*
X7528333Y-13791428D02*
X7518810Y-13810476D01*
X7518810Y-13810476D02*
X7509286Y-13820000D01*
X7509286Y-13820000D02*
X7490238Y-13829524D01*
X7490238Y-13829524D02*
X7471191Y-13829524D01*
X7471191Y-13829524D02*
X7452143Y-13820000D01*
X7452143Y-13820000D02*
X7442619Y-13810476D01*
X7442619Y-13810476D02*
X7433095Y-13791428D01*
X7433095Y-13791428D02*
X7423572Y-13753333D01*
X7423572Y-13753333D02*
X7423572Y-13705714D01*
X7423572Y-13705714D02*
X7433095Y-13667619D01*
X7433095Y-13667619D02*
X7442619Y-13648571D01*
X7442619Y-13648571D02*
X7452143Y-13639048D01*
X7452143Y-13639048D02*
X7471191Y-13629524D01*
X7604524Y-13629524D02*
X7728333Y-13629524D01*
X7728333Y-13629524D02*
X7661667Y-13705714D01*
X7661667Y-13705714D02*
X7690238Y-13705714D01*
X7690238Y-13705714D02*
X7709286Y-13715238D01*
X7709286Y-13715238D02*
X7718810Y-13724762D01*
X7718810Y-13724762D02*
X7728333Y-13743809D01*
X7728333Y-13743809D02*
X7728333Y-13791428D01*
X7728333Y-13791428D02*
X7718810Y-13810476D01*
X7718810Y-13810476D02*
X7709286Y-13820000D01*
X7709286Y-13820000D02*
X7690238Y-13829524D01*
X7690238Y-13829524D02*
X7633095Y-13829524D01*
X7633095Y-13829524D02*
X7614048Y-13820000D01*
X7614048Y-13820000D02*
X7604524Y-13810476D01*
X7823572Y-13829524D02*
X7861667Y-13829524D01*
X7861667Y-13829524D02*
X7880714Y-13820000D01*
X7880714Y-13820000D02*
X7890238Y-13810476D01*
X7890238Y-13810476D02*
X7909286Y-13781905D01*
X7909286Y-13781905D02*
X7918810Y-13743809D01*
X7918810Y-13743809D02*
X7918810Y-13667619D01*
X7918810Y-13667619D02*
X7909286Y-13648571D01*
X7909286Y-13648571D02*
X7899762Y-13639048D01*
X7899762Y-13639048D02*
X7880714Y-13629524D01*
X7880714Y-13629524D02*
X7842619Y-13629524D01*
X7842619Y-13629524D02*
X7823572Y-13639048D01*
X7823572Y-13639048D02*
X7814048Y-13648571D01*
X7814048Y-13648571D02*
X7804524Y-13667619D01*
X7804524Y-13667619D02*
X7804524Y-13715238D01*
X7804524Y-13715238D02*
X7814048Y-13734286D01*
X7814048Y-13734286D02*
X7823572Y-13743809D01*
X7823572Y-13743809D02*
X7842619Y-13753333D01*
X7842619Y-13753333D02*
X7880714Y-13753333D01*
X7880714Y-13753333D02*
X7899762Y-13743809D01*
X7899762Y-13743809D02*
X7909286Y-13734286D01*
X7909286Y-13734286D02*
X7918810Y-13715238D01*
X8090238Y-13696190D02*
X8090238Y-13829524D01*
X8042619Y-13620000D02*
X7995000Y-13762857D01*
X7995000Y-13762857D02*
X8118810Y-13762857D01*
X8185476Y-13629524D02*
X8185476Y-13667619D01*
X8261667Y-13629524D02*
X8261667Y-13667619D01*
X8556905Y-13905714D02*
X8547381Y-13896190D01*
X8547381Y-13896190D02*
X8528334Y-13867619D01*
X8528334Y-13867619D02*
X8518810Y-13848571D01*
X8518810Y-13848571D02*
X8509286Y-13820000D01*
X8509286Y-13820000D02*
X8499762Y-13772381D01*
X8499762Y-13772381D02*
X8499762Y-13734286D01*
X8499762Y-13734286D02*
X8509286Y-13686667D01*
X8509286Y-13686667D02*
X8518810Y-13658095D01*
X8518810Y-13658095D02*
X8528334Y-13639048D01*
X8528334Y-13639048D02*
X8547381Y-13610476D01*
X8547381Y-13610476D02*
X8556905Y-13600952D01*
X8737857Y-13829524D02*
X8623572Y-13829524D01*
X8680715Y-13829524D02*
X8680715Y-13629524D01*
X8680715Y-13629524D02*
X8661667Y-13658095D01*
X8661667Y-13658095D02*
X8642619Y-13677143D01*
X8642619Y-13677143D02*
X8623572Y-13686667D01*
X8909286Y-13696190D02*
X8909286Y-13829524D01*
X8861667Y-13620000D02*
X8814048Y-13762857D01*
X8814048Y-13762857D02*
X8937857Y-13762857D01*
X9099762Y-13629524D02*
X9061667Y-13629524D01*
X9061667Y-13629524D02*
X9042619Y-13639048D01*
X9042619Y-13639048D02*
X9033096Y-13648571D01*
X9033096Y-13648571D02*
X9014048Y-13677143D01*
X9014048Y-13677143D02*
X9004524Y-13715238D01*
X9004524Y-13715238D02*
X9004524Y-13791428D01*
X9004524Y-13791428D02*
X9014048Y-13810476D01*
X9014048Y-13810476D02*
X9023572Y-13820000D01*
X9023572Y-13820000D02*
X9042619Y-13829524D01*
X9042619Y-13829524D02*
X9080715Y-13829524D01*
X9080715Y-13829524D02*
X9099762Y-13820000D01*
X9099762Y-13820000D02*
X9109286Y-13810476D01*
X9109286Y-13810476D02*
X9118810Y-13791428D01*
X9118810Y-13791428D02*
X9118810Y-13743809D01*
X9118810Y-13743809D02*
X9109286Y-13724762D01*
X9109286Y-13724762D02*
X9099762Y-13715238D01*
X9099762Y-13715238D02*
X9080715Y-13705714D01*
X9080715Y-13705714D02*
X9042619Y-13705714D01*
X9042619Y-13705714D02*
X9023572Y-13715238D01*
X9023572Y-13715238D02*
X9014048Y-13724762D01*
X9014048Y-13724762D02*
X9004524Y-13743809D01*
X9356905Y-13829524D02*
X9356905Y-13629524D01*
X9442619Y-13829524D02*
X9442619Y-13724762D01*
X9442619Y-13724762D02*
X9433096Y-13705714D01*
X9433096Y-13705714D02*
X9414048Y-13696190D01*
X9414048Y-13696190D02*
X9385477Y-13696190D01*
X9385477Y-13696190D02*
X9366429Y-13705714D01*
X9366429Y-13705714D02*
X9356905Y-13715238D01*
X9566429Y-13829524D02*
X9547381Y-13820000D01*
X9547381Y-13820000D02*
X9537858Y-13810476D01*
X9537858Y-13810476D02*
X9528334Y-13791428D01*
X9528334Y-13791428D02*
X9528334Y-13734286D01*
X9528334Y-13734286D02*
X9537858Y-13715238D01*
X9537858Y-13715238D02*
X9547381Y-13705714D01*
X9547381Y-13705714D02*
X9566429Y-13696190D01*
X9566429Y-13696190D02*
X9595000Y-13696190D01*
X9595000Y-13696190D02*
X9614048Y-13705714D01*
X9614048Y-13705714D02*
X9623572Y-13715238D01*
X9623572Y-13715238D02*
X9633096Y-13734286D01*
X9633096Y-13734286D02*
X9633096Y-13791428D01*
X9633096Y-13791428D02*
X9623572Y-13810476D01*
X9623572Y-13810476D02*
X9614048Y-13820000D01*
X9614048Y-13820000D02*
X9595000Y-13829524D01*
X9595000Y-13829524D02*
X9566429Y-13829524D01*
X9747381Y-13829524D02*
X9728334Y-13820000D01*
X9728334Y-13820000D02*
X9718810Y-13800952D01*
X9718810Y-13800952D02*
X9718810Y-13629524D01*
X9899762Y-13820000D02*
X9880715Y-13829524D01*
X9880715Y-13829524D02*
X9842619Y-13829524D01*
X9842619Y-13829524D02*
X9823572Y-13820000D01*
X9823572Y-13820000D02*
X9814048Y-13800952D01*
X9814048Y-13800952D02*
X9814048Y-13724762D01*
X9814048Y-13724762D02*
X9823572Y-13705714D01*
X9823572Y-13705714D02*
X9842619Y-13696190D01*
X9842619Y-13696190D02*
X9880715Y-13696190D01*
X9880715Y-13696190D02*
X9899762Y-13705714D01*
X9899762Y-13705714D02*
X9909286Y-13724762D01*
X9909286Y-13724762D02*
X9909286Y-13743809D01*
X9909286Y-13743809D02*
X9814048Y-13762857D01*
X9985477Y-13820000D02*
X10004524Y-13829524D01*
X10004524Y-13829524D02*
X10042619Y-13829524D01*
X10042619Y-13829524D02*
X10061667Y-13820000D01*
X10061667Y-13820000D02*
X10071191Y-13800952D01*
X10071191Y-13800952D02*
X10071191Y-13791428D01*
X10071191Y-13791428D02*
X10061667Y-13772381D01*
X10061667Y-13772381D02*
X10042619Y-13762857D01*
X10042619Y-13762857D02*
X10014048Y-13762857D01*
X10014048Y-13762857D02*
X9995000Y-13753333D01*
X9995000Y-13753333D02*
X9985477Y-13734286D01*
X9985477Y-13734286D02*
X9985477Y-13724762D01*
X9985477Y-13724762D02*
X9995000Y-13705714D01*
X9995000Y-13705714D02*
X10014048Y-13696190D01*
X10014048Y-13696190D02*
X10042619Y-13696190D01*
X10042619Y-13696190D02*
X10061667Y-13705714D01*
X10137858Y-13905714D02*
X10147381Y-13896190D01*
X10147381Y-13896190D02*
X10166429Y-13867619D01*
X10166429Y-13867619D02*
X10175953Y-13848571D01*
X10175953Y-13848571D02*
X10185477Y-13820000D01*
X10185477Y-13820000D02*
X10195000Y-13772381D01*
X10195000Y-13772381D02*
X10195000Y-13734286D01*
X10195000Y-13734286D02*
X10185477Y-13686667D01*
X10185477Y-13686667D02*
X10175953Y-13658095D01*
X10175953Y-13658095D02*
X10166429Y-13639048D01*
X10166429Y-13639048D02*
X10147381Y-13610476D01*
X10147381Y-13610476D02*
X10137858Y-13600952D01*
D15*
X4931500Y-14064500D02*
X4995000Y-14001000D01*
X4931500Y-13937500D01*
X4868000Y-14001000D01*
X4931500Y-14064500D01*
D11*
X5347381Y-14093524D02*
X5233095Y-14093524D01*
X5290238Y-14093524D02*
X5290238Y-13893524D01*
X5290238Y-13893524D02*
X5271190Y-13922095D01*
X5271190Y-13922095D02*
X5252143Y-13941143D01*
X5252143Y-13941143D02*
X5233095Y-13950667D01*
X5433095Y-14074476D02*
X5442619Y-14084000D01*
X5442619Y-14084000D02*
X5433095Y-14093524D01*
X5433095Y-14093524D02*
X5423571Y-14084000D01*
X5423571Y-14084000D02*
X5433095Y-14074476D01*
X5433095Y-14074476D02*
X5433095Y-14093524D01*
X5518810Y-13912571D02*
X5528333Y-13903048D01*
X5528333Y-13903048D02*
X5547381Y-13893524D01*
X5547381Y-13893524D02*
X5595000Y-13893524D01*
X5595000Y-13893524D02*
X5614048Y-13903048D01*
X5614048Y-13903048D02*
X5623571Y-13912571D01*
X5623571Y-13912571D02*
X5633095Y-13931619D01*
X5633095Y-13931619D02*
X5633095Y-13950667D01*
X5633095Y-13950667D02*
X5623571Y-13979238D01*
X5623571Y-13979238D02*
X5509286Y-14093524D01*
X5509286Y-14093524D02*
X5633095Y-14093524D01*
X5699762Y-13893524D02*
X5833095Y-13893524D01*
X5833095Y-13893524D02*
X5747381Y-14093524D01*
X5947381Y-13893524D02*
X5966429Y-13893524D01*
X5966429Y-13893524D02*
X5985476Y-13903048D01*
X5985476Y-13903048D02*
X5995000Y-13912571D01*
X5995000Y-13912571D02*
X6004524Y-13931619D01*
X6004524Y-13931619D02*
X6014048Y-13969714D01*
X6014048Y-13969714D02*
X6014048Y-14017333D01*
X6014048Y-14017333D02*
X6004524Y-14055428D01*
X6004524Y-14055428D02*
X5995000Y-14074476D01*
X5995000Y-14074476D02*
X5985476Y-14084000D01*
X5985476Y-14084000D02*
X5966429Y-14093524D01*
X5966429Y-14093524D02*
X5947381Y-14093524D01*
X5947381Y-14093524D02*
X5928333Y-14084000D01*
X5928333Y-14084000D02*
X5918809Y-14074476D01*
X5918809Y-14074476D02*
X5909286Y-14055428D01*
X5909286Y-14055428D02*
X5899762Y-14017333D01*
X5899762Y-14017333D02*
X5899762Y-13969714D01*
X5899762Y-13969714D02*
X5909286Y-13931619D01*
X5909286Y-13931619D02*
X5918809Y-13912571D01*
X5918809Y-13912571D02*
X5928333Y-13903048D01*
X5928333Y-13903048D02*
X5947381Y-13893524D01*
X6099762Y-14093524D02*
X6099762Y-13960190D01*
X6099762Y-13979238D02*
X6109286Y-13969714D01*
X6109286Y-13969714D02*
X6128333Y-13960190D01*
X6128333Y-13960190D02*
X6156905Y-13960190D01*
X6156905Y-13960190D02*
X6175952Y-13969714D01*
X6175952Y-13969714D02*
X6185476Y-13988762D01*
X6185476Y-13988762D02*
X6185476Y-14093524D01*
X6185476Y-13988762D02*
X6195000Y-13969714D01*
X6195000Y-13969714D02*
X6214048Y-13960190D01*
X6214048Y-13960190D02*
X6242619Y-13960190D01*
X6242619Y-13960190D02*
X6261667Y-13969714D01*
X6261667Y-13969714D02*
X6271190Y-13988762D01*
X6271190Y-13988762D02*
X6271190Y-14093524D01*
X6366429Y-14093524D02*
X6366429Y-13960190D01*
X6366429Y-13979238D02*
X6375952Y-13969714D01*
X6375952Y-13969714D02*
X6395000Y-13960190D01*
X6395000Y-13960190D02*
X6423571Y-13960190D01*
X6423571Y-13960190D02*
X6442619Y-13969714D01*
X6442619Y-13969714D02*
X6452143Y-13988762D01*
X6452143Y-13988762D02*
X6452143Y-14093524D01*
X6452143Y-13988762D02*
X6461667Y-13969714D01*
X6461667Y-13969714D02*
X6480714Y-13960190D01*
X6480714Y-13960190D02*
X6509286Y-13960190D01*
X6509286Y-13960190D02*
X6528333Y-13969714D01*
X6528333Y-13969714D02*
X6537857Y-13988762D01*
X6537857Y-13988762D02*
X6537857Y-14093524D01*
X6928333Y-13884000D02*
X6756905Y-14141143D01*
X7185476Y-13893524D02*
X7204524Y-13893524D01*
X7204524Y-13893524D02*
X7223572Y-13903048D01*
X7223572Y-13903048D02*
X7233095Y-13912571D01*
X7233095Y-13912571D02*
X7242619Y-13931619D01*
X7242619Y-13931619D02*
X7252143Y-13969714D01*
X7252143Y-13969714D02*
X7252143Y-14017333D01*
X7252143Y-14017333D02*
X7242619Y-14055428D01*
X7242619Y-14055428D02*
X7233095Y-14074476D01*
X7233095Y-14074476D02*
X7223572Y-14084000D01*
X7223572Y-14084000D02*
X7204524Y-14093524D01*
X7204524Y-14093524D02*
X7185476Y-14093524D01*
X7185476Y-14093524D02*
X7166429Y-14084000D01*
X7166429Y-14084000D02*
X7156905Y-14074476D01*
X7156905Y-14074476D02*
X7147381Y-14055428D01*
X7147381Y-14055428D02*
X7137857Y-14017333D01*
X7137857Y-14017333D02*
X7137857Y-13969714D01*
X7137857Y-13969714D02*
X7147381Y-13931619D01*
X7147381Y-13931619D02*
X7156905Y-13912571D01*
X7156905Y-13912571D02*
X7166429Y-13903048D01*
X7166429Y-13903048D02*
X7185476Y-13893524D01*
X7337857Y-14074476D02*
X7347381Y-14084000D01*
X7347381Y-14084000D02*
X7337857Y-14093524D01*
X7337857Y-14093524D02*
X7328333Y-14084000D01*
X7328333Y-14084000D02*
X7337857Y-14074476D01*
X7337857Y-14074476D02*
X7337857Y-14093524D01*
X7471191Y-13893524D02*
X7490238Y-13893524D01*
X7490238Y-13893524D02*
X7509286Y-13903048D01*
X7509286Y-13903048D02*
X7518810Y-13912571D01*
X7518810Y-13912571D02*
X7528333Y-13931619D01*
X7528333Y-13931619D02*
X7537857Y-13969714D01*
X7537857Y-13969714D02*
X7537857Y-14017333D01*
X7537857Y-14017333D02*
X7528333Y-14055428D01*
X7528333Y-14055428D02*
X7518810Y-14074476D01*
X7518810Y-14074476D02*
X7509286Y-14084000D01*
X7509286Y-14084000D02*
X7490238Y-14093524D01*
X7490238Y-14093524D02*
X7471191Y-14093524D01*
X7471191Y-14093524D02*
X7452143Y-14084000D01*
X7452143Y-14084000D02*
X7442619Y-14074476D01*
X7442619Y-14074476D02*
X7433095Y-14055428D01*
X7433095Y-14055428D02*
X7423572Y-14017333D01*
X7423572Y-14017333D02*
X7423572Y-13969714D01*
X7423572Y-13969714D02*
X7433095Y-13931619D01*
X7433095Y-13931619D02*
X7442619Y-13912571D01*
X7442619Y-13912571D02*
X7452143Y-13903048D01*
X7452143Y-13903048D02*
X7471191Y-13893524D01*
X7718810Y-13893524D02*
X7623572Y-13893524D01*
X7623572Y-13893524D02*
X7614048Y-13988762D01*
X7614048Y-13988762D02*
X7623572Y-13979238D01*
X7623572Y-13979238D02*
X7642619Y-13969714D01*
X7642619Y-13969714D02*
X7690238Y-13969714D01*
X7690238Y-13969714D02*
X7709286Y-13979238D01*
X7709286Y-13979238D02*
X7718810Y-13988762D01*
X7718810Y-13988762D02*
X7728333Y-14007809D01*
X7728333Y-14007809D02*
X7728333Y-14055428D01*
X7728333Y-14055428D02*
X7718810Y-14074476D01*
X7718810Y-14074476D02*
X7709286Y-14084000D01*
X7709286Y-14084000D02*
X7690238Y-14093524D01*
X7690238Y-14093524D02*
X7642619Y-14093524D01*
X7642619Y-14093524D02*
X7623572Y-14084000D01*
X7623572Y-14084000D02*
X7614048Y-14074476D01*
X7852143Y-13893524D02*
X7871191Y-13893524D01*
X7871191Y-13893524D02*
X7890238Y-13903048D01*
X7890238Y-13903048D02*
X7899762Y-13912571D01*
X7899762Y-13912571D02*
X7909286Y-13931619D01*
X7909286Y-13931619D02*
X7918810Y-13969714D01*
X7918810Y-13969714D02*
X7918810Y-14017333D01*
X7918810Y-14017333D02*
X7909286Y-14055428D01*
X7909286Y-14055428D02*
X7899762Y-14074476D01*
X7899762Y-14074476D02*
X7890238Y-14084000D01*
X7890238Y-14084000D02*
X7871191Y-14093524D01*
X7871191Y-14093524D02*
X7852143Y-14093524D01*
X7852143Y-14093524D02*
X7833095Y-14084000D01*
X7833095Y-14084000D02*
X7823572Y-14074476D01*
X7823572Y-14074476D02*
X7814048Y-14055428D01*
X7814048Y-14055428D02*
X7804524Y-14017333D01*
X7804524Y-14017333D02*
X7804524Y-13969714D01*
X7804524Y-13969714D02*
X7814048Y-13931619D01*
X7814048Y-13931619D02*
X7823572Y-13912571D01*
X7823572Y-13912571D02*
X7833095Y-13903048D01*
X7833095Y-13903048D02*
X7852143Y-13893524D01*
X8042619Y-13893524D02*
X8061667Y-13893524D01*
X8061667Y-13893524D02*
X8080714Y-13903048D01*
X8080714Y-13903048D02*
X8090238Y-13912571D01*
X8090238Y-13912571D02*
X8099762Y-13931619D01*
X8099762Y-13931619D02*
X8109286Y-13969714D01*
X8109286Y-13969714D02*
X8109286Y-14017333D01*
X8109286Y-14017333D02*
X8099762Y-14055428D01*
X8099762Y-14055428D02*
X8090238Y-14074476D01*
X8090238Y-14074476D02*
X8080714Y-14084000D01*
X8080714Y-14084000D02*
X8061667Y-14093524D01*
X8061667Y-14093524D02*
X8042619Y-14093524D01*
X8042619Y-14093524D02*
X8023572Y-14084000D01*
X8023572Y-14084000D02*
X8014048Y-14074476D01*
X8014048Y-14074476D02*
X8004524Y-14055428D01*
X8004524Y-14055428D02*
X7995000Y-14017333D01*
X7995000Y-14017333D02*
X7995000Y-13969714D01*
X7995000Y-13969714D02*
X8004524Y-13931619D01*
X8004524Y-13931619D02*
X8014048Y-13912571D01*
X8014048Y-13912571D02*
X8023572Y-13903048D01*
X8023572Y-13903048D02*
X8042619Y-13893524D01*
X8185476Y-13893524D02*
X8185476Y-13931619D01*
X8261667Y-13893524D02*
X8261667Y-13931619D01*
X8556905Y-14169714D02*
X8547381Y-14160190D01*
X8547381Y-14160190D02*
X8528334Y-14131619D01*
X8528334Y-14131619D02*
X8518810Y-14112571D01*
X8518810Y-14112571D02*
X8509286Y-14084000D01*
X8509286Y-14084000D02*
X8499762Y-14036381D01*
X8499762Y-14036381D02*
X8499762Y-13998286D01*
X8499762Y-13998286D02*
X8509286Y-13950667D01*
X8509286Y-13950667D02*
X8518810Y-13922095D01*
X8518810Y-13922095D02*
X8528334Y-13903048D01*
X8528334Y-13903048D02*
X8547381Y-13874476D01*
X8547381Y-13874476D02*
X8556905Y-13864952D01*
X8671191Y-13893524D02*
X8690238Y-13893524D01*
X8690238Y-13893524D02*
X8709286Y-13903048D01*
X8709286Y-13903048D02*
X8718810Y-13912571D01*
X8718810Y-13912571D02*
X8728334Y-13931619D01*
X8728334Y-13931619D02*
X8737857Y-13969714D01*
X8737857Y-13969714D02*
X8737857Y-14017333D01*
X8737857Y-14017333D02*
X8728334Y-14055428D01*
X8728334Y-14055428D02*
X8718810Y-14074476D01*
X8718810Y-14074476D02*
X8709286Y-14084000D01*
X8709286Y-14084000D02*
X8690238Y-14093524D01*
X8690238Y-14093524D02*
X8671191Y-14093524D01*
X8671191Y-14093524D02*
X8652143Y-14084000D01*
X8652143Y-14084000D02*
X8642619Y-14074476D01*
X8642619Y-14074476D02*
X8633096Y-14055428D01*
X8633096Y-14055428D02*
X8623572Y-14017333D01*
X8623572Y-14017333D02*
X8623572Y-13969714D01*
X8623572Y-13969714D02*
X8633096Y-13931619D01*
X8633096Y-13931619D02*
X8642619Y-13912571D01*
X8642619Y-13912571D02*
X8652143Y-13903048D01*
X8652143Y-13903048D02*
X8671191Y-13893524D01*
X8975953Y-14093524D02*
X8975953Y-13893524D01*
X9061667Y-14093524D02*
X9061667Y-13988762D01*
X9061667Y-13988762D02*
X9052143Y-13969714D01*
X9052143Y-13969714D02*
X9033096Y-13960190D01*
X9033096Y-13960190D02*
X9004524Y-13960190D01*
X9004524Y-13960190D02*
X8985477Y-13969714D01*
X8985477Y-13969714D02*
X8975953Y-13979238D01*
X9185477Y-14093524D02*
X9166429Y-14084000D01*
X9166429Y-14084000D02*
X9156905Y-14074476D01*
X9156905Y-14074476D02*
X9147381Y-14055428D01*
X9147381Y-14055428D02*
X9147381Y-13998286D01*
X9147381Y-13998286D02*
X9156905Y-13979238D01*
X9156905Y-13979238D02*
X9166429Y-13969714D01*
X9166429Y-13969714D02*
X9185477Y-13960190D01*
X9185477Y-13960190D02*
X9214048Y-13960190D01*
X9214048Y-13960190D02*
X9233096Y-13969714D01*
X9233096Y-13969714D02*
X9242619Y-13979238D01*
X9242619Y-13979238D02*
X9252143Y-13998286D01*
X9252143Y-13998286D02*
X9252143Y-14055428D01*
X9252143Y-14055428D02*
X9242619Y-14074476D01*
X9242619Y-14074476D02*
X9233096Y-14084000D01*
X9233096Y-14084000D02*
X9214048Y-14093524D01*
X9214048Y-14093524D02*
X9185477Y-14093524D01*
X9366429Y-14093524D02*
X9347381Y-14084000D01*
X9347381Y-14084000D02*
X9337858Y-14064952D01*
X9337858Y-14064952D02*
X9337858Y-13893524D01*
X9518810Y-14084000D02*
X9499762Y-14093524D01*
X9499762Y-14093524D02*
X9461667Y-14093524D01*
X9461667Y-14093524D02*
X9442619Y-14084000D01*
X9442619Y-14084000D02*
X9433096Y-14064952D01*
X9433096Y-14064952D02*
X9433096Y-13988762D01*
X9433096Y-13988762D02*
X9442619Y-13969714D01*
X9442619Y-13969714D02*
X9461667Y-13960190D01*
X9461667Y-13960190D02*
X9499762Y-13960190D01*
X9499762Y-13960190D02*
X9518810Y-13969714D01*
X9518810Y-13969714D02*
X9528334Y-13988762D01*
X9528334Y-13988762D02*
X9528334Y-14007809D01*
X9528334Y-14007809D02*
X9433096Y-14026857D01*
X9604524Y-14084000D02*
X9623572Y-14093524D01*
X9623572Y-14093524D02*
X9661667Y-14093524D01*
X9661667Y-14093524D02*
X9680715Y-14084000D01*
X9680715Y-14084000D02*
X9690239Y-14064952D01*
X9690239Y-14064952D02*
X9690239Y-14055428D01*
X9690239Y-14055428D02*
X9680715Y-14036381D01*
X9680715Y-14036381D02*
X9661667Y-14026857D01*
X9661667Y-14026857D02*
X9633096Y-14026857D01*
X9633096Y-14026857D02*
X9614048Y-14017333D01*
X9614048Y-14017333D02*
X9604524Y-13998286D01*
X9604524Y-13998286D02*
X9604524Y-13988762D01*
X9604524Y-13988762D02*
X9614048Y-13969714D01*
X9614048Y-13969714D02*
X9633096Y-13960190D01*
X9633096Y-13960190D02*
X9661667Y-13960190D01*
X9661667Y-13960190D02*
X9680715Y-13969714D01*
X9928334Y-14017333D02*
X10080715Y-14017333D01*
X10004524Y-14093524D02*
X10004524Y-13941143D01*
X10318810Y-13912571D02*
X10328334Y-13903048D01*
X10328334Y-13903048D02*
X10347381Y-13893524D01*
X10347381Y-13893524D02*
X10395001Y-13893524D01*
X10395001Y-13893524D02*
X10414048Y-13903048D01*
X10414048Y-13903048D02*
X10423572Y-13912571D01*
X10423572Y-13912571D02*
X10433096Y-13931619D01*
X10433096Y-13931619D02*
X10433096Y-13950667D01*
X10433096Y-13950667D02*
X10423572Y-13979238D01*
X10423572Y-13979238D02*
X10309286Y-14093524D01*
X10309286Y-14093524D02*
X10433096Y-14093524D01*
X10661667Y-14084000D02*
X10680715Y-14093524D01*
X10680715Y-14093524D02*
X10718810Y-14093524D01*
X10718810Y-14093524D02*
X10737858Y-14084000D01*
X10737858Y-14084000D02*
X10747382Y-14064952D01*
X10747382Y-14064952D02*
X10747382Y-14055428D01*
X10747382Y-14055428D02*
X10737858Y-14036381D01*
X10737858Y-14036381D02*
X10718810Y-14026857D01*
X10718810Y-14026857D02*
X10690239Y-14026857D01*
X10690239Y-14026857D02*
X10671191Y-14017333D01*
X10671191Y-14017333D02*
X10661667Y-13998286D01*
X10661667Y-13998286D02*
X10661667Y-13988762D01*
X10661667Y-13988762D02*
X10671191Y-13969714D01*
X10671191Y-13969714D02*
X10690239Y-13960190D01*
X10690239Y-13960190D02*
X10718810Y-13960190D01*
X10718810Y-13960190D02*
X10737858Y-13969714D01*
X10861667Y-14093524D02*
X10842620Y-14084000D01*
X10842620Y-14084000D02*
X10833096Y-14064952D01*
X10833096Y-14064952D02*
X10833096Y-13893524D01*
X10966429Y-14093524D02*
X10947382Y-14084000D01*
X10947382Y-14084000D02*
X10937858Y-14074476D01*
X10937858Y-14074476D02*
X10928334Y-14055428D01*
X10928334Y-14055428D02*
X10928334Y-13998286D01*
X10928334Y-13998286D02*
X10937858Y-13979238D01*
X10937858Y-13979238D02*
X10947382Y-13969714D01*
X10947382Y-13969714D02*
X10966429Y-13960190D01*
X10966429Y-13960190D02*
X10995001Y-13960190D01*
X10995001Y-13960190D02*
X11014048Y-13969714D01*
X11014048Y-13969714D02*
X11023572Y-13979238D01*
X11023572Y-13979238D02*
X11033096Y-13998286D01*
X11033096Y-13998286D02*
X11033096Y-14055428D01*
X11033096Y-14055428D02*
X11023572Y-14074476D01*
X11023572Y-14074476D02*
X11014048Y-14084000D01*
X11014048Y-14084000D02*
X10995001Y-14093524D01*
X10995001Y-14093524D02*
X10966429Y-14093524D01*
X11090239Y-13960190D02*
X11166429Y-13960190D01*
X11118810Y-13893524D02*
X11118810Y-14064952D01*
X11118810Y-14064952D02*
X11128334Y-14084000D01*
X11128334Y-14084000D02*
X11147382Y-14093524D01*
X11147382Y-14093524D02*
X11166429Y-14093524D01*
X11223572Y-14084000D02*
X11242620Y-14093524D01*
X11242620Y-14093524D02*
X11280715Y-14093524D01*
X11280715Y-14093524D02*
X11299762Y-14084000D01*
X11299762Y-14084000D02*
X11309286Y-14064952D01*
X11309286Y-14064952D02*
X11309286Y-14055428D01*
X11309286Y-14055428D02*
X11299762Y-14036381D01*
X11299762Y-14036381D02*
X11280715Y-14026857D01*
X11280715Y-14026857D02*
X11252143Y-14026857D01*
X11252143Y-14026857D02*
X11233096Y-14017333D01*
X11233096Y-14017333D02*
X11223572Y-13998286D01*
X11223572Y-13998286D02*
X11223572Y-13988762D01*
X11223572Y-13988762D02*
X11233096Y-13969714D01*
X11233096Y-13969714D02*
X11252143Y-13960190D01*
X11252143Y-13960190D02*
X11280715Y-13960190D01*
X11280715Y-13960190D02*
X11299762Y-13969714D01*
X11375953Y-14169714D02*
X11385477Y-14160190D01*
X11385477Y-14160190D02*
X11404524Y-14131619D01*
X11404524Y-14131619D02*
X11414048Y-14112571D01*
X11414048Y-14112571D02*
X11423572Y-14084000D01*
X11423572Y-14084000D02*
X11433096Y-14036381D01*
X11433096Y-14036381D02*
X11433096Y-13998286D01*
X11433096Y-13998286D02*
X11423572Y-13950667D01*
X11423572Y-13950667D02*
X11414048Y-13922095D01*
X11414048Y-13922095D02*
X11404524Y-13903048D01*
X11404524Y-13903048D02*
X11385477Y-13874476D01*
X11385477Y-13874476D02*
X11375953Y-13864952D01*
X4795000Y-14165000D02*
X4995000Y-14365000D01*
X4995000Y-14165000D02*
X4795000Y-14365000D01*
X4995000Y-14265000D02*
G75*
G03*
X4995000Y-14265000I-100000J0D01*
G01*
X5233095Y-14176571D02*
X5242619Y-14167048D01*
X5242619Y-14167048D02*
X5261667Y-14157524D01*
X5261667Y-14157524D02*
X5309286Y-14157524D01*
X5309286Y-14157524D02*
X5328333Y-14167048D01*
X5328333Y-14167048D02*
X5337857Y-14176571D01*
X5337857Y-14176571D02*
X5347381Y-14195619D01*
X5347381Y-14195619D02*
X5347381Y-14214667D01*
X5347381Y-14214667D02*
X5337857Y-14243238D01*
X5337857Y-14243238D02*
X5223571Y-14357524D01*
X5223571Y-14357524D02*
X5347381Y-14357524D01*
X5433095Y-14338476D02*
X5442619Y-14348000D01*
X5442619Y-14348000D02*
X5433095Y-14357524D01*
X5433095Y-14357524D02*
X5423571Y-14348000D01*
X5423571Y-14348000D02*
X5433095Y-14338476D01*
X5433095Y-14338476D02*
X5433095Y-14357524D01*
X5509286Y-14157524D02*
X5642619Y-14157524D01*
X5642619Y-14157524D02*
X5556905Y-14357524D01*
X5756905Y-14157524D02*
X5775952Y-14157524D01*
X5775952Y-14157524D02*
X5795000Y-14167048D01*
X5795000Y-14167048D02*
X5804524Y-14176571D01*
X5804524Y-14176571D02*
X5814048Y-14195619D01*
X5814048Y-14195619D02*
X5823571Y-14233714D01*
X5823571Y-14233714D02*
X5823571Y-14281333D01*
X5823571Y-14281333D02*
X5814048Y-14319428D01*
X5814048Y-14319428D02*
X5804524Y-14338476D01*
X5804524Y-14338476D02*
X5795000Y-14348000D01*
X5795000Y-14348000D02*
X5775952Y-14357524D01*
X5775952Y-14357524D02*
X5756905Y-14357524D01*
X5756905Y-14357524D02*
X5737857Y-14348000D01*
X5737857Y-14348000D02*
X5728333Y-14338476D01*
X5728333Y-14338476D02*
X5718809Y-14319428D01*
X5718809Y-14319428D02*
X5709286Y-14281333D01*
X5709286Y-14281333D02*
X5709286Y-14233714D01*
X5709286Y-14233714D02*
X5718809Y-14195619D01*
X5718809Y-14195619D02*
X5728333Y-14176571D01*
X5728333Y-14176571D02*
X5737857Y-14167048D01*
X5737857Y-14167048D02*
X5756905Y-14157524D01*
X5947381Y-14157524D02*
X5966429Y-14157524D01*
X5966429Y-14157524D02*
X5985476Y-14167048D01*
X5985476Y-14167048D02*
X5995000Y-14176571D01*
X5995000Y-14176571D02*
X6004524Y-14195619D01*
X6004524Y-14195619D02*
X6014048Y-14233714D01*
X6014048Y-14233714D02*
X6014048Y-14281333D01*
X6014048Y-14281333D02*
X6004524Y-14319428D01*
X6004524Y-14319428D02*
X5995000Y-14338476D01*
X5995000Y-14338476D02*
X5985476Y-14348000D01*
X5985476Y-14348000D02*
X5966429Y-14357524D01*
X5966429Y-14357524D02*
X5947381Y-14357524D01*
X5947381Y-14357524D02*
X5928333Y-14348000D01*
X5928333Y-14348000D02*
X5918809Y-14338476D01*
X5918809Y-14338476D02*
X5909286Y-14319428D01*
X5909286Y-14319428D02*
X5899762Y-14281333D01*
X5899762Y-14281333D02*
X5899762Y-14233714D01*
X5899762Y-14233714D02*
X5909286Y-14195619D01*
X5909286Y-14195619D02*
X5918809Y-14176571D01*
X5918809Y-14176571D02*
X5928333Y-14167048D01*
X5928333Y-14167048D02*
X5947381Y-14157524D01*
X6099762Y-14357524D02*
X6099762Y-14224190D01*
X6099762Y-14243238D02*
X6109286Y-14233714D01*
X6109286Y-14233714D02*
X6128333Y-14224190D01*
X6128333Y-14224190D02*
X6156905Y-14224190D01*
X6156905Y-14224190D02*
X6175952Y-14233714D01*
X6175952Y-14233714D02*
X6185476Y-14252762D01*
X6185476Y-14252762D02*
X6185476Y-14357524D01*
X6185476Y-14252762D02*
X6195000Y-14233714D01*
X6195000Y-14233714D02*
X6214048Y-14224190D01*
X6214048Y-14224190D02*
X6242619Y-14224190D01*
X6242619Y-14224190D02*
X6261667Y-14233714D01*
X6261667Y-14233714D02*
X6271190Y-14252762D01*
X6271190Y-14252762D02*
X6271190Y-14357524D01*
X6366429Y-14357524D02*
X6366429Y-14224190D01*
X6366429Y-14243238D02*
X6375952Y-14233714D01*
X6375952Y-14233714D02*
X6395000Y-14224190D01*
X6395000Y-14224190D02*
X6423571Y-14224190D01*
X6423571Y-14224190D02*
X6442619Y-14233714D01*
X6442619Y-14233714D02*
X6452143Y-14252762D01*
X6452143Y-14252762D02*
X6452143Y-14357524D01*
X6452143Y-14252762D02*
X6461667Y-14233714D01*
X6461667Y-14233714D02*
X6480714Y-14224190D01*
X6480714Y-14224190D02*
X6509286Y-14224190D01*
X6509286Y-14224190D02*
X6528333Y-14233714D01*
X6528333Y-14233714D02*
X6537857Y-14252762D01*
X6537857Y-14252762D02*
X6537857Y-14357524D01*
X6928333Y-14148000D02*
X6756905Y-14405143D01*
X7185476Y-14157524D02*
X7204524Y-14157524D01*
X7204524Y-14157524D02*
X7223572Y-14167048D01*
X7223572Y-14167048D02*
X7233095Y-14176571D01*
X7233095Y-14176571D02*
X7242619Y-14195619D01*
X7242619Y-14195619D02*
X7252143Y-14233714D01*
X7252143Y-14233714D02*
X7252143Y-14281333D01*
X7252143Y-14281333D02*
X7242619Y-14319428D01*
X7242619Y-14319428D02*
X7233095Y-14338476D01*
X7233095Y-14338476D02*
X7223572Y-14348000D01*
X7223572Y-14348000D02*
X7204524Y-14357524D01*
X7204524Y-14357524D02*
X7185476Y-14357524D01*
X7185476Y-14357524D02*
X7166429Y-14348000D01*
X7166429Y-14348000D02*
X7156905Y-14338476D01*
X7156905Y-14338476D02*
X7147381Y-14319428D01*
X7147381Y-14319428D02*
X7137857Y-14281333D01*
X7137857Y-14281333D02*
X7137857Y-14233714D01*
X7137857Y-14233714D02*
X7147381Y-14195619D01*
X7147381Y-14195619D02*
X7156905Y-14176571D01*
X7156905Y-14176571D02*
X7166429Y-14167048D01*
X7166429Y-14167048D02*
X7185476Y-14157524D01*
X7337857Y-14338476D02*
X7347381Y-14348000D01*
X7347381Y-14348000D02*
X7337857Y-14357524D01*
X7337857Y-14357524D02*
X7328333Y-14348000D01*
X7328333Y-14348000D02*
X7337857Y-14338476D01*
X7337857Y-14338476D02*
X7337857Y-14357524D01*
X7537857Y-14357524D02*
X7423572Y-14357524D01*
X7480714Y-14357524D02*
X7480714Y-14157524D01*
X7480714Y-14157524D02*
X7461667Y-14186095D01*
X7461667Y-14186095D02*
X7442619Y-14205143D01*
X7442619Y-14205143D02*
X7423572Y-14214667D01*
X7661667Y-14157524D02*
X7680714Y-14157524D01*
X7680714Y-14157524D02*
X7699762Y-14167048D01*
X7699762Y-14167048D02*
X7709286Y-14176571D01*
X7709286Y-14176571D02*
X7718810Y-14195619D01*
X7718810Y-14195619D02*
X7728333Y-14233714D01*
X7728333Y-14233714D02*
X7728333Y-14281333D01*
X7728333Y-14281333D02*
X7718810Y-14319428D01*
X7718810Y-14319428D02*
X7709286Y-14338476D01*
X7709286Y-14338476D02*
X7699762Y-14348000D01*
X7699762Y-14348000D02*
X7680714Y-14357524D01*
X7680714Y-14357524D02*
X7661667Y-14357524D01*
X7661667Y-14357524D02*
X7642619Y-14348000D01*
X7642619Y-14348000D02*
X7633095Y-14338476D01*
X7633095Y-14338476D02*
X7623572Y-14319428D01*
X7623572Y-14319428D02*
X7614048Y-14281333D01*
X7614048Y-14281333D02*
X7614048Y-14233714D01*
X7614048Y-14233714D02*
X7623572Y-14195619D01*
X7623572Y-14195619D02*
X7633095Y-14176571D01*
X7633095Y-14176571D02*
X7642619Y-14167048D01*
X7642619Y-14167048D02*
X7661667Y-14157524D01*
X7899762Y-14157524D02*
X7861667Y-14157524D01*
X7861667Y-14157524D02*
X7842619Y-14167048D01*
X7842619Y-14167048D02*
X7833095Y-14176571D01*
X7833095Y-14176571D02*
X7814048Y-14205143D01*
X7814048Y-14205143D02*
X7804524Y-14243238D01*
X7804524Y-14243238D02*
X7804524Y-14319428D01*
X7804524Y-14319428D02*
X7814048Y-14338476D01*
X7814048Y-14338476D02*
X7823572Y-14348000D01*
X7823572Y-14348000D02*
X7842619Y-14357524D01*
X7842619Y-14357524D02*
X7880714Y-14357524D01*
X7880714Y-14357524D02*
X7899762Y-14348000D01*
X7899762Y-14348000D02*
X7909286Y-14338476D01*
X7909286Y-14338476D02*
X7918810Y-14319428D01*
X7918810Y-14319428D02*
X7918810Y-14271809D01*
X7918810Y-14271809D02*
X7909286Y-14252762D01*
X7909286Y-14252762D02*
X7899762Y-14243238D01*
X7899762Y-14243238D02*
X7880714Y-14233714D01*
X7880714Y-14233714D02*
X7842619Y-14233714D01*
X7842619Y-14233714D02*
X7823572Y-14243238D01*
X7823572Y-14243238D02*
X7814048Y-14252762D01*
X7814048Y-14252762D02*
X7804524Y-14271809D01*
X7985476Y-14157524D02*
X8109286Y-14157524D01*
X8109286Y-14157524D02*
X8042619Y-14233714D01*
X8042619Y-14233714D02*
X8071191Y-14233714D01*
X8071191Y-14233714D02*
X8090238Y-14243238D01*
X8090238Y-14243238D02*
X8099762Y-14252762D01*
X8099762Y-14252762D02*
X8109286Y-14271809D01*
X8109286Y-14271809D02*
X8109286Y-14319428D01*
X8109286Y-14319428D02*
X8099762Y-14338476D01*
X8099762Y-14338476D02*
X8090238Y-14348000D01*
X8090238Y-14348000D02*
X8071191Y-14357524D01*
X8071191Y-14357524D02*
X8014048Y-14357524D01*
X8014048Y-14357524D02*
X7995000Y-14348000D01*
X7995000Y-14348000D02*
X7985476Y-14338476D01*
X8185476Y-14157524D02*
X8185476Y-14195619D01*
X8261667Y-14157524D02*
X8261667Y-14195619D01*
X8556905Y-14433714D02*
X8547381Y-14424190D01*
X8547381Y-14424190D02*
X8528334Y-14395619D01*
X8528334Y-14395619D02*
X8518810Y-14376571D01*
X8518810Y-14376571D02*
X8509286Y-14348000D01*
X8509286Y-14348000D02*
X8499762Y-14300381D01*
X8499762Y-14300381D02*
X8499762Y-14262286D01*
X8499762Y-14262286D02*
X8509286Y-14214667D01*
X8509286Y-14214667D02*
X8518810Y-14186095D01*
X8518810Y-14186095D02*
X8528334Y-14167048D01*
X8528334Y-14167048D02*
X8547381Y-14138476D01*
X8547381Y-14138476D02*
X8556905Y-14128952D01*
X8718810Y-14224190D02*
X8718810Y-14357524D01*
X8671191Y-14148000D02*
X8623572Y-14290857D01*
X8623572Y-14290857D02*
X8747381Y-14290857D01*
X8975953Y-14357524D02*
X8975953Y-14157524D01*
X9061667Y-14357524D02*
X9061667Y-14252762D01*
X9061667Y-14252762D02*
X9052143Y-14233714D01*
X9052143Y-14233714D02*
X9033096Y-14224190D01*
X9033096Y-14224190D02*
X9004524Y-14224190D01*
X9004524Y-14224190D02*
X8985477Y-14233714D01*
X8985477Y-14233714D02*
X8975953Y-14243238D01*
X9185477Y-14357524D02*
X9166429Y-14348000D01*
X9166429Y-14348000D02*
X9156905Y-14338476D01*
X9156905Y-14338476D02*
X9147381Y-14319428D01*
X9147381Y-14319428D02*
X9147381Y-14262286D01*
X9147381Y-14262286D02*
X9156905Y-14243238D01*
X9156905Y-14243238D02*
X9166429Y-14233714D01*
X9166429Y-14233714D02*
X9185477Y-14224190D01*
X9185477Y-14224190D02*
X9214048Y-14224190D01*
X9214048Y-14224190D02*
X9233096Y-14233714D01*
X9233096Y-14233714D02*
X9242619Y-14243238D01*
X9242619Y-14243238D02*
X9252143Y-14262286D01*
X9252143Y-14262286D02*
X9252143Y-14319428D01*
X9252143Y-14319428D02*
X9242619Y-14338476D01*
X9242619Y-14338476D02*
X9233096Y-14348000D01*
X9233096Y-14348000D02*
X9214048Y-14357524D01*
X9214048Y-14357524D02*
X9185477Y-14357524D01*
X9366429Y-14357524D02*
X9347381Y-14348000D01*
X9347381Y-14348000D02*
X9337858Y-14328952D01*
X9337858Y-14328952D02*
X9337858Y-14157524D01*
X9518810Y-14348000D02*
X9499762Y-14357524D01*
X9499762Y-14357524D02*
X9461667Y-14357524D01*
X9461667Y-14357524D02*
X9442619Y-14348000D01*
X9442619Y-14348000D02*
X9433096Y-14328952D01*
X9433096Y-14328952D02*
X9433096Y-14252762D01*
X9433096Y-14252762D02*
X9442619Y-14233714D01*
X9442619Y-14233714D02*
X9461667Y-14224190D01*
X9461667Y-14224190D02*
X9499762Y-14224190D01*
X9499762Y-14224190D02*
X9518810Y-14233714D01*
X9518810Y-14233714D02*
X9528334Y-14252762D01*
X9528334Y-14252762D02*
X9528334Y-14271809D01*
X9528334Y-14271809D02*
X9433096Y-14290857D01*
X9604524Y-14348000D02*
X9623572Y-14357524D01*
X9623572Y-14357524D02*
X9661667Y-14357524D01*
X9661667Y-14357524D02*
X9680715Y-14348000D01*
X9680715Y-14348000D02*
X9690239Y-14328952D01*
X9690239Y-14328952D02*
X9690239Y-14319428D01*
X9690239Y-14319428D02*
X9680715Y-14300381D01*
X9680715Y-14300381D02*
X9661667Y-14290857D01*
X9661667Y-14290857D02*
X9633096Y-14290857D01*
X9633096Y-14290857D02*
X9614048Y-14281333D01*
X9614048Y-14281333D02*
X9604524Y-14262286D01*
X9604524Y-14262286D02*
X9604524Y-14252762D01*
X9604524Y-14252762D02*
X9614048Y-14233714D01*
X9614048Y-14233714D02*
X9633096Y-14224190D01*
X9633096Y-14224190D02*
X9661667Y-14224190D01*
X9661667Y-14224190D02*
X9680715Y-14233714D01*
X9756905Y-14433714D02*
X9766429Y-14424190D01*
X9766429Y-14424190D02*
X9785477Y-14395619D01*
X9785477Y-14395619D02*
X9795000Y-14376571D01*
X9795000Y-14376571D02*
X9804524Y-14348000D01*
X9804524Y-14348000D02*
X9814048Y-14300381D01*
X9814048Y-14300381D02*
X9814048Y-14262286D01*
X9814048Y-14262286D02*
X9804524Y-14214667D01*
X9804524Y-14214667D02*
X9795000Y-14186095D01*
X9795000Y-14186095D02*
X9785477Y-14167048D01*
X9785477Y-14167048D02*
X9766429Y-14138476D01*
X9766429Y-14138476D02*
X9756905Y-14128952D01*
M02*
