%TF.GenerationSoftware,KiCad,Pcbnew,7.0.1*%
%TF.CreationDate,2023-08-16T19:58:43-04:00*%
%TF.ProjectId,DaughterBoard_UTAP,44617567-6874-4657-9242-6f6172645f55,rev?*%
%TF.SameCoordinates,Original*%
%TF.FileFunction,Paste,Top*%
%TF.FilePolarity,Positive*%
%FSLAX46Y46*%
G04 Gerber Fmt 4.6, Leading zero omitted, Abs format (unit mm)*
G04 Created by KiCad (PCBNEW 7.0.1) date 2023-08-16 19:58:43*
%MOMM*%
%LPD*%
G01*
G04 APERTURE LIST*
G04 Aperture macros list*
%AMRoundRect*
0 Rectangle with rounded corners*
0 $1 Rounding radius*
0 $2 $3 $4 $5 $6 $7 $8 $9 X,Y pos of 4 corners*
0 Add a 4 corners polygon primitive as box body*
4,1,4,$2,$3,$4,$5,$6,$7,$8,$9,$2,$3,0*
0 Add four circle primitives for the rounded corners*
1,1,$1+$1,$2,$3*
1,1,$1+$1,$4,$5*
1,1,$1+$1,$6,$7*
1,1,$1+$1,$8,$9*
0 Add four rect primitives between the rounded corners*
20,1,$1+$1,$2,$3,$4,$5,0*
20,1,$1+$1,$4,$5,$6,$7,0*
20,1,$1+$1,$6,$7,$8,$9,0*
20,1,$1+$1,$8,$9,$2,$3,0*%
G04 Aperture macros list end*
%ADD10RoundRect,0.250000X-0.400000X-0.625000X0.400000X-0.625000X0.400000X0.625000X-0.400000X0.625000X0*%
%ADD11RoundRect,0.250000X0.400000X0.625000X-0.400000X0.625000X-0.400000X-0.625000X0.400000X-0.625000X0*%
%ADD12R,0.800000X0.950000*%
%ADD13R,1.400000X2.200000*%
%ADD14RoundRect,0.155000X0.212500X0.155000X-0.212500X0.155000X-0.212500X-0.155000X0.212500X-0.155000X0*%
%ADD15RoundRect,0.250000X-0.625000X0.400000X-0.625000X-0.400000X0.625000X-0.400000X0.625000X0.400000X0*%
%ADD16R,1.400000X0.300000*%
%ADD17RoundRect,0.250000X0.625000X-0.400000X0.625000X0.400000X-0.625000X0.400000X-0.625000X-0.400000X0*%
%ADD18R,3.810000X2.080000*%
%ADD19R,8.890000X11.430000*%
G04 APERTURE END LIST*
D10*
%TO.C,R16*%
X85700000Y-105750000D03*
X88800000Y-105750000D03*
%TD*%
%TO.C,R15*%
X101200000Y-106000000D03*
X104300000Y-106000000D03*
%TD*%
%TO.C,R14*%
X55700000Y-105750000D03*
X58800000Y-105750000D03*
%TD*%
%TO.C,R13*%
X69950000Y-105750000D03*
X73050000Y-105750000D03*
%TD*%
%TO.C,R12*%
X119300000Y-105750000D03*
X116200000Y-105750000D03*
%TD*%
%TO.C,R6*%
X73000000Y-76500000D03*
X76100000Y-76500000D03*
%TD*%
D11*
%TO.C,R9*%
X63800000Y-105750000D03*
X60700000Y-105750000D03*
%TD*%
D12*
%TO.C,LED1*%
X60800000Y-115825000D03*
X62500000Y-115825000D03*
%TD*%
D13*
%TO.C,TP4*%
X157000000Y-61750000D03*
%TD*%
D11*
%TO.C,R7*%
X93800000Y-105750000D03*
X90700000Y-105750000D03*
%TD*%
%TO.C,R10*%
X78050000Y-105750000D03*
X74950000Y-105750000D03*
%TD*%
%TO.C,R2*%
X76100000Y-73500000D03*
X73000000Y-73500000D03*
%TD*%
D13*
%TO.C,TP6*%
X144250000Y-64500000D03*
%TD*%
D14*
%TO.C,C2*%
X64117500Y-75275000D03*
X62982500Y-75275000D03*
%TD*%
D13*
%TO.C,GND*%
X117000000Y-76500000D03*
%TD*%
%TO.C,TP8*%
X108500000Y-120500000D03*
%TD*%
D15*
%TO.C,R3*%
X78550000Y-78725000D03*
X78550000Y-81825000D03*
%TD*%
D11*
%TO.C,R8*%
X109300000Y-106000000D03*
X106200000Y-106000000D03*
%TD*%
D16*
%TO.C,IC1*%
X61350000Y-76775000D03*
X61350000Y-77275000D03*
X61350000Y-77775000D03*
X61350000Y-78275000D03*
X61350000Y-78775000D03*
X65750000Y-78775000D03*
X65750000Y-78275000D03*
X65750000Y-77775000D03*
X65750000Y-77275000D03*
X65750000Y-76775000D03*
%TD*%
D13*
%TO.C,TP9*%
X116750000Y-87500000D03*
%TD*%
D11*
%TO.C,R1*%
X76100000Y-81775000D03*
X73000000Y-81775000D03*
%TD*%
D13*
%TO.C,TP10*%
X121500000Y-76500000D03*
%TD*%
%TO.C,TP1*%
X96500000Y-120500000D03*
%TD*%
D17*
%TO.C,R4*%
X78550000Y-76550000D03*
X78550000Y-73450000D03*
%TD*%
D12*
%TO.C,LED2*%
X60800000Y-119500000D03*
X62500000Y-119500000D03*
%TD*%
D18*
%TO.C,Q1*%
X147485000Y-99790000D03*
D19*
X136055000Y-97250000D03*
D18*
X147485000Y-94710000D03*
%TD*%
D13*
%TO.C,TP2*%
X100500000Y-120500000D03*
%TD*%
%TO.C,TP7*%
X104500000Y-120500000D03*
%TD*%
D10*
%TO.C,R5*%
X73000000Y-78775000D03*
X76100000Y-78775000D03*
%TD*%
D13*
%TO.C,TP5*%
X148250000Y-64500000D03*
%TD*%
D11*
%TO.C,R11*%
X124300000Y-105750000D03*
X121200000Y-105750000D03*
%TD*%
D13*
%TO.C,TP3*%
X161500000Y-61750000D03*
%TD*%
M02*
