%TF.GenerationSoftware,KiCad,Pcbnew,7.0.1*%
%TF.CreationDate,2023-08-16T19:58:43-04:00*%
%TF.ProjectId,DaughterBoard_UTAP,44617567-6874-4657-9242-6f6172645f55,rev?*%
%TF.SameCoordinates,Original*%
%TF.FileFunction,Legend,Bot*%
%TF.FilePolarity,Positive*%
%FSLAX46Y46*%
G04 Gerber Fmt 4.6, Leading zero omitted, Abs format (unit mm)*
G04 Created by KiCad (PCBNEW 7.0.1) date 2023-08-16 19:58:43*
%MOMM*%
%LPD*%
G01*
G04 APERTURE LIST*
%ADD10C,0.150000*%
%ADD11C,0.120000*%
%ADD12C,3.650000*%
G04 APERTURE END LIST*
D10*
X109559523Y-64222857D02*
X109511904Y-64175238D01*
X109511904Y-64175238D02*
X109416666Y-64127619D01*
X109416666Y-64127619D02*
X109178571Y-64127619D01*
X109178571Y-64127619D02*
X109083333Y-64175238D01*
X109083333Y-64175238D02*
X109035714Y-64222857D01*
X109035714Y-64222857D02*
X108988095Y-64318095D01*
X108988095Y-64318095D02*
X108988095Y-64413333D01*
X108988095Y-64413333D02*
X109035714Y-64556190D01*
X109035714Y-64556190D02*
X109607142Y-65127619D01*
X109607142Y-65127619D02*
X108988095Y-65127619D01*
X108654761Y-65127619D02*
X108130952Y-64460952D01*
X108654761Y-64460952D02*
X108130952Y-65127619D01*
X107797618Y-64222857D02*
X107749999Y-64175238D01*
X107749999Y-64175238D02*
X107654761Y-64127619D01*
X107654761Y-64127619D02*
X107416666Y-64127619D01*
X107416666Y-64127619D02*
X107321428Y-64175238D01*
X107321428Y-64175238D02*
X107273809Y-64222857D01*
X107273809Y-64222857D02*
X107226190Y-64318095D01*
X107226190Y-64318095D02*
X107226190Y-64413333D01*
X107226190Y-64413333D02*
X107273809Y-64556190D01*
X107273809Y-64556190D02*
X107845237Y-65127619D01*
X107845237Y-65127619D02*
X107226190Y-65127619D01*
X106607142Y-64127619D02*
X106511904Y-64127619D01*
X106511904Y-64127619D02*
X106416666Y-64175238D01*
X106416666Y-64175238D02*
X106369047Y-64222857D01*
X106369047Y-64222857D02*
X106321428Y-64318095D01*
X106321428Y-64318095D02*
X106273809Y-64508571D01*
X106273809Y-64508571D02*
X106273809Y-64746666D01*
X106273809Y-64746666D02*
X106321428Y-64937142D01*
X106321428Y-64937142D02*
X106369047Y-65032380D01*
X106369047Y-65032380D02*
X106416666Y-65080000D01*
X106416666Y-65080000D02*
X106511904Y-65127619D01*
X106511904Y-65127619D02*
X106607142Y-65127619D01*
X106607142Y-65127619D02*
X106702380Y-65080000D01*
X106702380Y-65080000D02*
X106749999Y-65032380D01*
X106749999Y-65032380D02*
X106797618Y-64937142D01*
X106797618Y-64937142D02*
X106845237Y-64746666D01*
X106845237Y-64746666D02*
X106845237Y-64508571D01*
X106845237Y-64508571D02*
X106797618Y-64318095D01*
X106797618Y-64318095D02*
X106749999Y-64222857D01*
X106749999Y-64222857D02*
X106702380Y-64175238D01*
X106702380Y-64175238D02*
X106607142Y-64127619D01*
X105083332Y-65127619D02*
X105083332Y-64127619D01*
X105083332Y-64603809D02*
X104511904Y-64603809D01*
X104511904Y-65127619D02*
X104511904Y-64127619D01*
X104035713Y-64603809D02*
X103702380Y-64603809D01*
X103559523Y-65127619D02*
X104035713Y-65127619D01*
X104035713Y-65127619D02*
X104035713Y-64127619D01*
X104035713Y-64127619D02*
X103559523Y-64127619D01*
X103178570Y-64841904D02*
X102702380Y-64841904D01*
X103273808Y-65127619D02*
X102940475Y-64127619D01*
X102940475Y-64127619D02*
X102607142Y-65127619D01*
X102273808Y-65127619D02*
X102273808Y-64127619D01*
X102273808Y-64127619D02*
X102035713Y-64127619D01*
X102035713Y-64127619D02*
X101892856Y-64175238D01*
X101892856Y-64175238D02*
X101797618Y-64270476D01*
X101797618Y-64270476D02*
X101749999Y-64365714D01*
X101749999Y-64365714D02*
X101702380Y-64556190D01*
X101702380Y-64556190D02*
X101702380Y-64699047D01*
X101702380Y-64699047D02*
X101749999Y-64889523D01*
X101749999Y-64889523D02*
X101797618Y-64984761D01*
X101797618Y-64984761D02*
X101892856Y-65080000D01*
X101892856Y-65080000D02*
X102035713Y-65127619D01*
X102035713Y-65127619D02*
X102273808Y-65127619D01*
X101273808Y-64603809D02*
X100940475Y-64603809D01*
X100797618Y-65127619D02*
X101273808Y-65127619D01*
X101273808Y-65127619D02*
X101273808Y-64127619D01*
X101273808Y-64127619D02*
X100797618Y-64127619D01*
X99797618Y-65127619D02*
X100130951Y-64651428D01*
X100369046Y-65127619D02*
X100369046Y-64127619D01*
X100369046Y-64127619D02*
X99988094Y-64127619D01*
X99988094Y-64127619D02*
X99892856Y-64175238D01*
X99892856Y-64175238D02*
X99845237Y-64222857D01*
X99845237Y-64222857D02*
X99797618Y-64318095D01*
X99797618Y-64318095D02*
X99797618Y-64460952D01*
X99797618Y-64460952D02*
X99845237Y-64556190D01*
X99845237Y-64556190D02*
X99892856Y-64603809D01*
X99892856Y-64603809D02*
X99988094Y-64651428D01*
X99988094Y-64651428D02*
X100369046Y-64651428D01*
X98607141Y-65127619D02*
X98607141Y-64127619D01*
X98607141Y-64127619D02*
X98273808Y-64841904D01*
X98273808Y-64841904D02*
X97940475Y-64127619D01*
X97940475Y-64127619D02*
X97940475Y-65127619D01*
X97273808Y-64127619D02*
X97083332Y-64127619D01*
X97083332Y-64127619D02*
X96988094Y-64175238D01*
X96988094Y-64175238D02*
X96892856Y-64270476D01*
X96892856Y-64270476D02*
X96845237Y-64460952D01*
X96845237Y-64460952D02*
X96845237Y-64794285D01*
X96845237Y-64794285D02*
X96892856Y-64984761D01*
X96892856Y-64984761D02*
X96988094Y-65080000D01*
X96988094Y-65080000D02*
X97083332Y-65127619D01*
X97083332Y-65127619D02*
X97273808Y-65127619D01*
X97273808Y-65127619D02*
X97369046Y-65080000D01*
X97369046Y-65080000D02*
X97464284Y-64984761D01*
X97464284Y-64984761D02*
X97511903Y-64794285D01*
X97511903Y-64794285D02*
X97511903Y-64460952D01*
X97511903Y-64460952D02*
X97464284Y-64270476D01*
X97464284Y-64270476D02*
X97369046Y-64175238D01*
X97369046Y-64175238D02*
X97273808Y-64127619D01*
X96416665Y-64127619D02*
X96416665Y-64937142D01*
X96416665Y-64937142D02*
X96369046Y-65032380D01*
X96369046Y-65032380D02*
X96321427Y-65080000D01*
X96321427Y-65080000D02*
X96226189Y-65127619D01*
X96226189Y-65127619D02*
X96035713Y-65127619D01*
X96035713Y-65127619D02*
X95940475Y-65080000D01*
X95940475Y-65080000D02*
X95892856Y-65032380D01*
X95892856Y-65032380D02*
X95845237Y-64937142D01*
X95845237Y-64937142D02*
X95845237Y-64127619D01*
X95369046Y-65127619D02*
X95369046Y-64127619D01*
X95369046Y-64127619D02*
X94797618Y-65127619D01*
X94797618Y-65127619D02*
X94797618Y-64127619D01*
X94464284Y-64127619D02*
X93892856Y-64127619D01*
X94178570Y-65127619D02*
X94178570Y-64127619D01*
X93559522Y-64603809D02*
X93226189Y-64603809D01*
X93083332Y-65127619D02*
X93559522Y-65127619D01*
X93559522Y-65127619D02*
X93559522Y-64127619D01*
X93559522Y-64127619D02*
X93083332Y-64127619D01*
X92654760Y-65127619D02*
X92654760Y-64127619D01*
X92654760Y-64127619D02*
X92416665Y-64127619D01*
X92416665Y-64127619D02*
X92273808Y-64175238D01*
X92273808Y-64175238D02*
X92178570Y-64270476D01*
X92178570Y-64270476D02*
X92130951Y-64365714D01*
X92130951Y-64365714D02*
X92083332Y-64556190D01*
X92083332Y-64556190D02*
X92083332Y-64699047D01*
X92083332Y-64699047D02*
X92130951Y-64889523D01*
X92130951Y-64889523D02*
X92178570Y-64984761D01*
X92178570Y-64984761D02*
X92273808Y-65080000D01*
X92273808Y-65080000D02*
X92416665Y-65127619D01*
X92416665Y-65127619D02*
X92654760Y-65127619D01*
X91035712Y-64127619D02*
X90464284Y-64127619D01*
X90749998Y-65127619D02*
X90749998Y-64127619D01*
X89940474Y-64127619D02*
X89749998Y-64127619D01*
X89749998Y-64127619D02*
X89654760Y-64175238D01*
X89654760Y-64175238D02*
X89559522Y-64270476D01*
X89559522Y-64270476D02*
X89511903Y-64460952D01*
X89511903Y-64460952D02*
X89511903Y-64794285D01*
X89511903Y-64794285D02*
X89559522Y-64984761D01*
X89559522Y-64984761D02*
X89654760Y-65080000D01*
X89654760Y-65080000D02*
X89749998Y-65127619D01*
X89749998Y-65127619D02*
X89940474Y-65127619D01*
X89940474Y-65127619D02*
X90035712Y-65080000D01*
X90035712Y-65080000D02*
X90130950Y-64984761D01*
X90130950Y-64984761D02*
X90178569Y-64794285D01*
X90178569Y-64794285D02*
X90178569Y-64460952D01*
X90178569Y-64460952D02*
X90130950Y-64270476D01*
X90130950Y-64270476D02*
X90035712Y-64175238D01*
X90035712Y-64175238D02*
X89940474Y-64127619D01*
X88464283Y-64127619D02*
X87892855Y-64127619D01*
X88178569Y-65127619D02*
X88178569Y-64127619D01*
X87559521Y-65127619D02*
X87559521Y-64127619D01*
X87559521Y-64603809D02*
X86988093Y-64603809D01*
X86988093Y-65127619D02*
X86988093Y-64127619D01*
X86511902Y-65127619D02*
X86511902Y-64127619D01*
X86083331Y-65080000D02*
X85940474Y-65127619D01*
X85940474Y-65127619D02*
X85702379Y-65127619D01*
X85702379Y-65127619D02*
X85607141Y-65080000D01*
X85607141Y-65080000D02*
X85559522Y-65032380D01*
X85559522Y-65032380D02*
X85511903Y-64937142D01*
X85511903Y-64937142D02*
X85511903Y-64841904D01*
X85511903Y-64841904D02*
X85559522Y-64746666D01*
X85559522Y-64746666D02*
X85607141Y-64699047D01*
X85607141Y-64699047D02*
X85702379Y-64651428D01*
X85702379Y-64651428D02*
X85892855Y-64603809D01*
X85892855Y-64603809D02*
X85988093Y-64556190D01*
X85988093Y-64556190D02*
X86035712Y-64508571D01*
X86035712Y-64508571D02*
X86083331Y-64413333D01*
X86083331Y-64413333D02*
X86083331Y-64318095D01*
X86083331Y-64318095D02*
X86035712Y-64222857D01*
X86035712Y-64222857D02*
X85988093Y-64175238D01*
X85988093Y-64175238D02*
X85892855Y-64127619D01*
X85892855Y-64127619D02*
X85654760Y-64127619D01*
X85654760Y-64127619D02*
X85511903Y-64175238D01*
X84369045Y-65080000D02*
X84226188Y-65127619D01*
X84226188Y-65127619D02*
X83988093Y-65127619D01*
X83988093Y-65127619D02*
X83892855Y-65080000D01*
X83892855Y-65080000D02*
X83845236Y-65032380D01*
X83845236Y-65032380D02*
X83797617Y-64937142D01*
X83797617Y-64937142D02*
X83797617Y-64841904D01*
X83797617Y-64841904D02*
X83845236Y-64746666D01*
X83845236Y-64746666D02*
X83892855Y-64699047D01*
X83892855Y-64699047D02*
X83988093Y-64651428D01*
X83988093Y-64651428D02*
X84178569Y-64603809D01*
X84178569Y-64603809D02*
X84273807Y-64556190D01*
X84273807Y-64556190D02*
X84321426Y-64508571D01*
X84321426Y-64508571D02*
X84369045Y-64413333D01*
X84369045Y-64413333D02*
X84369045Y-64318095D01*
X84369045Y-64318095D02*
X84321426Y-64222857D01*
X84321426Y-64222857D02*
X84273807Y-64175238D01*
X84273807Y-64175238D02*
X84178569Y-64127619D01*
X84178569Y-64127619D02*
X83940474Y-64127619D01*
X83940474Y-64127619D02*
X83797617Y-64175238D01*
X83369045Y-65127619D02*
X83369045Y-64127619D01*
X82892855Y-65127619D02*
X82892855Y-64127619D01*
X82892855Y-64127619D02*
X82654760Y-64127619D01*
X82654760Y-64127619D02*
X82511903Y-64175238D01*
X82511903Y-64175238D02*
X82416665Y-64270476D01*
X82416665Y-64270476D02*
X82369046Y-64365714D01*
X82369046Y-64365714D02*
X82321427Y-64556190D01*
X82321427Y-64556190D02*
X82321427Y-64699047D01*
X82321427Y-64699047D02*
X82369046Y-64889523D01*
X82369046Y-64889523D02*
X82416665Y-64984761D01*
X82416665Y-64984761D02*
X82511903Y-65080000D01*
X82511903Y-65080000D02*
X82654760Y-65127619D01*
X82654760Y-65127619D02*
X82892855Y-65127619D01*
X81892855Y-64603809D02*
X81559522Y-64603809D01*
X81416665Y-65127619D02*
X81892855Y-65127619D01*
X81892855Y-65127619D02*
X81892855Y-64127619D01*
X81892855Y-64127619D02*
X81416665Y-64127619D01*
%TO.C,J4*%
X56842619Y-68186666D02*
X57556904Y-68186666D01*
X57556904Y-68186666D02*
X57699761Y-68139047D01*
X57699761Y-68139047D02*
X57795000Y-68043809D01*
X57795000Y-68043809D02*
X57842619Y-67900952D01*
X57842619Y-67900952D02*
X57842619Y-67805714D01*
X57175952Y-69091428D02*
X57842619Y-69091428D01*
X56795000Y-68853333D02*
X57509285Y-68615238D01*
X57509285Y-68615238D02*
X57509285Y-69234285D01*
D11*
X109740000Y-65920000D02*
X109740000Y-71120000D01*
X58820000Y-65920000D02*
X109740000Y-65920000D01*
X58820000Y-65920000D02*
X58820000Y-68520000D01*
X61420000Y-68520000D02*
X61420000Y-71120000D01*
X58820000Y-68520000D02*
X61420000Y-68520000D01*
X58820000Y-69790000D02*
X58820000Y-71120000D01*
X61420000Y-71120000D02*
X109740000Y-71120000D01*
X58820000Y-71120000D02*
X60150000Y-71120000D01*
%TD*%
D12*
%TO.C,    X2    *%
X161770000Y-78097500D03*
X161770000Y-66667500D03*
%TD*%
%TO.C,    X1    *%
X161770000Y-119847500D03*
X161770000Y-108417500D03*
%TD*%
M02*
