M48
; DRILL file {KiCad 7.0.1} date Tue Aug  1 18:44:53 2023
; FORMAT={-:-/ absolute / metric / decimal}
; #@! TF.CreationDate,2023-08-01T18:44:53-04:00
; #@! TF.GenerationSoftware,Kicad,Pcbnew,7.0.1
; #@! TF.FileFunction,Plated,1,2,PTH
FMAT,2
METRIC
; #@! TA.AperFunction,Plated,PTH,ViaDrill
T1C0.400
; #@! TA.AperFunction,Plated,PTH,ComponentDrill
T2C0.800
; #@! TA.AperFunction,Plated,PTH,ComponentDrill
T3C0.900
; #@! TA.AperFunction,Plated,PTH,ComponentDrill
T4C1.000
; #@! TA.AperFunction,Plated,PTH,ComponentDrill
T5C1.270
; #@! TA.AperFunction,Plated,PTH,ComponentDrill
T6C2.700
%
G90
G05
T1
X52.5Y-88.5
X56.0Y-73.5
X56.0Y-103.5
X56.25Y-102.5
X56.5Y-74.25
X57.0Y-73.5
X57.0Y-103.25
X58.25Y-81.75
X58.5Y-112.25
X59.0Y-81.0
X59.0Y-113.0
X59.5Y-112.25
X59.5Y-117.25
X59.5Y-118.25
X59.75Y-80.25
X59.75Y-99.25
X59.75Y-100.25
X60.0Y-113.0
X60.5Y-99.75
X60.5Y-112.25
X61.0Y-113.0
X61.5Y-73.5
X61.5Y-74.5
X61.777Y-83.527
X62.5Y-73.0
X62.527Y-82.777
X62.75Y-83.0
X67.25Y-82.25
X67.25Y-83.25
X67.425Y-75.425
X68.0Y-81.75
X68.0Y-82.75
X68.75Y-74.25
X69.5Y-77.5
X69.75Y-73.5
X69.75Y-103.0
X70.25Y-102.25
X70.25Y-103.75
X70.75Y-103.0
X71.0Y-73.5
X71.5Y-110.5
X78.75Y-84.0
X79.0Y-97.762
X79.25Y-106.75
X79.75Y-105.75
X80.25Y-98.0
X80.5Y-92.5
X80.634Y-104.884
X81.424Y-96.835
X81.5Y-90.25
X81.603Y-105.147
X81.875Y-92.375
X81.92Y-97.703
X82.25Y-89.0
X82.934Y-98.2
X83.0Y-110.75
X83.75Y-87.0
X84.0Y-98.2
X84.75Y-86.0
X85.0Y-110.75
X90.5Y-78.0
X91.0Y-77.25
X91.5Y-76.5
X91.5Y-78.0
X92.0Y-77.25
X92.5Y-76.5
X92.5Y-78.0
X93.0Y-77.25
X93.5Y-76.5
X94.5Y-120.25
X96.5Y-122.5
X97.5Y-92.75
X98.0Y-93.5
X98.25Y-87.5
X98.5Y-92.75
X98.5Y-121.475
X98.75Y-86.75
X99.0Y-93.5
X99.25Y-86.0
X99.25Y-87.5
X99.5Y-92.75
X99.75Y-86.75
X100.25Y-86.0
X100.25Y-87.5
X100.75Y-86.75
X101.25Y-86.0
X101.25Y-87.5
X101.75Y-86.75
X102.0Y-84.0
X102.25Y-87.5
X103.0Y-79.75
X103.329Y-73.5
X103.75Y-79.25
X103.75Y-80.25
X104.5Y-78.75
X104.5Y-79.75
X104.5Y-80.75
X110.25Y-120.5
X111.25Y-120.5
X113.5Y-76.5
X114.25Y-75.75
X114.25Y-77.25
X115.0Y-76.5
X117.75Y-120.0
X123.0Y-69.5
X123.0Y-70.5
X124.875Y-99.375
X129.25Y-62.25
X129.25Y-120.25
X129.25Y-121.25
X129.25Y-122.25
X129.251Y-119.251
X129.5Y-60.5
X129.5Y-69.5
X129.5Y-70.5
X129.5Y-115.52
X130.277Y-112.473
X131.303Y-115.644
X131.625Y-107.875
X135.0Y-72.75
X135.75Y-69.5
X135.75Y-70.5
X137.125Y-113.625
X142.0Y-68.0
X142.75Y-67.25
X144.75Y-71.75
T2
X143.25Y-109.0
X145.75Y-109.0
T3
X76.25Y-116.25
X76.25Y-118.79
X81.25Y-116.25
X81.25Y-118.79
X86.25Y-116.265
X86.25Y-118.805
X91.25Y-116.265
X91.25Y-118.805
X152.88Y-67.938
X152.88Y-70.477
X152.88Y-73.017
X152.88Y-75.557
X152.88Y-109.688
X152.88Y-112.227
X152.88Y-114.767
X152.88Y-117.307
X155.42Y-69.207
X155.42Y-71.748
X155.42Y-74.287
X155.42Y-76.828
X155.42Y-110.957
X155.42Y-113.497
X155.42Y-116.037
X155.42Y-118.578
T4
X52.209Y-73.757
X52.209Y-76.297
X52.209Y-78.837
X52.209Y-81.377
X52.209Y-83.917
X52.209Y-86.457
X53.27Y-95.85
X53.27Y-108.55
X55.81Y-95.85
X55.81Y-108.55
X57.148Y-86.384
X57.148Y-88.924
X57.148Y-91.464
X58.35Y-95.85
X58.35Y-108.55
X59.673Y-86.384
X59.673Y-88.924
X59.673Y-91.464
X60.15Y-67.25
X60.15Y-69.79
X60.89Y-95.85
X60.89Y-108.55
X62.213Y-86.384
X62.213Y-88.924
X62.213Y-91.464
X62.69Y-67.25
X62.69Y-69.79
X63.43Y-95.85
X63.43Y-108.55
X64.763Y-86.384
X64.763Y-88.924
X64.763Y-91.464
X65.23Y-67.25
X65.23Y-69.79
X67.77Y-67.25
X67.77Y-69.79
X68.57Y-95.8
X68.57Y-108.5
X69.848Y-86.384
X69.848Y-88.924
X69.848Y-91.464
X70.31Y-67.25
X70.31Y-69.79
X71.11Y-95.8
X71.11Y-108.5
X72.373Y-86.384
X72.373Y-88.924
X72.373Y-91.464
X72.85Y-67.25
X72.85Y-69.79
X73.65Y-95.8
X73.65Y-108.5
X74.913Y-86.384
X74.913Y-88.924
X74.913Y-91.464
X75.39Y-67.25
X75.39Y-69.79
X76.19Y-95.8
X76.19Y-108.5
X77.463Y-86.384
X77.463Y-88.924
X77.463Y-91.464
X77.93Y-67.25
X77.93Y-69.79
X78.73Y-95.8
X78.73Y-108.5
X80.47Y-67.25
X80.47Y-69.79
X83.01Y-67.25
X83.01Y-69.79
X83.82Y-95.85
X83.82Y-108.55
X85.55Y-67.25
X85.55Y-69.79
X86.36Y-95.85
X86.36Y-108.55
X88.09Y-67.25
X88.09Y-69.79
X88.9Y-95.85
X88.9Y-108.55
X90.63Y-67.25
X90.63Y-69.79
X91.44Y-95.85
X91.44Y-108.55
X93.17Y-67.25
X93.17Y-69.79
X93.98Y-95.85
X93.98Y-108.55
X95.71Y-67.25
X95.71Y-69.79
X98.25Y-67.25
X98.25Y-69.79
X99.07Y-95.8
X99.07Y-108.5
X100.79Y-67.25
X100.79Y-69.79
X101.61Y-95.8
X101.61Y-108.5
X103.33Y-67.25
X103.33Y-69.79
X104.15Y-95.8
X104.15Y-108.5
X105.87Y-67.25
X105.87Y-69.79
X106.69Y-95.8
X106.69Y-108.5
X108.41Y-67.25
X108.41Y-69.79
X109.23Y-95.8
X109.23Y-108.5
X110.534Y-74.032
X110.534Y-76.572
X110.534Y-79.112
X110.534Y-81.652
X110.534Y-84.192
X110.534Y-86.732
X114.57Y-95.8
X114.57Y-108.5
X117.11Y-95.8
X117.11Y-108.5
X119.46Y-66.75
X119.65Y-95.8
X119.65Y-108.5
X120.25Y-113.43
X120.25Y-115.97
X120.25Y-118.51
X120.25Y-121.05
X122.0Y-66.75
X122.19Y-95.8
X122.19Y-108.5
X124.54Y-66.75
X124.73Y-95.8
X124.73Y-108.5
X126.1Y-74.99
X126.1Y-77.53
X126.1Y-85.75
X126.1Y-88.29
X127.08Y-66.75
X132.2Y-66.75
X134.74Y-66.75
X137.28Y-66.75
X139.82Y-66.75
X144.7Y-75.04
X144.7Y-77.58
X144.7Y-85.7
X144.7Y-88.24
T6
X55.32Y-68.29
X55.32Y-117.29
X113.32Y-68.29
X113.32Y-117.29
T5
X153.245Y-90.421G85X153.245Y-86.459
G05
X153.245Y-98.295G85X153.245Y-94.333
G05
T0
M30
