%TF.GenerationSoftware,KiCad,Pcbnew,7.0.1*%
%TF.CreationDate,2023-08-16T19:59:43-04:00*%
%TF.ProjectId,DaughterBoard_UTAP,44617567-6874-4657-9242-6f6172645f55,rev?*%
%TF.SameCoordinates,Original*%
%TF.FileFunction,Soldermask,Top*%
%TF.FilePolarity,Negative*%
%FSLAX46Y46*%
G04 Gerber Fmt 4.6, Leading zero omitted, Abs format (unit mm)*
G04 Created by KiCad (PCBNEW 7.0.1) date 2023-08-16 19:59:43*
%MOMM*%
%LPD*%
G01*
G04 APERTURE LIST*
G04 Aperture macros list*
%AMRoundRect*
0 Rectangle with rounded corners*
0 $1 Rounding radius*
0 $2 $3 $4 $5 $6 $7 $8 $9 X,Y pos of 4 corners*
0 Add a 4 corners polygon primitive as box body*
4,1,4,$2,$3,$4,$5,$6,$7,$8,$9,$2,$3,0*
0 Add four circle primitives for the rounded corners*
1,1,$1+$1,$2,$3*
1,1,$1+$1,$4,$5*
1,1,$1+$1,$6,$7*
1,1,$1+$1,$8,$9*
0 Add four rect primitives between the rounded corners*
20,1,$1+$1,$2,$3,$4,$5,0*
20,1,$1+$1,$4,$5,$6,$7,0*
20,1,$1+$1,$6,$7,$8,$9,0*
20,1,$1+$1,$8,$9,$2,$3,0*%
%AMFreePoly0*
4,1,19,0.550000,-0.750000,0.000000,-0.750000,0.000000,-0.744911,-0.071157,-0.744911,-0.207708,-0.704816,-0.327430,-0.627875,-0.420627,-0.520320,-0.479746,-0.390866,-0.500000,-0.250000,-0.500000,0.250000,-0.479746,0.390866,-0.420627,0.520320,-0.327430,0.627875,-0.207708,0.704816,-0.071157,0.744911,0.000000,0.744911,0.000000,0.750000,0.550000,0.750000,0.550000,-0.750000,0.550000,-0.750000,
$1*%
%AMFreePoly1*
4,1,19,0.000000,0.744911,0.071157,0.744911,0.207708,0.704816,0.327430,0.627875,0.420627,0.520320,0.479746,0.390866,0.500000,0.250000,0.500000,-0.250000,0.479746,-0.390866,0.420627,-0.520320,0.327430,-0.627875,0.207708,-0.704816,0.071157,-0.744911,0.000000,-0.744911,0.000000,-0.750000,-0.550000,-0.750000,-0.550000,0.750000,0.000000,0.750000,0.000000,0.744911,0.000000,0.744911,
$1*%
G04 Aperture macros list end*
%ADD10RoundRect,0.250000X-0.400000X-0.625000X0.400000X-0.625000X0.400000X0.625000X-0.400000X0.625000X0*%
%ADD11R,1.800000X1.800000*%
%ADD12C,1.800000*%
%ADD13C,5.400000*%
%ADD14RoundRect,0.250000X0.400000X0.625000X-0.400000X0.625000X-0.400000X-0.625000X0.400000X-0.625000X0*%
%ADD15R,0.800000X0.950000*%
%ADD16C,3.650000*%
%ADD17R,1.500000X1.500000*%
%ADD18C,1.500000*%
%ADD19R,1.400000X2.200000*%
%ADD20FreePoly0,0.000000*%
%ADD21R,1.000000X1.500000*%
%ADD22FreePoly1,0.000000*%
%ADD23O,1.700000X1.700000*%
%ADD24C,1.700000*%
%ADD25R,1.700000X1.700000*%
%ADD26R,1.600000X1.600000*%
%ADD27C,1.600000*%
%ADD28FreePoly0,270.000000*%
%ADD29R,1.500000X1.000000*%
%ADD30FreePoly1,270.000000*%
%ADD31RoundRect,0.155000X0.212500X0.155000X-0.212500X0.155000X-0.212500X-0.155000X0.212500X-0.155000X0*%
%ADD32RoundRect,0.250000X-0.625000X0.400000X-0.625000X-0.400000X0.625000X-0.400000X0.625000X0.400000X0*%
%ADD33R,1.400000X0.300000*%
%ADD34O,2.540000X6.502400*%
%ADD35RoundRect,0.250000X0.625000X-0.400000X0.625000X0.400000X-0.625000X0.400000X-0.625000X-0.400000X0*%
%ADD36R,3.810000X2.080000*%
%ADD37R,8.890000X11.430000*%
G04 APERTURE END LIST*
D10*
%TO.C,R16*%
X85700000Y-105750000D03*
X88800000Y-105750000D03*
%TD*%
%TO.C,R15*%
X101200000Y-106000000D03*
X104300000Y-106000000D03*
%TD*%
%TO.C,R14*%
X55700000Y-105750000D03*
X58800000Y-105750000D03*
%TD*%
%TO.C,R13*%
X69950000Y-105750000D03*
X73050000Y-105750000D03*
%TD*%
%TO.C,R12*%
X119300000Y-105750000D03*
X116200000Y-105750000D03*
%TD*%
D11*
%TO.C,GPIO_22*%
X76250000Y-118790000D03*
D12*
X76250000Y-116250000D03*
%TD*%
D10*
%TO.C,R6*%
X73000000Y-76500000D03*
X76100000Y-76500000D03*
%TD*%
D13*
%TO.C,*%
X55320000Y-117290000D03*
%TD*%
D14*
%TO.C,R9*%
X63800000Y-105750000D03*
X60700000Y-105750000D03*
%TD*%
D11*
%TO.C,GPIO_24*%
X86250000Y-118805000D03*
D12*
X86250000Y-116265000D03*
%TD*%
D15*
%TO.C,LED1*%
X60800000Y-115825000D03*
X62500000Y-115825000D03*
%TD*%
D16*
%TO.C,    X2    *%
X161770000Y-78097500D03*
X161770000Y-66667500D03*
D17*
X155420000Y-76827500D03*
D18*
X152880000Y-75557500D03*
X155420000Y-74287500D03*
X152880000Y-73017500D03*
X155420000Y-71747500D03*
X152880000Y-70477500D03*
X155420000Y-69207500D03*
X152880000Y-67937500D03*
%TD*%
D19*
%TO.C,TP4*%
X157000000Y-61750000D03*
%TD*%
D20*
%TO.C,JP5*%
X125200000Y-70000000D03*
D21*
X126500000Y-70000000D03*
D22*
X127800000Y-70000000D03*
%TD*%
D14*
%TO.C,R7*%
X93800000Y-105750000D03*
X90700000Y-105750000D03*
%TD*%
D23*
%TO.C,U6*%
X110534033Y-74032000D03*
X110534033Y-76572000D03*
X110534033Y-79112000D03*
X110534033Y-81652000D03*
X110534033Y-84192000D03*
D24*
X110534033Y-86732000D03*
X52209033Y-73757000D03*
D23*
X52209033Y-76297000D03*
X52209033Y-78837000D03*
X52209033Y-81377000D03*
X52209033Y-83917000D03*
X52209033Y-86457000D03*
D25*
X57148033Y-86384000D03*
D23*
X57148033Y-88924000D03*
X57148033Y-91464000D03*
D25*
X59673033Y-86384000D03*
D23*
X59673033Y-88924000D03*
X59673033Y-91464000D03*
D25*
X62213033Y-86384000D03*
D23*
X62213033Y-88924000D03*
X62213033Y-91464000D03*
D25*
X64763033Y-86384000D03*
D23*
X64763033Y-88924000D03*
X64763033Y-91464000D03*
D25*
X69848033Y-86384000D03*
D23*
X69848033Y-88924000D03*
X69848033Y-91464000D03*
D25*
X72373033Y-86384000D03*
D23*
X72373033Y-88924000D03*
X72373033Y-91464000D03*
D25*
X74913033Y-86384000D03*
D23*
X74913033Y-88924000D03*
X74913033Y-91464000D03*
D25*
X77463033Y-86384000D03*
D23*
X77463033Y-88924000D03*
X77463033Y-91464000D03*
%TD*%
D11*
%TO.C,GPIO_23*%
X81250000Y-118790000D03*
D12*
X81250000Y-116250000D03*
%TD*%
D23*
%TO.C,U5*%
X83820000Y-108550000D03*
X86360000Y-108550000D03*
X88900000Y-108550000D03*
X91440000Y-108550000D03*
D25*
X93980000Y-108550000D03*
X93980000Y-95850000D03*
D23*
X91440000Y-95850000D03*
X88900000Y-95850000D03*
X86360000Y-95850000D03*
X83820000Y-95850000D03*
%TD*%
%TO.C,U3*%
X114570000Y-108500000D03*
X117110000Y-108500000D03*
X119650000Y-108500000D03*
X122190000Y-108500000D03*
D25*
X124730000Y-108500000D03*
X124730000Y-95800000D03*
D23*
X122190000Y-95800000D03*
X119650000Y-95800000D03*
X117110000Y-95800000D03*
X114570000Y-95800000D03*
%TD*%
D14*
%TO.C,R10*%
X78050000Y-105750000D03*
X74950000Y-105750000D03*
%TD*%
D20*
%TO.C,JP1*%
X131400000Y-70000000D03*
D21*
X132700000Y-70000000D03*
D22*
X134000000Y-70000000D03*
%TD*%
D14*
%TO.C,R2*%
X76100000Y-73500000D03*
X73000000Y-73500000D03*
%TD*%
D11*
%TO.C,GPIO_25*%
X91250000Y-118805000D03*
D12*
X91250000Y-116265000D03*
%TD*%
D25*
%TO.C,J1*%
X119460000Y-66750000D03*
D23*
X122000000Y-66750000D03*
X124540000Y-66750000D03*
X127080000Y-66750000D03*
%TD*%
D26*
%TO.C,C1*%
X145750000Y-109000000D03*
D27*
X143250000Y-109000000D03*
%TD*%
D28*
%TO.C,JP4*%
X123750000Y-112920000D03*
D29*
X123750000Y-114220000D03*
D30*
X123750000Y-115520000D03*
%TD*%
D23*
%TO.C,U4*%
X99070000Y-108500000D03*
X101610000Y-108500000D03*
X104150000Y-108500000D03*
X106690000Y-108500000D03*
D25*
X109230000Y-108500000D03*
X109230000Y-95800000D03*
D23*
X106690000Y-95800000D03*
X104150000Y-95800000D03*
X101610000Y-95800000D03*
X99070000Y-95800000D03*
%TD*%
D19*
%TO.C,TP6*%
X144250000Y-64500000D03*
%TD*%
D13*
%TO.C,*%
X113320000Y-117290000D03*
%TD*%
D20*
%TO.C,JP2*%
X137950000Y-70000000D03*
D21*
X139250000Y-70000000D03*
D22*
X140550000Y-70000000D03*
%TD*%
D20*
%TO.C,JP6*%
X118700000Y-70000000D03*
D21*
X120000000Y-70000000D03*
D22*
X121300000Y-70000000D03*
%TD*%
D31*
%TO.C,C2*%
X64117500Y-75275000D03*
X62982500Y-75275000D03*
%TD*%
D19*
%TO.C,GND*%
X117000000Y-76500000D03*
%TD*%
%TO.C,TP8*%
X108500000Y-120500000D03*
%TD*%
D32*
%TO.C,R3*%
X78550000Y-78725000D03*
X78550000Y-81825000D03*
%TD*%
D14*
%TO.C,R8*%
X109300000Y-106000000D03*
X106200000Y-106000000D03*
%TD*%
D23*
%TO.C,U1*%
X53270000Y-108550000D03*
X55810000Y-108550000D03*
X58350000Y-108550000D03*
X60890000Y-108550000D03*
D25*
X63430000Y-108550000D03*
X63430000Y-95850000D03*
D23*
X60890000Y-95850000D03*
X58350000Y-95850000D03*
X55810000Y-95850000D03*
X53270000Y-95850000D03*
%TD*%
D33*
%TO.C,IC1*%
X61350000Y-76775000D03*
X61350000Y-77275000D03*
X61350000Y-77775000D03*
X61350000Y-78275000D03*
X61350000Y-78775000D03*
X65750000Y-78775000D03*
X65750000Y-78275000D03*
X65750000Y-77775000D03*
X65750000Y-77275000D03*
X65750000Y-76775000D03*
%TD*%
D19*
%TO.C,TP9*%
X116750000Y-87500000D03*
%TD*%
D14*
%TO.C,R1*%
X76100000Y-81775000D03*
X73000000Y-81775000D03*
%TD*%
D34*
%TO.C,J3*%
X153245000Y-88440000D03*
X153245000Y-96314000D03*
%TD*%
D19*
%TO.C,TP10*%
X121500000Y-76500000D03*
%TD*%
D25*
%TO.C,BME/BMP280*%
X120250000Y-121050000D03*
D23*
X120250000Y-118510000D03*
X120250000Y-115970000D03*
X120250000Y-113430000D03*
%TD*%
D13*
%TO.C,*%
X113320000Y-68290000D03*
%TD*%
D19*
%TO.C,TP1*%
X96500000Y-120500000D03*
%TD*%
D35*
%TO.C,R4*%
X78550000Y-76550000D03*
X78550000Y-73450000D03*
%TD*%
D23*
%TO.C,U2*%
X68570000Y-108500000D03*
X71110000Y-108500000D03*
X73650000Y-108500000D03*
X76190000Y-108500000D03*
D25*
X78730000Y-108500000D03*
X78730000Y-95800000D03*
D23*
X76190000Y-95800000D03*
X73650000Y-95800000D03*
X71110000Y-95800000D03*
X68570000Y-95800000D03*
%TD*%
D15*
%TO.C,LED2*%
X60800000Y-119500000D03*
X62500000Y-119500000D03*
%TD*%
D25*
%TO.C,OLED*%
X132200000Y-66750000D03*
D23*
X134740000Y-66750000D03*
X137280000Y-66750000D03*
X139820000Y-66750000D03*
%TD*%
D36*
%TO.C,Q1*%
X147485000Y-99790000D03*
D37*
X136055000Y-97250000D03*
D36*
X147485000Y-94710000D03*
%TD*%
D28*
%TO.C,JP3*%
X123750000Y-118700000D03*
D29*
X123750000Y-120000000D03*
D30*
X123750000Y-121300000D03*
%TD*%
D19*
%TO.C,TP2*%
X100500000Y-120500000D03*
%TD*%
%TO.C,TP7*%
X104500000Y-120500000D03*
%TD*%
D13*
%TO.C,*%
X55320000Y-68290000D03*
%TD*%
D16*
%TO.C,    X1    *%
X161770000Y-119847500D03*
X161770000Y-108417500D03*
D17*
X155420000Y-118577500D03*
D18*
X152880000Y-117307500D03*
X155420000Y-116037500D03*
X152880000Y-114767500D03*
X155420000Y-113497500D03*
X152880000Y-112227500D03*
X155420000Y-110957500D03*
X152880000Y-109687500D03*
%TD*%
D10*
%TO.C,R5*%
X73000000Y-78775000D03*
X76100000Y-78775000D03*
%TD*%
D19*
%TO.C,TP5*%
X148250000Y-64500000D03*
%TD*%
D14*
%TO.C,R11*%
X124300000Y-105750000D03*
X121200000Y-105750000D03*
%TD*%
D23*
%TO.C,U7*%
X126100000Y-88290000D03*
D24*
X126100000Y-85750000D03*
D23*
X144700000Y-88240000D03*
D24*
X144700000Y-85700000D03*
D25*
X144700000Y-77580000D03*
X144700000Y-75040000D03*
X126100000Y-77530000D03*
X126100000Y-74990000D03*
%TD*%
D19*
%TO.C,TP3*%
X161500000Y-61750000D03*
%TD*%
D25*
%TO.C,J4*%
X60150000Y-69790000D03*
D23*
X60150000Y-67250000D03*
X62690000Y-69790000D03*
X62690000Y-67250000D03*
X65230000Y-69790000D03*
X65230000Y-67250000D03*
X67770000Y-69790000D03*
X67770000Y-67250000D03*
X70310000Y-69790000D03*
X70310000Y-67250000D03*
X72850000Y-69790000D03*
X72850000Y-67250000D03*
X75390000Y-69790000D03*
X75390000Y-67250000D03*
X77930000Y-69790000D03*
X77930000Y-67250000D03*
X80470000Y-69790000D03*
X80470000Y-67250000D03*
X83010000Y-69790000D03*
X83010000Y-67250000D03*
X85550000Y-69790000D03*
X85550000Y-67250000D03*
X88090000Y-69790000D03*
X88090000Y-67250000D03*
X90630000Y-69790000D03*
X90630000Y-67250000D03*
X93170000Y-69790000D03*
X93170000Y-67250000D03*
X95710000Y-69790000D03*
X95710000Y-67250000D03*
X98250000Y-69790000D03*
X98250000Y-67250000D03*
X100790000Y-69790000D03*
X100790000Y-67250000D03*
X103330000Y-69790000D03*
X103330000Y-67250000D03*
X105870000Y-69790000D03*
X105870000Y-67250000D03*
X108410000Y-69790000D03*
X108410000Y-67250000D03*
%TD*%
M02*
